<?xml version="1.0" encoding="UTF-8"?>
<svg version="1.1" xmlns="http://www.w3.org/2000/svg" width="1275" height="635">
<path d="M0 0 C1.18335938 0.00757324 2.36671875 0.01514648 3.5859375 0.02294922 C18.47501415 0.30283444 32.21154872 3.67251115 43.75 13.625 C50.67565119 20.97992709 55.67075227 31.74856864 59.04296875 41.21484375 C61.17113714 45.385245 63.49027887 47.41834009 67.6875 49.4375 C70.72451285 50.33187309 73.73508256 50.75823893 76.875 51.125 C78.559905 51.35800666 80.24480084 51.59107954 81.9296875 51.82421875 C83.51560222 52.02882249 85.10153805 52.23326267 86.6875 52.4375 C99.43937219 54.23031078 99.43937219 54.23031078 104.6875 57.4375 C104.6875 58.7575 104.6875 60.0775 104.6875 61.4375 C104.12877197 61.59831055 103.57004395 61.75912109 102.99438477 61.92480469 C100.41096495 62.67244729 97.83052117 63.4299158 95.25 64.1875 C94.37150391 64.44015625 93.49300781 64.6928125 92.58789062 64.953125 C80.29557491 68.58185289 67.8609006 73.46633545 60.9921875 84.93359375 C55.44543721 95.57870433 49.76373955 108.27360816 52.6875 120.4375 C53.71703783 123.11660734 55.00956959 125.60340658 56.375 128.125 C57.10278834 129.53061597 57.82933584 130.93687506 58.5546875 132.34375 C58.91530273 133.0346875 59.27591797 133.725625 59.64746094 134.4375 C70.93507229 156.14362963 75.05600561 183.65551881 69.1875 207.75 C59.21887221 237.86648817 35.48523565 263.47452568 10.6875 282.4375 C9.6871875 283.2315625 8.686875 284.025625 7.65625 284.84375 C-23.13936136 309.18816285 -57.19834572 326.46227665 -96.3125 331.4375 C-93.91882249 336.04450945 -92.24697008 339.04329117 -87.6875 341.75 C-85.25088448 343.22734994 -83.33430983 344.41569017 -81.3125 346.4375 C-81.51094469 351.69628432 -82.58279261 354.70779261 -86.3125 358.4375 C-87.3025 358.7675 -88.2925 359.0975 -89.3125 359.4375 C-86.8413744 366.03569961 -84.36934804 372.63356126 -81.89672852 379.23120117 C-81.0576594 381.47038333 -80.21878794 383.70963956 -79.38012695 385.94897461 C-78.77140747 387.57428101 -78.77140747 387.57428101 -78.15039062 389.23242188 C-77.74996552 390.30219269 -77.34954041 391.3719635 -76.9369812 392.47415161 C-76.14066138 394.59586681 -75.34114214 396.71638408 -74.5383606 398.83566284 C-72.92927245 403.08631578 -71.32433547 407.3278203 -69.89599609 411.64306641 C-67.39306252 418.96102761 -64.65695709 423.00106229 -58.3125 427.4375 C-56.91484243 428.47671771 -55.5189683 429.51833884 -54.125 430.5625 C-53.47184814 431.04726807 -52.81869629 431.53203613 -52.14575195 432.03149414 C-49.59483869 433.98790771 -47.37124819 435.96456579 -45.3125 438.4375 C-45.11328125 440.53515625 -45.11328125 440.53515625 -45.625 442.5 C-46.3646667 446.73627289 -46.10860879 446.95753921 -44.3125 450.4375 C-44.58629786 455.18332962 -45.79334191 459.00222773 -47.7890625 463.25 C-49.18081325 469.06627177 -46.59264113 474.96070996 -44.5234375 480.34765625 C-44.23264816 481.1225238 -43.94185883 481.89739136 -43.64225769 482.69573975 C-43.00308076 484.39645025 -42.36064137 486.09593732 -41.71536255 487.79434204 C-40.65926546 490.57432221 -39.61164396 493.35736879 -38.56616211 496.14135742 C-37.41529683 499.20571297 -36.26387672 502.26984931 -35.11003113 505.33308411 C-31.95995981 513.69771408 -28.8387351 522.07288997 -25.73046875 530.453125 C-25.49205072 531.09589449 -25.2536327 531.73866398 -25.00798988 532.40091133 C-23.2960542 537.01692635 -21.58535943 541.63340075 -19.875 546.25 C-18.15966075 550.87987003 -16.44427207 555.5097217 -14.72855568 560.13945198 C-14.2436141 561.448073 -13.75871888 562.7567112 -13.27387047 564.06536674 C-10.30294563 572.08361634 -7.32187634 580.09798665 -4.32655334 588.10716248 C-2.71386574 592.42081612 -1.10583704 596.73619787 0.50149536 601.05184937 C1.24465986 603.04330412 1.99012761 605.03390103 2.73800659 607.02359009 C3.75696017 609.73494273 4.76805439 612.44910062 5.77734375 615.1640625 C6.07612427 615.95263138 6.37490479 616.74120026 6.68273926 617.55366516 C7.98822161 621.08832905 8.6875 623.62219206 8.6875 627.4375 C-0.17603595 632.98339959 -7.86919232 635.00935475 -18.3125 633.4375 C-25.78883959 630.79470089 -31.23992695 624.03051693 -34.59912109 617.05566406 C-35.31662952 615.44412447 -36.02003714 613.82625004 -36.7109375 612.203125 C-37.09301361 611.32916077 -37.47508972 610.45519653 -37.8687439 609.55474854 C-41.78288177 600.52096744 -45.3982818 591.37326313 -48.9375 582.1875 C-49.62662139 580.40968384 -50.31591596 578.6319348 -51.00537109 576.85424805 C-55.39939873 565.50151931 -59.72632334 554.1234937 -64.00527954 542.72692871 C-64.93505506 540.25649625 -65.87179549 537.78878737 -66.80932617 535.32128906 C-69.67588244 527.74009416 -72.44640398 520.15276869 -74.93475342 512.43791199 C-76.06927507 508.932021 -77.24550032 505.44070342 -78.42376709 501.9493103 C-78.96515367 500.30345431 -79.48527971 498.65041723 -79.98150635 496.99038696 C-82.91127119 486.86513591 -82.91127119 486.86513591 -90.21142578 479.71484375 C-92.99853758 478.24115088 -95.83045528 477.02283962 -98.76782227 475.8828125 C-103.6795136 473.88011171 -103.6795136 473.88011171 -105.3125 471.4375 C-105.3125 465.04297662 -103.04266413 460.16394275 -100.2734375 454.46484375 C-98.2036213 447.94408132 -101.13290144 441.65259765 -103.47265625 435.546875 C-103.78198593 434.72044495 -104.09131561 433.89401489 -104.41001892 433.0425415 C-105.39167629 430.42162832 -106.38248788 427.80432 -107.375 425.1875 C-108.37029824 422.55612469 -109.36346566 419.92402645 -110.35069275 417.28961182 C-110.96343846 415.65507628 -111.58092324 414.02230778 -112.20362854 412.39154053 C-114.3125 406.77447556 -114.3125 406.77447556 -114.3125 403.4375 C-114.85261719 403.19 -115.39273437 402.9425 -115.94921875 402.6875 C-118.8510218 401.15266202 -121.44077137 399.3282774 -124.125 397.4375 C-128.94180657 394.06710967 -133.79113795 390.75377768 -138.6875 387.5 C-139.31164795 387.08500244 -139.9357959 386.67000488 -140.57885742 386.24243164 C-142.48945438 384.97318818 -144.40082982 383.70512636 -146.3125 382.4375 C-150.7155056 379.51787192 -155.11415641 376.59210286 -159.50146484 373.64892578 C-160.7001161 372.84713183 -161.90093959 372.04857495 -163.10400391 371.25341797 C-179.9880326 360.08643479 -179.9880326 360.08643479 -183.3125 353.4375 C-183.99418969 346.38553773 -182.08430244 341.89182673 -178.875 335.6875 C-178.0399205 334.02757168 -177.20777342 332.36616409 -176.37890625 330.703125 C-176.00709229 329.97899414 -175.63527832 329.25486328 -175.25219727 328.50878906 C-174.33805214 326.49382226 -173.77441278 324.59653934 -173.3125 322.4375 C-173.85414795 322.32865479 -174.3957959 322.21980957 -174.95385742 322.10766602 C-180.66609414 320.90641173 -186.12260403 319.3155895 -191.625 317.375 C-192.48456299 317.07190918 -193.34412598 316.76881836 -194.22973633 316.45654297 C-213.28890688 309.58172074 -232.86935186 301.0793238 -248.796875 288.3828125 C-249.62703125 287.74085938 -250.4571875 287.09890625 -251.3125 286.4375 C-252.00988281 285.84195312 -252.70726562 285.24640625 -253.42578125 284.6328125 C-258.15591058 282.67419332 -262.74561537 283.6352074 -267.75 284.1875 C-287.63438467 286.21625344 -307.52438975 286.64430501 -327.5 286.625 C-328.56701141 286.62472809 -329.63402283 286.62445618 -330.73336792 286.62417603 C-388.2350537 286.55698169 -388.2350537 286.55698169 -400.3125 278.4375 C-400.42810567 273.11963906 -398.93982876 270.55802658 -395.4375 266.5625 C-382.66716829 253.27337356 -366.68259518 242.49880002 -351.3125 232.4375 C-352.41464844 231.78265625 -353.51679688 231.1278125 -354.65234375 230.453125 C-364.78712825 224.37811516 -374.54786892 217.95225415 -384.11669922 211.02294922 C-386.43552661 209.34867024 -388.76560773 207.69096243 -391.09765625 206.03515625 C-392.69038231 204.89882726 -394.28283713 203.76211797 -395.875 202.625 C-396.60074219 202.11018066 -397.32648438 201.59536133 -398.07421875 201.06494141 C-410.46809325 192.15541493 -410.46809325 192.15541493 -413.97930908 186.98129272 C-416.82718542 183.87635731 -419.54385122 182.98978964 -423.48754883 181.93481445 C-424.19153966 181.73105603 -424.89553049 181.52729761 -425.62085438 181.31736469 C-427.10575584 180.88954387 -428.59290219 180.46944679 -430.08206558 180.05670547 C-432.2163774 179.46418522 -434.34305547 178.85030721 -436.46859741 178.22714233 C-440.04342408 177.18151213 -443.62354511 176.15563407 -447.206007 175.1364994 C-449.60262151 174.45460472 -451.9984845 173.77012179 -454.3941803 173.08500671 C-457.82596485 172.10363911 -461.25794345 171.12295494 -464.69006348 170.14276123 C-490.85400123 162.66727497 -517.002471 155.14349642 -543.0625 147.3125 C-544.6766127 146.83095963 -544.6766127 146.83095963 -546.32333374 146.33969116 C-578.18185371 136.82169697 -578.18185371 136.82169697 -584.3125 129.4375 C-585.5625 126.875 -585.5625 126.875 -585.3125 124.4375 C-582.93795775 121.1725044 -581.29122602 119.67978523 -577.34594727 118.703125 C-572.08765863 118.10874177 -566.96513611 119.11056245 -561.77734375 119.9375 C-560.6053392 120.11837158 -559.43333466 120.29924316 -558.22581482 120.4855957 C-542.2888519 122.99958534 -526.42879173 125.96444079 -510.57150269 128.93305206 C-507.83698824 129.44461105 -505.10212442 129.95426691 -502.3671875 130.46356201 C-452.5964264 139.74003981 -402.97350032 149.77888866 -353.35813332 159.84833336 C-351.24954209 160.27584679 -349.14069995 160.70209522 -347.03173828 161.1277771 C-344.58456005 161.62183394 -342.13781014 162.11802091 -339.69165039 162.61709595 C-320.91789723 166.39833269 -302.48716127 167.71273818 -283.375 167.8125 C-282.51885101 167.8205365 -281.66270203 167.828573 -280.78060913 167.83685303 C-260.5667655 167.98102438 -241.57069754 166.36835824 -224.61425781 154.63232422 C-219.18931109 150.91523109 -213.58208749 147.65240704 -207.8125 144.5 C-207.01481201 144.05914062 -206.21712402 143.61828125 -205.39526367 143.1640625 C-202.39129783 141.54063899 -199.35746143 139.98199502 -196.3125 138.4375 C-195.53267761 138.03796112 -194.75285522 137.63842224 -193.94940186 137.22677612 C-180.31855818 130.29403016 -166.66521042 124.84701953 -152.06011963 120.340271 C-146.70444346 118.68471269 -141.36815382 116.96884504 -136.03125 115.25390625 C-134.48439011 114.7580603 -134.48439011 114.7580603 -132.90628052 114.25219727 C-124.97344394 111.69239529 -117.16895148 108.93073345 -109.4375 105.8125 C-108.52693848 105.44761475 -107.61637695 105.08272949 -106.67822266 104.70678711 C-104.19241435 103.6732192 -101.75188096 102.57600742 -99.3125 101.4375 C-98.33635742 101.00083008 -97.36021484 100.56416016 -96.35449219 100.11425781 C-90.16755241 97.2679237 -90.16755241 97.2679237 -86.2734375 91.984375 C-85.69577204 89.86895275 -85.69577204 89.86895275 -85.3125 87.4375 C-85.11688477 86.36306641 -84.92126953 85.28863281 -84.71972656 84.18164062 C-83.85518324 79.05447534 -83.11089965 73.91350881 -82.3828125 68.765625 C-79.09740819 47.324039 -67.31292804 30.69731793 -50.3125 17.4375 C-34.7912817 6.28596172 -19.37848843 -0.1744064 0 0 Z M-135.3125 348.4375 C-135.9725 350.7475 -136.6325 353.0575 -137.3125 355.4375 C-137.9725 355.4375 -138.6325 355.4375 -139.3125 355.4375 C-139.6425 356.0975 -139.9725 356.7575 -140.3125 357.4375 C-141.42625 356.2309375 -141.42625 356.2309375 -142.5625 355 C-145.06554829 352.66761409 -146.0305955 351.80215606 -149.3125 351.4375 C-149.3125 350.7775 -149.3125 350.1175 -149.3125 349.4375 C-149.9725 349.4375 -150.6325 349.4375 -151.3125 349.4375 C-151.3125 350.4275 -151.3125 351.4175 -151.3125 352.4375 C-152.3025 352.7675 -153.2925 353.0975 -154.3125 353.4375 C-145.38344396 362.66419124 -135.46031406 370.6146174 -125.3125 378.4375 C-124.00505373 374.51516119 -124.94532562 373.0696993 -126.40234375 369.23828125 C-127.08393555 367.42553711 -127.08393555 367.42553711 -127.77929688 365.57617188 C-128.26933188 364.30070463 -128.75956887 363.02531498 -129.25 361.75 C-129.7371771 360.46321173 -130.22351559 359.17610562 -130.70898438 357.88867188 C-131.90192698 354.73505134 -133.10339991 351.5849535 -134.3125 348.4375 C-134.6425 348.4375 -134.9725 348.4375 -135.3125 348.4375 Z " fill="#030303" transform="translate(677.3125,0.5625)"/>
<path d="M0 0 C1.45188721 0.00845947 1.45188721 0.00845947 2.93310547 0.01708984 C17.26781956 0.25931941 30.64294735 3.57624198 41.25 13.75 C44.60741008 17.36379412 47.22779732 20.80850313 49.25 25.3125 C48.92 25.9725 48.59 26.6325 48.25 27.3125 C47.75371094 26.76980469 47.25742187 26.22710938 46.74609375 25.66796875 C42.49474008 21.1907367 39.12569874 18.27106625 33.25 16.3125 C33.9925 17.488125 33.9925 17.488125 34.75 18.6875 C36.25 21.3125 36.25 21.3125 36.25 23.3125 C35.59 23.3125 34.93 23.3125 34.25 23.3125 C34.25 22.6525 34.25 21.9925 34.25 21.3125 C33.7034375 21.05597656 33.156875 20.79945312 32.59375 20.53515625 C28.85962085 18.58718554 25.41751749 16.19103834 21.90625 13.87109375 C19.58842428 12.51107542 17.86937226 11.76347683 15.25 11.3125 C16.18601246 12.73014994 17.1238792 14.14657568 18.0625 15.5625 C18.84560547 16.74585938 18.84560547 16.74585938 19.64453125 17.953125 C21.12134122 20.12342481 22.65689873 22.22663768 24.25 24.3125 C20.71895311 23.66416751 17.36591437 22.78253094 13.94921875 21.68359375 C12.97275391 21.37099609 11.99628906 21.05839844 10.99023438 20.73632812 C9.98283203 20.41083984 8.97542969 20.08535156 7.9375 19.75 C6.91076172 19.42064453 5.88402344 19.09128906 4.82617188 18.75195312 C2.29999121 17.94122538 -0.22535598 17.12799782 -2.75 16.3125 C0.50279729 20.51921416 3.27116691 23.25101628 7.9375 25.9375 C11.69591149 28.10405385 13.48556814 29.37540514 15.25 33.3125 C14.660979 33.29678955 14.07195801 33.2810791 13.46508789 33.26489258 C10.74765973 33.201808 8.03038639 33.16328009 5.3125 33.125 C4.38630859 33.09986328 3.46011719 33.07472656 2.50585938 33.04882812 C-7.91046849 32.93918257 -16.37837913 36.10262991 -24.75 42.3125 C-27.29648864 44.83625213 -29.53734084 47.49784325 -31.75 50.3125 C-28.8517494 49.04713 -25.9568632 47.77423391 -23.0625 46.5 C-22.24587891 46.14357422 -21.42925781 45.78714844 -20.58789062 45.41992188 C-17.24969744 43.94679209 -14.05050009 42.49280006 -10.91796875 40.61328125 C-5.19510337 37.17956202 1.79440735 37.84243257 8.25 38.3125 C10.90074781 39.05264387 12.8330617 39.96351118 15.25 41.3125 C15.95125 40.69375 16.6525 40.075 17.375 39.4375 C22.67227995 35.52211916 27.83264885 34.73893161 34.30859375 34.87109375 C42.56123833 36.10953842 50.26682886 41.7136249 55.25 48.3125 C55.25 48.9725 55.25 49.6325 55.25 50.3125 C51.77789599 53.35059101 49.97852082 54.32406382 45.3125 54.25 C40.98742017 53.42972624 35.78562813 52.25544412 32.96875 48.69140625 C30.25422855 46.51361972 27.92369923 47.2589288 24.5625 47.625 C23.38300781 47.74488281 22.20351563 47.86476562 20.98828125 47.98828125 C20.08464844 48.09527344 19.18101562 48.20226563 18.25 48.3125 C18.29640625 48.91835938 18.3428125 49.52421875 18.390625 50.1484375 C18.68262683 56.92705148 17.62691043 62.37304661 14.25 68.3125 C8.88127593 73.55339731 4.75852139 73.6582245 -2.53515625 73.59375 C-6.94519263 73.2079388 -8.63851653 72.42398347 -11.75 69.3125 C-13.125 66.5625 -13.125 66.5625 -13.75 64.3125 C-14.41 64.3125 -15.07 64.3125 -15.75 64.3125 C-15.935625 65.4675 -16.12125 66.6225 -16.3125 67.8125 C-17.38632076 72.6562814 -19.17106111 77.08349584 -21.125 81.625 C-21.41705322 82.31851563 -21.70910645 83.01203125 -22.01000977 83.7265625 C-24.42200644 89.1881873 -27.09974237 92.89096101 -32.75 95.3125 C-32.34280988 100.95699749 -31.08236003 103.81523316 -27.375 108.0625 C-26.18777344 109.44695312 -26.18777344 109.44695312 -24.9765625 110.859375 C-22.8749884 113.23924742 -22.8749884 113.23924742 -20.94921875 115.0078125 C-20.55347656 115.43835938 -20.15773438 115.86890625 -19.75 116.3125 C-19.9375 118.4375 -19.9375 118.4375 -20.75 120.3125 C-28.58259517 124.22879758 -42.37994165 124.72984619 -50.69335938 122.53564453 C-55.70107293 120.58471533 -60.26222045 118.00330817 -64.87646484 115.27099609 C-67.43342658 113.9628606 -69.90650868 113.54983077 -72.75 113.3125 C-67.48062305 118.20119952 -62.23094992 123.01205387 -56.5625 127.4375 C-54.95401278 128.72378237 -53.34959182 130.01517218 -51.75 131.3125 C-51.06164062 131.86550781 -50.37328125 132.41851562 -49.6640625 132.98828125 C-41.08707236 140.63298985 -33.27338171 154.6618909 -32.484375 166.1953125 C-32.47557458 167.60935721 -32.48132822 169.02355119 -32.5 170.4375 C-32.50749268 171.18741211 -32.51498535 171.93732422 -32.52270508 172.70996094 C-32.8546614 190.04586988 -37.80602777 205.61387977 -50.44140625 217.9375 C-61.26953612 227.39589306 -73.20026951 233.58258153 -86.75 238.3125 C-87.38565384 238.53761765 -88.02130768 238.76273529 -88.67622375 238.99467468 C-100.22573766 243.06804879 -111.78704874 246.16237851 -123.75 248.75 C-125.49931667 249.13596511 -127.24850049 249.52253279 -128.99755859 249.90966797 C-141.49779661 252.66307731 -154.03011904 255.25632894 -166.57763672 257.78442383 C-174.47907409 259.38394803 -182.32347674 261.13405367 -190.15917969 263.03588867 C-201.75954809 265.85061669 -213.33929547 268.26198125 -225.125 270.125 C-226.93895264 270.41721436 -226.93895264 270.41721436 -228.78955078 270.71533203 C-248.84803455 273.7431787 -268.90172955 274.6452261 -289.16796875 274.57324219 C-292.74756799 274.56250729 -296.32666563 274.57322313 -299.90625 274.5859375 C-349.0332115 274.61625694 -349.0332115 274.61625694 -365.75 267.3125 C-365.75 266.3225 -365.75 265.3325 -365.75 264.3125 C-359.1437855 261.1305336 -352.51711338 259.77833999 -345.3046875 258.8515625 C-344.32844925 258.72546097 -343.352211 258.59935944 -342.34638977 258.46943665 C-332.58153308 257.28799271 -322.79056514 256.58961173 -312.98046875 255.91796875 C-312.13666342 255.85989485 -311.29285809 255.80182095 -310.42348289 255.74198723 C-302.50292709 255.19872832 -294.58167603 254.66668525 -286.65844727 254.16381836 C-268.25952369 252.9891532 -250.05627907 251.57488116 -231.89453125 248.3046875 C-231.19981405 248.17965033 -230.50509686 248.05461315 -229.78932762 247.92578697 C-214.90125367 245.2021613 -199.98497242 241.91747194 -186.75 234.3125 C-187.3903418 234.49425781 -188.03068359 234.67601562 -188.69042969 234.86328125 C-208.37783049 240.35351101 -228.41946393 244.23469065 -248.75 246.3125 C-249.58104248 246.40748779 -250.41208496 246.50247559 -251.26831055 246.6003418 C-260.97887208 247.58372299 -270.72276138 247.49857462 -280.47241211 247.49780273 C-283.51756227 247.49996805 -286.56233649 247.51811613 -289.60742188 247.53710938 C-299.79623807 247.56769838 -309.91601769 247.31121452 -320.07421875 246.48828125 C-320.98549026 246.41892868 -321.89676178 246.34957611 -322.83564758 246.27812195 C-329.37868689 245.68330702 -335.46783379 244.21458053 -341.75 242.3125 C-342.08 240.9925 -342.41 239.6725 -342.75 238.3125 C-332.65753071 228.87115776 -316.93401938 229.27819301 -303.9375 228.875 C-265.06635672 227.60282181 -223.81380737 219.20353742 -189.125 201.0625 C-188.51519287 200.74547119 -187.90538574 200.42844238 -187.27709961 200.10180664 C-183.96382204 198.27991055 -181.75835753 196.53156951 -179.75 193.3125 C-181.77150045 194.08158213 -183.79216752 194.85285489 -185.8125 195.625 C-186.93785156 196.05425781 -188.06320312 196.48351562 -189.22265625 196.92578125 C-191.45364786 197.8028599 -193.66424623 198.7355267 -195.83984375 199.7421875 C-201.43343505 202.15293784 -207.37733959 203.56376954 -213.25 205.125 C-214.22675186 205.38487198 -214.22675186 205.38487198 -215.22323608 205.6499939 C-241.47700592 212.59049936 -268.82330821 218.42941651 -296.0625 218.625 C-296.79186768 218.63063965 -297.52123535 218.6362793 -298.27270508 218.64208984 C-301.91350096 218.59037275 -304.65559335 218.309148 -307.75 216.3125 C-307.28148179 212.09583615 -304.79772711 209.95979581 -301.75 207.3125 C-301.18925781 206.82136719 -300.62851562 206.33023438 -300.05078125 205.82421875 C-293.61748073 200.52843699 -286.47517315 196.38829938 -279.35546875 192.1015625 C-275.15316581 189.56912435 -271.00071388 186.96763496 -266.875 184.3125 C-265.78445313 183.61125 -264.69390625 182.91 -263.5703125 182.1875 C-261.22876894 180.63079514 -258.98888952 179.01009977 -256.75 177.3125 C-283.01288697 188.86292884 -283.01288697 188.86292884 -307.75 203.3125 C-314.22182017 203.46829477 -320.69021944 201.78625226 -326.9140625 200.16796875 C-327.74980804 199.95690994 -328.58555359 199.74585114 -329.44662476 199.52839661 C-332.09117329 198.85896493 -334.733089 198.17975735 -337.375 197.5 C-339.12092463 197.05597512 -340.86701753 196.61261132 -342.61328125 196.16992188 C-346.04656092 195.29869269 -349.47895174 194.4240891 -352.91064453 193.54663086 C-361.30049313 191.40362902 -369.70201788 189.30676437 -378.11083984 187.23950195 C-381.86356303 186.31648499 -385.61320193 185.38168689 -389.36132812 184.44018555 C-390.88013959 184.0609741 -392.40002109 183.68602474 -393.92089844 183.31518555 C-396.17675529 182.76420814 -398.42833959 182.19799202 -400.6796875 181.62890625 C-401.67535233 181.3911422 -401.67535233 181.3911422 -402.69113159 181.14857483 C-406.49598939 180.16909449 -409.73343988 178.85075291 -413.19335938 176.98364258 C-420.32446875 173.29914988 -428.03154051 171.39864119 -435.7265625 169.2578125 C-437.38138887 168.78938199 -439.03595548 168.32003299 -440.6902771 167.849823 C-445.03507953 166.6173916 -449.38310272 165.39674327 -453.73199463 164.17883301 C-458.07579629 162.96044595 -462.41674999 161.73201029 -466.7578125 160.50390625 C-471.80722157 159.07597367 -476.85676593 157.64854139 -481.90745544 156.22514343 C-491.11829825 153.62868015 -500.32341329 151.01521677 -509.51171875 148.33984375 C-510.41149445 148.07853668 -511.31127014 147.81722961 -512.23831177 147.54800415 C-519.46716916 145.43190175 -526.63637288 143.13964107 -533.8033905 140.82406616 C-540.1391791 138.77854472 -546.52049207 136.95887349 -552.9375 135.1875 C-562.40041753 132.54723133 -572.0030982 129.59377173 -579.75 123.3125 C-579.75 122.3225 -579.75 121.3325 -579.75 120.3125 C-571.75880935 116.31690467 -559.60824469 120.29095464 -551.1875 121.8125 C-549.66601716 122.08046795 -548.14444903 122.347952 -546.62280273 122.61499023 C-532.69597762 125.07694005 -518.80540798 127.73829819 -504.91821289 130.41333008 C-493.85460796 132.54335199 -482.78523889 134.60942661 -471.67797852 136.50219727 C-464.80307651 137.69537153 -457.97923796 139.08561433 -451.15234375 140.5234375 C-441.05838886 142.64833255 -430.9471287 144.67126856 -420.82421875 146.65234375 C-419.3175644 146.94757829 -417.81091158 147.24282066 -416.30426025 147.53807068 C-410.1376986 148.74580325 -403.97074173 149.95149416 -397.80297852 151.15307617 C-393.2260216 152.0450911 -388.64983979 152.94100234 -384.07421875 153.83984375 C-382.95923382 154.05859193 -382.95923382 154.05859193 -381.82172394 154.28175926 C-371.86283385 156.24025807 -361.95442347 158.35124149 -352.05859375 160.609375 C-342.43291852 162.79739126 -332.93848623 164.53995663 -323.125 165.625 C-321.76304007 165.78430029 -320.40114324 165.94414096 -319.03930664 166.10449219 C-309.61922459 167.19343346 -300.23216913 168.07336635 -290.75 168.3125 C-289.595 168.35246094 -288.44 168.39242187 -287.25 168.43359375 C-260.28396053 168.93625019 -237.75062018 165.35886842 -215.046875 150.47265625 C-205.6487441 144.31487617 -195.87683952 139.1523166 -185.75 134.3125 C-185.03247559 133.96896484 -184.31495117 133.62542969 -183.57568359 133.27148438 C-181.37037933 132.22663355 -179.15613039 131.20371547 -176.9375 130.1875 C-176.30070312 129.88730957 -175.66390625 129.58711914 -175.0078125 129.27783203 C-168.16275085 126.20315959 -160.98956272 124.12732001 -153.83618164 121.90527344 C-145.80430793 119.40505097 -137.83656243 116.71456521 -129.875 114 C-129.05459229 113.72036407 -128.23418457 113.44072815 -127.38891602 113.15261841 C-102.24065519 106.53980045 -102.24065519 106.53980045 -82.578125 92.234375 C-82.38734375 91.51765625 -82.1965625 90.8009375 -82 90.0625 C-81.79890625 89.35609375 -81.5978125 88.6496875 -81.390625 87.921875 C-81.17921875 87.06078125 -80.9678125 86.1996875 -80.75 85.3125 C-80.42128906 84.11625 -80.09257813 82.92 -79.75390625 81.6875 C-78.73815566 77.61879653 -78.23487935 73.55832235 -77.76318359 69.39599609 C-75.20183102 47.11184473 -64.39781217 30.74104623 -46.92724609 16.86474609 C-32.83016196 6.33372277 -17.74257145 -0.10843199 0 0 Z " fill="#B9BABD" transform="translate(676.75,4.6875)"/>
<path d="M0 0 C-0.30061719 7.28737533 -0.6002556 14.05386594 -3.2734375 20.88671875 C-4.04903358 23.14261919 -4.28788197 25.19686181 -4.5625 27.5625 C-6.11553601 36.21318304 -12.44356146 44.46728421 -17.79296875 51.28515625 C-19.63266494 53.89883466 -19.39567908 55.90051387 -19 59 C-18.12870693 61.03882095 -18.12870693 61.03882095 -16 62 C-13.28121737 62.24131207 -10.7407889 62.1347929 -8 62 C-7.86464844 61.24976563 -7.72929688 60.49953125 -7.58984375 59.7265625 C-6.13215165 52.79597852 -4.03210955 48.109817 0.23046875 42.4921875 C3.69026528 37.61944978 6.06677393 32.0566535 7.80859375 26.3515625 C10.51633757 17.51576687 15.80235517 10.73870906 22 4 C22.66 4 23.32 4 24 4 C25.18429987 6.36859974 25.10095343 7.75753404 25.0625 10.39453125 C25.05476563 11.26787109 25.04703125 12.14121094 25.0390625 13.04101562 C25.01318597 14.87695546 24.98714642 16.71289301 24.9609375 18.54882812 C24.92287125 22.86617542 24.99736984 26.77839933 26 31 C27.2004623 43.81149111 22.29054952 52.12240283 15.0234375 62.1171875 C12.23059342 66.09618157 10.71683068 68.66173319 10.75 73.5625 C10.74484375 74.32691406 10.7396875 75.09132813 10.734375 75.87890625 C10.8770439 78.29982762 10.8770439 78.29982762 13 81 C15.91382729 81.75060849 15.91382729 81.75060849 19 81 C22.62915666 76.62207682 23.76442067 72.51166485 24.5 67 C25.42356288 60.07978233 27.68701654 55.83610682 32.08984375 50.4375 C38.06800038 42.80893203 39.30948575 34.52766575 40.3125 25.1875 C41.5404166 14.15652284 41.5404166 14.15652284 46.0625 10.1875 C48.26383684 8.72404143 49.36099986 8 52 8 C52.12473576 13.76164081 52.21486943 19.5224748 52.2746582 25.28515625 C52.29961363 27.24037387 52.3335907 29.19550004 52.37719727 31.15039062 C52.66885565 44.57353901 51.9747962 54.02248806 44.75 65.625 C42.45738531 70.04647119 42.19796125 74.08066283 42 79 C44.72321308 79.75644808 46.45808824 80.17031512 49.1875 79.3125 C51.37916038 77.72543558 51.94003766 76.47324545 53 74 C53.47977295 73.25314941 53.9595459 72.50629883 54.45385742 71.73681641 C59.45111963 62.89119674 59.26210443 52.49054748 59.1875 42.625 C59.31259743 31.19078006 61.22524164 23.21305408 68 14 C68.33 14 68.66 14 69 14 C72.95700904 40.99130557 67.95758764 63.94005422 51.92993164 85.97924805 C48.11046499 91.04737249 43.89756826 95.71753915 39.53125 100.31640625 C37.38066547 102.59642411 35.33386276 104.91902274 33.3125 107.3125 C29.85392852 111.28255036 26.01532334 114.60695352 22 118 C21.01386719 118.87398438 20.02773438 119.74796875 19.01171875 120.6484375 C2.03315508 135.64207006 -16.54481702 147.79966515 -36.60546875 158.23046875 C-38.55923676 159.2489462 -40.50503097 160.28382578 -42.42578125 161.36328125 C-56.23542752 168.8935857 -72.4419685 173.18399588 -88 175 C-89.27121704 175.15879639 -89.27121704 175.15879639 -90.56811523 175.32080078 C-96.49144187 175.94876513 -102.21499777 175.95519674 -108.15234375 175.5703125 C-124.30665609 173.82652251 -124.30665609 173.82652251 -138.82421875 179.01953125 C-142.20815536 182.6088781 -144.67666405 186.6717153 -147 191 C-151.12540914 197.84301127 -151.12540914 197.84301127 -155 200 C-161.61075108 201.04268739 -168.36012658 200.55490371 -175 200 C-176.34432514 195.96702459 -175.21571284 194.62831788 -173.47265625 190.80078125 C-173.07100502 189.90820869 -173.07100502 189.90820869 -172.66123962 188.99760437 C-171.80405036 187.09831192 -170.93350984 185.20548833 -170.0625 183.3125 C-169.47892787 182.02579383 -168.89623454 180.7386887 -168.31445312 179.45117188 C-166.88646978 176.29608846 -165.44644954 173.14666771 -164 170 C-173.10069085 166.09226295 -173.10069085 166.09226295 -182.5 163 C-188.887332 161.09513886 -194.90071332 158.67512574 -201 156 C-202.37343955 155.41735934 -203.74715525 154.83536935 -205.12109375 154.25390625 C-219.45145299 148.11930228 -234.21896758 141.40313389 -246 131 C-242.49014423 128.92916331 -239.18241433 128.42305639 -235.171875 127.8515625 C-233.79947675 127.64845386 -232.427081 127.44532826 -231.0546875 127.2421875 C-228.92317305 126.93519519 -226.79130213 126.63086448 -224.65917969 126.328125 C-216.54543084 125.16628814 -208.63688356 123.77474051 -200.6955719 121.6973877 C-194.28396614 120.03212225 -187.82804309 118.60300048 -181.35546875 117.1953125 C-180.21185883 116.94653351 -179.0682489 116.69775452 -177.88998413 116.44143677 C-174.32288757 115.66744034 -170.75523491 114.89604805 -167.1875 114.125 C-163.66539671 113.36179239 -160.14345476 112.59784652 -156.62161255 111.83343506 C-154.28325034 111.32593109 -151.94477017 110.81897037 -149.60617065 110.31256104 C-143.55534145 108.99992194 -137.50874184 107.67059757 -131.46728516 106.31542969 C-130.24447342 106.04141327 -129.02166168 105.76739685 -127.76179504 105.4850769 C-125.43449542 104.96238442 -123.10771027 104.43739391 -120.78153992 103.90969849 C-112.09162785 101.95781272 -112.09162785 101.95781272 -108.00830078 101.41772461 C-105.38358301 101.05326331 -103.17350298 100.52759642 -100.69140625 99.63671875 C-97.50474675 98.52236543 -94.31377379 97.45900361 -91.08984375 96.45703125 C-69.50057661 89.6243795 -46.96903282 80.28599855 -35.3125 59.5703125 C-29.54578077 48.277154 -27.75961686 37.47120222 -27.375 24.875 C-27.31699219 23.2971875 -27.31699219 23.2971875 -27.2578125 21.6875 C-27.16463659 19.12516244 -27.07882618 16.56281221 -27 14 C-26.0821875 13.5875 -25.164375 13.175 -24.21875 12.75 C-21.0933263 11.05074051 -19.63632995 9.76466229 -17.5 7 C-12.27024702 0.77464853 -7.88710166 -0.40795353 0 0 Z " fill="#FBDB03" transform="translate(674,152)"/>
<path d="M0 0 C3.32421875 1.57421875 3.32421875 1.57421875 6.6875 3.6875 C7.80511719 4.37199219 8.92273438 5.05648438 10.07421875 5.76171875 C15.10529747 9.61059473 16.75922416 14.57019718 18.875 20.375 C19.134021 21.07399414 19.39304199 21.77298828 19.65991211 22.49316406 C21.39376969 27.21520436 22.99996889 31.9687534 24.5625 36.75 C26.34410653 42.17965798 28.37050164 47.40722013 30.62109375 52.65625 C33.00350552 58.43342983 35.09795933 64.31730112 37.23828125 70.1875 C38.58939197 73.89289714 39.97271482 77.58464636 41.37353516 81.27148438 C43.57170796 87.05900628 45.64713612 92.86258637 47.5625 98.75 C49.34410653 104.17965798 51.37050164 109.40722013 53.62109375 114.65625 C56.33488704 121.23700654 58.69682642 127.95475241 61.13574219 134.64111328 C62.42629053 138.16350822 63.74249194 141.67606037 65.0625 145.1875 C65.30170166 145.8261499 65.54090332 146.4647998 65.78735352 147.12280273 C67.07961001 150.5692556 68.38606484 154.0097556 69.70703125 157.4453125 C69.98603271 158.17596924 70.26503418 158.90662598 70.55249023 159.65942383 C71.08825168 161.0618816 71.62793516 162.46284937 72.17211914 163.86206055 C73.26519461 166.73271555 74 168.89881265 74 172 C67.6481939 175.43672601 62.23807882 177.01283697 55 176 C47.88691763 173.45002707 43.88494601 168.25617985 40 162 C38.95888338 159.65149653 37.9817899 157.27381188 37.0625 154.875 C36.54244991 153.53485204 36.02160754 152.19501129 35.5 150.85546875 C35.24605469 150.19853027 34.99210938 149.5415918 34.73046875 148.86474609 C33.72030103 146.28598238 32.64356217 143.73724202 31.5625 141.1875 C29.20617834 135.56684738 26.99722134 129.89478324 24.80371094 124.20922852 C22.86481351 119.19308962 20.87659326 114.19933909 18.85961914 109.21411133 C15.95626646 102.0352689 13.20928578 94.88069895 10.8515625 87.5 C10.06360526 85.18673104 9.15621566 83.02584093 8.125 80.8125 C5.85333936 75.8964844 4.12617424 70.81741318 2.34985352 65.70776367 C0.64922763 60.8221077 -1.10875038 55.96412473 -2.9375 51.125 C-3.43363576 49.80991168 -3.92972873 48.49480722 -4.42578125 47.1796875 C-4.67924316 46.50776367 -4.93270508 45.83583984 -5.19384766 45.14355469 C-7.56898607 38.8280746 -9.90741856 32.49947782 -12.21142578 26.15771484 C-12.9302818 24.19076453 -13.66544884 22.22979486 -14.40234375 20.26953125 C-14.97662109 18.68205078 -14.97662109 18.68205078 -15.5625 17.0625 C-15.89378906 16.16660156 -16.22507812 15.27070313 -16.56640625 14.34765625 C-17.10937697 11.40778777 -16.67072705 10.44375001 -15 8 C-13.34375 6.11328125 -13.34375 6.11328125 -11.5 4.3125 C-10.8915625 3.71050781 -10.283125 3.10851562 -9.65625 2.48828125 C-6.51047504 -0.33846464 -4.15588782 -0.36974091 0 0 Z " fill="#E3E3E4" transform="translate(607,454)"/>
<path d="M0 0 C12.313125 -0.0928125 12.313125 -0.0928125 24.875 -0.1875 C28.73227783 -0.22846802 28.73227783 -0.22846802 32.66748047 -0.27026367 C34.73404472 -0.2790357 36.80061421 -0.28667794 38.8671875 -0.29296875 C39.91720947 -0.30831665 40.96723145 -0.32366455 42.04907227 -0.33947754 C51.4572953 -0.34277558 59.90927813 1.12904371 67.3046875 7.296875 C72.44873671 12.4646295 73.27049897 17.27788955 73.5 24.5 C73.32438927 30.79062727 72.63337079 34.85272471 69 40 C66.859375 41.19921875 66.859375 41.19921875 65 42 C65 42.66 65 43.32 65 44 C65.556875 44.226875 66.11375 44.45375 66.6875 44.6875 C71.41742667 47.37205297 74.08118944 50.45955945 75.875 55.5625 C78.06306865 63.96468362 77.05846622 72.37071874 73.15625 80.10546875 C69.03225102 86.86269681 61.76988887 91.49020119 54.22381592 93.58058167 C49.51485572 94.46870565 44.71559907 94.24025357 39.94140625 94.1953125 C38.92622925 94.19329834 37.91105225 94.19128418 36.8651123 94.18920898 C33.09752846 94.17879857 29.33000937 94.15087622 25.5625 94.125 C17.126875 94.08375 8.69125 94.0425 0 94 C0 62.98 0 31.96 0 0 Z M19 18 C19 23.61 19 29.22 19 35 C23.56285508 35.08089106 28.12427754 35.14045647 32.6875 35.1875 C33.98107422 35.21263672 35.27464844 35.23777344 36.60742188 35.26367188 C37.85458984 35.27333984 39.10175781 35.28300781 40.38671875 35.29296875 C41.53358154 35.3086792 42.68044434 35.32438965 43.86206055 35.34057617 C47.63731335 34.93082921 50.29642254 33.70357746 53 31 C53.36860081 27.96659661 53.40472839 25.02999365 53 22 C50.75938325 19.52759532 49.17070471 19.05690157 46 18 C43.93501108 17.91684248 41.8674211 17.89264122 39.80078125 17.90234375 C37.98803711 17.90717773 37.98803711 17.90717773 36.13867188 17.91210938 C34.87603516 17.92048828 33.61339844 17.92886719 32.3125 17.9375 C31.03826172 17.94201172 29.76402344 17.94652344 28.45117188 17.95117188 C25.3007613 17.96297117 22.15037481 17.98090682 19 18 Z M19 52 C19 59.59 19 67.18 19 75 C23.16372198 75.09218573 27.32386084 75.17169966 31.48779297 75.21972656 C32.90197795 75.23975843 34.31608097 75.26699248 35.72998047 75.30175781 C37.77071419 75.35065489 39.8103469 75.37305123 41.8515625 75.390625 C43.07697754 75.41157227 44.30239258 75.43251953 45.56494141 75.45410156 C49.66200729 74.91248518 51.80284162 73.56751453 55 71 C56.85511461 67.28977078 56.44642105 63.04967665 56 59 C54.15264803 55.45308422 52.88492573 54.35151216 49.1875 52.8828125 C43.44875703 51.35248104 37.45050386 51.79148221 31.5625 51.875 C29.74975586 51.88853516 29.74975586 51.88853516 27.90039062 51.90234375 C24.93350787 51.92579737 21.96672778 51.96166468 19 52 Z " fill="#000000" transform="translate(125,407)"/>
<path d="M0 0 C20 0 20 0 24.80566406 3.75683594 C26.48223877 6.24822998 26.48223877 6.24822998 28.015625 8.984375 C28.61203796 9.91034485 29.20845093 10.8363147 29.82293701 11.79034424 C31.70147916 14.73956321 33.47449003 17.73787906 35.25 20.75 C36.48170752 22.72416875 37.71994976 24.69427614 38.96484375 26.66015625 C41.26714934 30.31350811 43.52709809 33.98654339 45.74707031 37.69042969 C49.34224702 43.55863016 53.18258757 49.27388136 57 55 C57 36.85 57 18.7 57 0 C63.6 0 70.2 0 77 0 C77 31.02 77 62.04 77 94 C59 94 59 94 54.85205078 90.88916016 C53.45681763 88.82046509 53.45681763 88.82046509 52.1953125 86.5390625 C51.69434052 85.76049896 51.19336853 84.98193542 50.67721558 84.17977905 C49.09697045 81.69477025 47.61194346 79.16669239 46.125 76.625 C45.11012432 74.99107611 44.08931667 73.36082126 43.0625 71.734375 C41.02393338 68.48959628 39.02041914 65.22687176 37.04003906 61.94628906 C33.44826048 56.03886279 29.60604157 50.30639193 25.73757935 44.57778931 C25.024189 43.52100479 25.024189 43.52100479 24.29638672 42.44287109 C23.87606171 41.82415131 23.45573669 41.20543152 23.02267456 40.56796265 C22 39 22 39 21 37 C20.67 55.81 20.34 74.62 20 94 C13.4 94 6.8 94 0 94 C0 62.98 0 31.96 0 0 Z " fill="#000000" transform="translate(922,522)"/>
<path d="M0 0 C19 0 19 0 23.77734375 4.640625 C24.80605249 6.37356243 25.82974538 8.1104984 26.79217529 9.88110352 C28.7184182 13.26032676 30.94960738 16.4246925 33.14344788 19.63421631 C36.33312846 24.30639058 39.43874298 29.03344972 42.5625 33.75 C46.996875 40.4325 51.43125 47.115 56 54 C56.33 36.18 56.66 18.36 57 0 C63.6 0 70.2 0 77 0 C77 31.02 77 62.04 77 94 C71.06 94 65.12 94 59 94 C55.15774157 90.04150518 53.40930277 87.68660882 51 83 C49.75902259 81.12325731 48.49588851 79.26097585 47.2109375 77.4140625 C45.92988951 75.48596887 44.65130904 73.55623387 43.375 71.625 C41.98576563 69.53119125 40.59644077 67.43744253 39.20703125 65.34375 C38.51174316 64.29445313 37.81645508 63.24515625 37.10009766 62.1640625 C35.0352238 59.05306911 32.96262663 55.94738936 30.88671875 52.84375 C30.24234863 51.88001465 29.59797852 50.9162793 28.93408203 49.92333984 C27.7078421 48.08989841 26.48097703 46.25687489 25.25341797 44.42431641 C24.43381592 43.19720947 24.43381592 43.19720947 23.59765625 41.9453125 C23.11820557 41.22875488 22.63875488 40.51219727 22.14477539 39.77392578 C21 38 21 38 20 36 C19.67 55.14 19.34 74.28 19 94 C12.73 94 6.46 94 0 94 C0 62.98 0 31.96 0 0 Z " fill="#000000" transform="translate(179,522)"/>
<path d="M0 0 C8.023125 -0.061875 16.04625 -0.12375 24.3125 -0.1875 C26.82270752 -0.21481201 29.33291504 -0.24212402 31.91918945 -0.27026367 C33.94221518 -0.27903778 35.96524627 -0.28667952 37.98828125 -0.29296875 C39.01159546 -0.30831665 40.03490967 -0.32366455 41.0892334 -0.33947754 C51.21549591 -0.3430988 60.1904547 1.32675478 68.0546875 7.96484375 C75.28146501 15.5253881 76.30240727 23.37897547 76.21875 33.44921875 C75.7809124 40.55626128 73.53175402 46.46118953 69 52 C63.21957672 57 63.21957672 57 59 57 C60.70646953 60.58422378 62.41526053 64.16733493 64.125 67.75 C64.87680542 69.32624146 64.87680542 69.32624146 65.64379883 70.93432617 C68.70229397 77.33197138 71.81125195 83.69213405 75.07421875 89.98828125 C76 92 76 92 76 94 C68.41 94 60.82 94 53 94 C47.72 83.44 42.44 72.88 37 62 C31.06 61.67 25.12 61.34 19 61 C19 71.89 19 82.78 19 94 C12.73 94 6.46 94 0 94 C0 62.98 0 31.96 0 0 Z M19 19 C19 26.59 19 34.18 19 42 C23.0209236 42.09219952 27.03913024 42.17171538 31.06054688 42.21972656 C32.42623368 42.23975319 33.79183569 42.26698332 35.15722656 42.30175781 C37.12787102 42.35066432 39.09915983 42.37091347 41.0703125 42.390625 C42.25383301 42.41157227 43.43735352 42.43251953 44.65673828 42.45410156 C48.69203319 41.90600396 50.82707693 40.49839221 54 38 C56.59036348 34.58542996 56.43108741 31.16717829 56 27 C54.30384861 23.67051764 53.1203854 21.58035939 49.76879883 19.84423828 C46.51165007 18.85109655 43.79075639 18.7736004 40.38671875 18.8046875 C39.13955078 18.81113281 37.89238281 18.81757813 36.60742188 18.82421875 C35.31384766 18.84097656 34.02027344 18.85773438 32.6875 18.875 C31.37458984 18.88402344 30.06167969 18.89304687 28.70898438 18.90234375 C25.47257813 18.92588125 22.23626581 18.96175129 19 19 Z " fill="#000000" transform="translate(250,407)"/>
<path d="M0 0 C52.76606684 0 52.76606684 0 65.70703125 11.51953125 C74.39041471 20.5546467 76.92099709 33.88495179 77.25 46 C76.85085812 59.19268956 73.3895232 71.57022931 64.3125 81.5 C46.62945657 97.38073323 22.23199065 94 0 94 C0 62.98 0 31.96 0 0 Z M20 19 C20 37.48 20 55.96 20 75 C35.76093663 75.23209838 35.76093663 75.23209838 49 68 C56.79331255 58.51248907 57.03462343 48.87065285 56 37 C54.40106986 30.30882495 50.93389969 25.76829978 45.3125 21.8125 C36.96389153 17.11640773 30.34467606 19 20 19 Z " fill="#000000" transform="translate(366,522)"/>
<path d="M0 0 C52.06515957 0 52.06515957 0 65.1796875 12.0859375 C75.49647793 22.93406478 76.39912294 37.06594917 76.21875 51.28125 C76.04206531 56.85565195 75.05174459 61.80819413 73 67 C72.74476563 67.68835938 72.48953125 68.37671875 72.2265625 69.0859375 C67.67724814 79.64535523 59.56525319 85.84175793 49.52734375 90.625 C32.75116054 97.16455314 20.45321879 94 0 94 C0 62.98 0 31.96 0 0 Z M19 19 C19 37.48 19 55.96 19 75 C34.80220324 75.10886889 34.80220324 75.10886889 47.8125 69.375 C54.49263886 62.12227781 56.31181168 53.71069674 56.21875 44.171875 C55.73745397 37.19308251 53.75596559 30.24375693 49 25 C38.85490018 18.67220893 31.57246296 19 19 19 Z " fill="#000000" transform="translate(338,407)"/>
<path d="M0 0 C51.69565217 0 51.69565217 0 64.9296875 11.70703125 C74.57493332 21.53855864 76.25544035 34.90207618 76.2487793 48.03100586 C76.06549068 61.04977203 72.22665215 72.56365121 63 82 C44.05379992 96.76471451 24.33028531 94 0 94 C0 62.98 0 31.96 0 0 Z M19 19 C19 37.48 19 55.96 19 75 C35.70072881 75.2564068 35.70072881 75.2564068 49.37890625 66.96484375 C55.72139845 59.27743754 56.68648393 50.68705098 56 41 C54.85529631 33.76314447 52.8960075 27.64610441 47 23 C38.2599916 17.20780508 29.65081768 19 19 19 Z " fill="#000000" transform="translate(1110,522)"/>
<path d="M0 0 C8.78296103 6.55942659 15.17058757 18.12260989 16.7890625 28.984375 C18.02439471 46.64505037 17.48621059 63.69852692 6.18359375 78.35546875 C0.36000221 84.62612388 -7.43779 89.39719234 -16.09960938 90.19287109 C-29.46970785 90.6728681 -39.85214535 90.0851838 -50.8125 81.5625 C-61.33669845 71.38210477 -64.97604936 56.24918476 -65.375 42.0625 C-64.98878542 27.10088288 -61.5608873 13.97905429 -51.15625 2.97265625 C-37.12980193 -9.85951092 -15.55748725 -9.93737691 0 0 Z M-39.6796875 21.0703125 C-45.52354532 29.61133547 -45.8638234 40.91605779 -44.3125 50.875 C-42.54003272 58.85697185 -39.76879987 64.30328172 -33 69 C-28.8373817 71.30039432 -24.66822352 71.56907868 -20 71 C-14.03778765 69.07996551 -9.86929833 66.46166357 -6.83984375 60.8515625 C-1.3724451 49.05452312 -1.83317779 37.11623021 -5.734375 24.83984375 C-8.17513545 19.36319916 -11.35827095 16.18678236 -16.71875 13.7265625 C-26.05350201 10.75350792 -33.72386281 13.55537139 -39.6796875 21.0703125 Z " fill="#000000" transform="translate(782,411)"/>
<path d="M0 0 C2.97030128 2.09730951 5.64273284 4.26461104 8.0625 7 C6.93300952 10.38847145 5.93966782 11.19694184 3.25 13.4375 C0.39490495 15.85689832 -2.3427662 18.2971523 -4.9375 21 C-9.05240195 19.58550246 -12.45621592 17.49064734 -16.0703125 15.12109375 C-19.6364761 12.97990347 -22.73938221 12.81094441 -26.8125 12.75 C-27.84117187 12.72421875 -28.86984375 12.6984375 -29.9296875 12.671875 C-33.62629068 13.0751408 -36.28978721 14.35228721 -38.9375 17 C-38.65019945 19.33944736 -38.31813221 21.6739143 -37.9375 24 C-30.30295084 27.24802286 -22.64793892 29.58044271 -14.6171875 31.62304688 C-6.332781 33.85861833 0.41723279 37.38697269 6.0625 44 C10.79918249 52.28919436 11.32784634 60.94752096 9 70.1875 C6.52550105 77.40478861 2.01309408 82.2144433 -4.625 85.875 C-17.77690092 91.80233623 -32.3889291 91.04321091 -45.9375 87 C-53.14427258 84.07907323 -59.97619716 79.93227997 -63.9375 73 C-62.81017591 69.61802772 -61.79567627 68.75942186 -59.125 66.5 C-58.09439453 65.61828125 -58.09439453 65.61828125 -57.04296875 64.71875 C-55.04591956 63.08850576 -53.0124438 61.52939678 -50.9375 60 C-46.87984648 61.94880343 -43.10796284 64.3041815 -39.27734375 66.66015625 C-34.91980298 69.15537575 -30.95245226 69.2147571 -26.0625 69.25 C-25.35480469 69.270625 -24.64710938 69.29125 -23.91796875 69.3125 C-19.39401164 69.346198 -16.49952142 68.8416126 -12.9375 66 C-11.20808508 62.68528807 -10.65348112 60.99406609 -11.6875 57.375 C-17.7387754 50.98754263 -28.88672093 49.51292123 -37.16992188 47.46484375 C-45.45857809 45.25045737 -53.1770578 41.42628984 -57.9375 34 C-61.28997309 27.24629058 -61.11782496 17.66475733 -59.28515625 10.421875 C-55.79303243 2.80814582 -49.6668097 -2.16209373 -42.05078125 -5.2734375 C-28.0756218 -10.07820581 -12.25896578 -7.79037503 0 0 Z " fill="#000000" transform="translate(481.9375,413)"/>
<path d="M0 0 C1.6015625 2.02734375 1.6015625 2.02734375 1.68359375 3.9140625 C0.07784523 7.05019951 -2.23959941 9.38129395 -4.7109375 11.83984375 C-5.19755859 12.35482422 -5.68417969 12.86980469 -6.18554688 13.40039062 C-7.63671875 14.859375 -7.63671875 14.859375 -10.3984375 17.02734375 C-13.44127776 16.94670311 -14.32074111 16.09034082 -16.7109375 14.15234375 C-21.83149398 10.10353165 -27.82312927 7.83395233 -34.3984375 8.02734375 C-37.63952794 8.60907793 -40.50319456 9.44315422 -43.3984375 11.02734375 C-45.27102495 13.32811765 -45.27102495 13.32811765 -45.3984375 16.02734375 C-44.48440555 18.67367783 -43.83288057 19.7758213 -41.38696289 21.19189453 C-34.41244395 23.7668239 -27.38095426 25.7785576 -20.16601562 27.5625 C-11.11906885 29.97947028 -3.82294453 34.30153071 1.6015625 42.02734375 C5.20421622 49.09261871 4.68897086 59.24795612 2.94921875 66.89453125 C0.0685935 74.04045998 -5.07997486 79.17900585 -12.0234375 82.40234375 C-18.62941368 85.14489704 -25.03238338 85.23954842 -32.0859375 85.27734375 C-33.50036133 85.30828125 -33.50036133 85.30828125 -34.94335938 85.33984375 C-47.31738251 85.40787962 -57.90372522 81.27872677 -67.0859375 72.90234375 C-69.3984375 70.02734375 -69.3984375 70.02734375 -69.375 68.1796875 C-67.91771856 64.96783921 -65.67482125 63.08427246 -63.0859375 60.71484375 C-62.35600586 60.01391602 -62.35600586 60.01391602 -61.61132812 59.29882812 C-58.01343842 56.02053562 -58.01343842 56.02053562 -55.28125 56.05078125 C-53.14718121 57.1576634 -51.43352467 58.42581492 -49.5859375 59.96484375 C-42.08834568 65.68055817 -33.59204609 66.00898049 -24.3984375 65.02734375 C-20.09557467 63.4335155 -20.09557467 63.4335155 -17.3984375 60.02734375 C-16.98141628 57.11157465 -16.98141628 57.11157465 -17.3984375 54.02734375 C-22.91060498 47.38768747 -31.94382328 46.11035128 -39.9609375 44.08984375 C-50.23798527 41.38755403 -58.36321823 38.15935191 -64.3984375 29.02734375 C-67.5542739 21.755199 -67.47889951 13.31324696 -64.9609375 5.83984375 C-61.60670886 -1.56299771 -55.65019949 -6.27278339 -48.2734375 -9.41015625 C-31.42440168 -15.31251911 -13.63067874 -11.21090027 0 0 Z " fill="#000000" transform="translate(908.3984375,415.97265625)"/>
<path d="M0 0 C21.45 0 42.9 0 65 0 C65 6.27 65 12.54 65 19 C49.82 19 34.64 19 19 19 C19 23.95 19 28.9 19 34 C27.91 34 36.82 34 46 34 C46 40.27 46 46.54 46 53 C37.09 53 28.18 53 19 53 C19 60.26 19 67.52 19 75 C34.84 75 50.68 75 67 75 C67 81.27 67 87.54 67 94 C44.89 94 22.78 94 0 94 C0 62.98 0 31.96 0 0 Z " fill="#000000" transform="translate(925,406)"/>
<path d="M0 0 C6.6 0 13.2 0 20 0 C28.26537017 21.37725284 36.46429107 42.77933231 44.57580566 64.21548462 C45.48490501 66.61693716 46.3951461 69.01795779 47.30651855 71.41854858 C48.59176166 74.80513784 49.87265979 78.19333813 51.15234375 81.58203125 C51.73721809 83.12003891 51.73721809 83.12003891 52.33390808 84.68911743 C52.68641129 85.62549042 53.03891449 86.5618634 53.40209961 87.52661133 C53.71215439 88.34607742 54.02220917 89.16554352 54.34165955 90.00984192 C55 92 55 92 55 94 C47.74 94 40.48 94 33 94 C30.69 87.4 28.38 80.8 26 74 C15.11 73.67 4.22 73.34 -7 73 C-7.99 76.3 -8.98 79.6 -10 83 C-11.27452737 86.69144048 -12.63884071 90.33895086 -14 94 C-20.93 94 -27.86 94 -35 94 C-34.30463096 89.82778573 -33.74124724 86.90493995 -32.27270508 83.11669922 C-31.73928246 81.72827316 -31.73928246 81.72827316 -31.19508362 80.3117981 C-30.80715134 79.3194516 -30.41921906 78.3271051 -30.01953125 77.3046875 C-29.61439804 76.25505829 -29.20926483 75.20542908 -28.79185486 74.12399292 C-27.47084736 70.70552645 -26.1417753 67.29025901 -24.8125 63.875 C-23.90414001 61.52915809 -22.99626486 59.18312838 -22.08886719 56.83691406 C-19.82416475 50.98541099 -17.55276303 45.13653813 -15.27862549 39.28869629 C-13.71696041 35.27200635 -12.15799396 31.25427267 -10.59916687 27.23648071 C-7.0750924 18.15414059 -3.54116117 9.07569121 0 0 Z M9 26 C7.49500991 30.28993333 5.99685363 34.58222158 4.5 38.875 C3.85611328 40.70998047 3.85611328 40.70998047 3.19921875 42.58203125 C2.79316406 43.74863281 2.38710937 44.91523437 1.96875 46.1171875 C1.59169922 47.19597168 1.21464844 48.27475586 0.82617188 49.38623047 C-0.10046237 51.86096201 -0.10046237 51.86096201 0 54 C6.27 54 12.54 54 19 54 C16.57711594 44.44306841 13.35433983 35.2597148 10 26 C9.67 26 9.34 26 9 26 Z " fill="#000000" transform="translate(1045,522)"/>
<path d="M0 0 C0.83265381 0.00523682 1.66530762 0.01047363 2.52319336 0.01586914 C3.42231445 0.0190918 4.32143555 0.02231445 5.24780273 0.02563477 C6.66609375 0.03820312 6.66609375 0.03820312 8.11303711 0.05102539 C9.06243164 0.05553711 10.01182617 0.06004883 10.98999023 0.06469727 C13.34356776 0.07652429 15.69702188 0.09300514 18.05053711 0.11352539 C18.51202148 1.3476416 18.97350586 2.58175781 19.44897461 3.85327148 C21.64791947 9.73227979 23.84895273 15.6105051 26.05053711 21.48852539 C26.45126434 22.55864868 26.85199158 23.62877197 27.26486206 24.73132324 C31.73699671 36.66994057 36.22442076 48.60230603 40.77319336 60.51196289 C41.14294281 61.48019989 41.51269226 62.44843689 41.89364624 63.4460144 C43.6536526 68.05201352 45.4173759 72.65655696 47.18530273 77.25952148 C47.81879432 78.91397038 48.45225939 80.56842943 49.08569336 82.22290039 C49.51725487 83.34152969 49.51725487 83.34152969 49.95753479 84.48275757 C51.18252907 87.68674041 52.21679614 90.7785615 53.05053711 94.11352539 C45.79053711 94.11352539 38.53053711 94.11352539 31.05053711 94.11352539 C29.89553711 91.01977539 28.74053711 87.92602539 27.55053711 84.73852539 C27.18508789 83.7647998 26.81963867 82.79107422 26.44311523 81.7878418 C26.15887695 81.02133301 25.87463867 80.25482422 25.58178711 79.46508789 C25.28852539 78.67956543 24.99526367 77.89404297 24.69311523 77.0847168 C24.05053711 75.11352539 24.05053711 75.11352539 24.05053711 73.11352539 C7.71553711 73.60852539 7.71553711 73.60852539 -8.94946289 74.11352539 C-11.21117871 80.32030318 -11.21117871 80.32030318 -13.46679688 86.52929688 C-13.7485376 87.29830322 -14.03027832 88.06730957 -14.32055664 88.85961914 C-14.60858154 89.65037842 -14.89660645 90.4411377 -15.19335938 91.25585938 C-15.94946289 93.11352539 -15.94946289 93.11352539 -16.94946289 94.11352539 C-18.51119034 94.20038142 -20.07675633 94.22054759 -21.64086914 94.21118164 C-22.49108643 94.20868408 -23.34130371 94.20618652 -24.21728516 94.20361328 C-25.30452881 94.19450928 -26.39177246 94.18540527 -27.51196289 94.17602539 C-29.37385861 94.16453702 -31.2357566 94.15341078 -33.09765625 94.14257812 C-35.52355957 94.12805176 -35.52355957 94.12805176 -37.94946289 94.11352539 C-32.67349342 78.65398668 -26.91300784 63.40648871 -21.01196289 48.17602539 C-19.71852204 44.82922591 -18.4259736 41.48208299 -17.13363647 38.13485718 C-16.29144411 35.95425942 -15.44854056 33.77393618 -14.60488892 31.59390259 C-12.57708423 26.35026671 -10.56177995 21.10244872 -8.57397461 15.84350586 C-8.20348495 14.86417587 -7.8329953 13.88484589 -7.45127869 12.87583923 C-6.7549795 11.03199459 -6.06098727 9.18727661 -5.36964417 7.34156799 C-5.06397018 6.53211227 -4.7582962 5.72265656 -4.44335938 4.88867188 C-4.04454811 3.82567116 -4.04454811 3.82567116 -3.63768005 2.74119568 C-2.6810532 0.47872215 -2.5042414 0.14583247 0 0 Z M7.05053711 26.11352539 C5.54277095 30.21488104 4.04566135 34.32004606 2.55053711 38.42602539 C2.1212793 39.59327148 1.69202148 40.76051758 1.24975586 41.96313477 C0.84370117 43.08139648 0.43764648 44.1996582 0.01928711 45.35180664 C-0.35776367 46.38345947 -0.73481445 47.4151123 -1.12329102 48.47802734 C-2.09902563 51.13030601 -2.09902563 51.13030601 -1.94946289 54.11352539 C4.32053711 54.11352539 10.59053711 54.11352539 17.05053711 54.11352539 C14.08053711 44.87352539 11.11053711 35.63352539 8.05053711 26.11352539 C7.72053711 26.11352539 7.39053711 26.11352539 7.05053711 26.11352539 Z " fill="#000000" transform="translate(303.949462890625,521.886474609375)"/>
<path d="M0 0 C6.6 0 13.2 0 20 0 C20.52730713 1.4012915 21.05461426 2.80258301 21.59790039 4.24633789 C24.08435737 10.85238222 26.57319838 17.45752715 29.0625 24.0625 C29.51185913 25.25517487 29.96121826 26.44784973 30.42419434 27.67666626 C35.13510728 40.17635168 39.85530736 52.67188572 44.66796875 65.1328125 C45.19687462 66.50266548 45.19687462 66.50266548 45.73646545 67.90019226 C47.37874112 72.14991202 49.02621295 76.39754288 50.67993164 80.64282227 C51.26062269 82.14077099 51.84127311 83.63873547 52.421875 85.13671875 C52.68651047 85.81127106 52.95114594 86.48582336 53.22380066 87.18081665 C55 91.77386052 55 91.77386052 55 94 C47.74 94 40.48 94 33 94 C31.845 90.90625 30.69 87.8125 29.5 84.625 C29.13455078 83.65127441 28.76910156 82.67754883 28.39257812 81.67431641 C28.10833984 80.90780762 27.82410156 80.14129883 27.53125 79.3515625 C27.23798828 78.56604004 26.94472656 77.78051758 26.64257812 76.97119141 C26 75 26 75 26 73 C9.665 73.495 9.665 73.495 -7 74 C-9.31 80.6 -11.62 87.2 -14 94 C-20.93 94 -27.86 94 -35 94 C-33.87496702 87.24980211 -33.87496702 87.24980211 -32.56396484 83.80688477 C-32.27157425 83.03091949 -31.97918365 82.25495422 -31.67793274 81.45547485 C-31.35882431 80.62583221 -31.03971588 79.79618958 -30.7109375 78.94140625 C-30.37535324 78.05585052 -30.03976898 77.1702948 -29.6940155 76.25790405 C-28.59315272 73.35731996 -27.48426176 70.45988136 -26.375 67.5625 C-25.61020462 65.55361564 -24.84580456 63.54458074 -24.08178711 61.53540039 C-22.11637029 56.37198584 -20.14351027 51.21145143 -18.16802979 46.05187988 C-17.03027506 43.07910401 -15.89443727 40.10560348 -14.75927734 37.13183594 C-12.69773866 31.73216725 -10.631246 26.33441092 -8.5625 20.9375 C-8.24230896 20.10098907 -7.92211792 19.26447815 -7.59222412 18.40261841 C-6.68999702 16.04750302 -5.78494553 13.69349475 -4.87890625 11.33984375 C-4.48314644 10.30541641 -4.48314644 10.30541641 -4.07939148 9.25009155 C-2.85014114 6.06624886 -1.52971801 3.05943602 0 0 Z M9 26 C7.49500991 30.28993333 5.99685363 34.58222158 4.5 38.875 C3.85611328 40.70998047 3.85611328 40.70998047 3.19921875 42.58203125 C2.79316406 43.74863281 2.38710937 44.91523437 1.96875 46.1171875 C1.59169922 47.19597168 1.21464844 48.27475586 0.82617188 49.38623047 C-0.10046237 51.86096201 -0.10046237 51.86096201 0 54 C6.27 54 12.54 54 19 54 C16.03 44.76 13.06 35.52 10 26 C9.67 26 9.34 26 9 26 Z " fill="#000000" transform="translate(1220,522)"/>
<path d="M0 0 C6.6 0 13.2 0 20 0 C20.5983667 1.57894043 21.1967334 3.15788086 21.81323242 4.78466797 C23.84460837 10.14459165 25.87643101 15.50434589 27.9085474 20.86398888 C29.17339693 24.20001629 30.43809894 27.53609946 31.70245361 30.87231445 C38.99716462 50.12405916 38.99716462 50.12405916 46.35546875 69.3515625 C46.82224281 70.56608597 46.82224281 70.56608597 47.29844666 71.80514526 C48.69216114 75.43026632 50.08946806 79.05393073 51.49291992 82.67529297 C52.20411987 84.5221167 52.20411987 84.5221167 52.9296875 86.40625 C53.33429199 87.45103516 53.73889648 88.49582031 54.15576172 89.57226562 C55 92 55 92 55 94 C47.74 94 40.48 94 33 94 C31.845 90.90625 30.69 87.8125 29.5 84.625 C29.13455078 83.65127441 28.76910156 82.67754883 28.39257812 81.67431641 C28.10833984 80.90780762 27.82410156 80.14129883 27.53125 79.3515625 C27.23798828 78.56604004 26.94472656 77.78051758 26.64257812 76.97119141 C26 75 26 75 26 73 C9.665 73.495 9.665 73.495 -7 74 C-9.31 80.6 -11.62 87.2 -14 94 C-20.93 94 -27.86 94 -35 94 C-34.31847349 89.91084091 -33.7849384 87.01434198 -32.36450195 83.30029297 C-32.02889755 82.41469696 -31.69329315 81.52910095 -31.34751892 80.6166687 C-30.98147049 79.6680899 -30.61542206 78.71951111 -30.23828125 77.7421875 C-29.66401146 76.23460373 -29.66401146 76.23460373 -29.07814026 74.69656372 C-27.82848117 71.42055572 -26.57069153 68.14773944 -25.3125 64.875 C-24.45096839 62.62253588 -23.58980528 60.36993078 -22.72900391 58.1171875 C-17.48070284 44.39750412 -12.19470508 30.69215573 -6.875 17 C-6.57800201 16.2355658 -6.28100403 15.47113159 -5.9750061 14.68353271 C-5.14882426 12.55929636 -4.32097292 10.43572172 -3.4921875 8.3125 C-3.03183105 7.13300781 -2.57147461 5.95351563 -2.09716797 4.73828125 C-1 2 -1 2 0 0 Z M9 26 C7.49500991 30.28993333 5.99685363 34.58222158 4.5 38.875 C3.85611328 40.70998047 3.85611328 40.70998047 3.19921875 42.58203125 C2.79316406 43.74863281 2.38710938 44.91523437 1.96875 46.1171875 C1.59169922 47.19597168 1.21464844 48.27475586 0.82617188 49.38623047 C-0.10046237 51.86096201 -0.10046237 51.86096201 0 54 C6.27 54 12.54 54 19 54 C16.26457238 44.57797153 13.12928026 35.29669669 10 26 C9.67 26 9.34 26 9 26 Z " fill="#000000" transform="translate(857,522)"/>
<path d="M0 0 C1.18613892 0.00785522 1.18613892 0.00785522 2.39624023 0.01586914 C3.67724609 0.02070312 3.67724609 0.02070312 4.98413086 0.02563477 C5.88196289 0.03401367 6.77979492 0.04239258 7.70483398 0.05102539 C8.6065332 0.05553711 9.50823242 0.06004883 10.43725586 0.06469727 C12.67235033 0.07652316 14.90729891 0.09384295 17.14233398 0.11352539 C20.44635086 7.17810651 23.44912818 14.28132576 26.14624023 21.59790039 C26.68692894 23.04851868 26.68692894 23.04851868 27.23854065 24.52844238 C28.39742019 27.63886604 29.5511887 30.75115705 30.70483398 33.86352539 C32.30513152 38.16656763 33.9084882 42.46846251 35.51342773 46.76977539 C35.90840454 47.82884094 36.30338135 48.88790649 36.71032715 49.97906494 C39.09003731 56.34473412 41.51032869 62.69238346 43.98999023 69.01977539 C44.27570389 69.74972717 44.56141754 70.47967896 44.85578918 71.23175049 C46.1569428 74.5502248 47.46709556 77.86481381 48.7890625 81.17504883 C49.23822021 82.31490234 49.68737793 83.45475586 50.15014648 84.62915039 C50.53831543 85.60142578 50.92648438 86.57370117 51.32641602 87.57543945 C52.14233398 90.11352539 52.14233398 90.11352539 52.14233398 94.11352539 C45.21233398 94.11352539 38.28233398 94.11352539 31.14233398 94.11352539 C29.80095214 90.78319805 28.46672329 87.45060668 27.14233398 84.11352539 C26.83424805 83.34137695 26.52616211 82.56922852 26.20874023 81.77368164 C25.03104495 78.7477373 24.14233398 76.3902166 24.14233398 73.11352539 C12.92233398 73.11352539 1.70233398 73.11352539 -9.85766602 73.11352539 C-10.51766602 76.08352539 -11.17766602 79.05352539 -11.85766602 82.11352539 C-13.36121412 86.20044252 -15.11291921 90.11897349 -16.85766602 94.11352539 C-23.78766602 94.11352539 -30.71766602 94.11352539 -37.85766602 94.11352539 C-34.48265253 82.86348045 -34.48265253 82.86348045 -32.87158203 78.69677734 C-32.50973816 77.75552002 -32.14789429 76.8142627 -31.77508545 75.84448242 C-31.3911261 74.85689941 -31.00716675 73.86931641 -30.61157227 72.85180664 C-30.20384583 71.79421143 -29.79611938 70.73661621 -29.3760376 69.64697266 C-28.06102525 66.23858242 -26.74075375 62.83225885 -25.42016602 59.42602539 C-24.51517073 57.08458531 -23.61046816 54.74303207 -22.70605469 52.40136719 C-20.91802214 47.77342246 -19.12791452 43.14628869 -17.33618164 38.51977539 C-15.18394011 32.96047081 -13.04181053 27.3973496 -10.90454102 21.83227539 C-10.079631 19.6876608 -9.2543938 17.54317259 -8.42892456 15.39877319 C-7.92517031 14.08902836 -7.42217307 12.7789921 -6.91995239 11.46865845 C-6.24152396 9.69958429 -5.55948454 7.93189613 -4.87719727 6.16430664 C-4.32189331 4.72051636 -4.32189331 4.72051636 -3.75537109 3.24755859 C-2.45229102 0.14986402 -2.45229102 0.14986402 0 0 Z M7.14233398 27.11352539 C4.76451449 32.87874137 2.52114793 38.68933964 0.39233398 44.55102539 C-0.03563477 45.72536133 -0.46360352 46.89969727 -0.90454102 48.10961914 C-2.00888409 51.0648616 -2.00888409 51.0648616 -1.85766602 54.11352539 C4.41233398 54.11352539 10.68233398 54.11352539 17.14233398 54.11352539 C14.17233398 45.20352539 11.20233398 36.29352539 8.14233398 27.11352539 C7.81233398 27.11352539 7.48233398 27.11352539 7.14233398 27.11352539 Z " fill="#000000" transform="translate(115.857666015625,521.886474609375)"/>
<path d="M0 0 C1.18613892 0.00785522 1.18613892 0.00785522 2.39624023 0.01586914 C3.67724609 0.02070312 3.67724609 0.02070312 4.98413086 0.02563477 C5.88196289 0.03401367 6.77979492 0.04239258 7.70483398 0.05102539 C8.6065332 0.05553711 9.50823242 0.06004883 10.43725586 0.06469727 C12.67234712 0.07652315 14.90730835 0.09300319 17.14233398 0.11352539 C21.99713453 11.39903032 26.32542091 22.88777586 30.70483398 34.36352539 C31.0991864 35.39578247 31.49353882 36.42803955 31.89984131 37.49157715 C34.28315157 43.73060797 36.66214707 49.97127007 39.0380249 56.21313477 C40.07456043 58.93552289 41.11242364 61.65740093 42.15063477 64.37915039 C43.60225554 68.18663852 45.04842354 71.99614492 46.48922729 75.80773926 C47.00511826 77.17074192 47.52261805 78.5331368 48.04177856 79.89489746 C48.74934407 81.75241945 49.4499541 83.61258657 50.15014648 85.47290039 C50.53831543 86.49867188 50.92648437 87.52444336 51.32641602 88.58129883 C52.14233398 91.11352539 52.14233398 91.11352539 52.14233398 94.11352539 C45.21233398 94.11352539 38.28233398 94.11352539 31.14233398 94.11352539 C29.80095214 90.78319805 28.46672329 87.45060668 27.14233398 84.11352539 C26.83424805 83.34137695 26.52616211 82.56922852 26.20874023 81.77368164 C25.03104495 78.7477373 24.14233398 76.3902166 24.14233398 73.11352539 C12.92233398 73.11352539 1.70233398 73.11352539 -9.85766602 73.11352539 C-10.18766602 75.09352539 -10.51766602 77.07352539 -10.85766602 79.11352539 C-11.64277271 81.5669838 -12.47815212 84.00480545 -13.35766602 86.42602539 C-13.80110352 87.6596582 -14.24454102 88.89329102 -14.70141602 90.16430664 C-15.85766602 93.11352539 -15.85766602 93.11352539 -16.85766602 94.11352539 C-18.41939346 94.20038142 -19.98495946 94.22054759 -21.54907227 94.21118164 C-22.49331055 94.20795898 -23.43754883 94.20473633 -24.41040039 94.20141602 C-25.40362305 94.19303711 -26.3968457 94.1846582 -27.42016602 94.17602539 C-28.41725586 94.17151367 -29.4143457 94.16700195 -30.44165039 94.16235352 C-32.9137174 94.15052544 -35.38565267 94.13320497 -37.85766602 94.11352539 C-35.91507499 87.3169701 -33.67091043 80.71174011 -31.11938477 74.12133789 C-30.7616095 73.18862061 -30.40383423 72.25590332 -30.03521729 71.29492188 C-28.87554688 68.27469305 -27.71055984 65.25654986 -26.54516602 62.23852539 C-25.74034374 60.14729997 -24.93573969 58.05599056 -24.13134766 55.96459961 C-22.10170282 50.69122284 -20.06694828 45.41983504 -18.03027344 40.14916992 C-16.90575582 37.2380202 -15.78279105 34.32627697 -14.66040039 31.41430664 C-13.01251132 27.13977617 -11.3614902 22.86647235 -9.70718384 18.59442139 C-9.10047818 17.02719824 -8.49449753 15.45969424 -7.88925171 13.89190674 C-7.05719518 11.73816165 -6.22167415 9.58579637 -5.38500977 7.43383789 C-4.68492798 5.62810303 -4.68492798 5.62810303 -3.97070312 3.78588867 C-2.4564066 0.15011553 -2.4564066 0.15011553 0 0 Z M6.14233398 27.11352539 C3.17233398 36.02352539 0.20233398 44.93352539 -2.85766602 54.11352539 C3.41233398 54.11352539 9.68233398 54.11352539 16.14233398 54.11352539 C14.63303133 47.08129273 14.63303133 47.08129273 12.63452148 40.29711914 C12.37026367 39.51401367 12.10600586 38.7309082 11.83374023 37.92407227 C11.42961914 36.74941406 11.42961914 36.74941406 11.01733398 35.55102539 C10.74018555 34.73311523 10.46303711 33.91520508 10.17749023 33.07250977 C9.50328261 31.08475971 8.82341195 29.0989319 8.14233398 27.11352539 C7.48233398 27.11352539 6.82233398 27.11352539 6.14233398 27.11352539 Z " fill="#000000" transform="translate(478.857666015625,521.886474609375)"/>
<path d="M0 0 C6.6 0 13.2 0 20 0 C21.01835938 2.70316406 22.03671875 5.40632813 23.0859375 8.19140625 C24.51506013 11.98198398 25.94503832 15.77223873 27.375 19.5625 C27.93524368 21.04805893 27.93524368 21.04805893 28.50680542 22.56362915 C33.01600524 34.51655314 37.55023016 46.45931142 42.13671875 58.3828125 C42.55145447 59.46173264 42.96619019 60.54065277 43.39349365 61.65226746 C45.41134164 66.90020699 47.43313427 72.14657962 49.46044922 77.39086914 C50.193802 79.29569059 50.92704366 81.20055484 51.66015625 83.10546875 C51.99996017 83.98047028 52.3397641 84.8554718 52.68986511 85.75698853 C52.99596207 86.55414276 53.30205902 87.351297 53.61743164 88.17260742 C53.88592422 88.86738693 54.15441681 89.56216644 54.43104553 90.27799988 C55 92 55 92 55 94 C47.74 94 40.48 94 33 94 C31.845 90.90625 30.69 87.8125 29.5 84.625 C29.13455078 83.65127441 28.76910156 82.67754883 28.39257812 81.67431641 C28.10833984 80.90780762 27.82410156 80.14129883 27.53125 79.3515625 C27.23798828 78.56604004 26.94472656 77.78051758 26.64257812 76.97119141 C26 75 26 75 26 73 C9.665 73.495 9.665 73.495 -7 74 C-9.31 80.6 -11.62 87.2 -14 94 C-20.93 94 -27.86 94 -35 94 C-32.75000781 83.87503512 -32.75000781 83.87503512 -31.46630859 80.58984375 C-31.17719101 79.84051575 -30.88807343 79.09118774 -30.5901947 78.31915283 C-30.27941483 77.5332074 -29.96863495 76.74726196 -29.6484375 75.9375 C-29.31691177 75.08371765 -28.98538605 74.2299353 -28.64381409 73.35028076 C-27.56034157 70.56441917 -26.46776331 67.78222879 -25.375 65 C-24.61864175 63.06044753 -23.86287192 61.12066551 -23.10766602 59.18066406 C-21.54016297 55.15739593 -19.96878213 51.13567568 -18.39404297 47.11523438 C-16.02797446 41.07428021 -13.67124598 35.02971355 -11.31640625 28.984375 C-7.55092068 19.32030937 -3.77734765 9.65943546 0 0 Z M9 26 C7.49247107 30.26821354 5.99527041 34.53997809 4.5 38.8125 C3.85611328 40.63491211 3.85611328 40.63491211 3.19921875 42.49414062 C2.79316406 43.65751953 2.38710937 44.82089844 1.96875 46.01953125 C1.59169922 47.09307861 1.21464844 48.16662598 0.82617188 49.27270508 C-0.14495852 52.0035786 -0.14495852 52.0035786 0 55 C6.27 55 12.54 55 19 55 C18.24333932 51.21669661 17.37442174 47.8891566 16.15234375 44.26171875 C15.79462891 43.19501953 15.43691406 42.12832031 15.06835938 41.02929688 C14.69517578 39.92650391 14.32199219 38.82371094 13.9375 37.6875 C13.56044922 36.56537109 13.18339844 35.44324219 12.79492188 34.28710938 C11.86598512 31.52381649 10.93425558 28.76149822 10 26 C9.67 26 9.34 26 9 26 Z " fill="#000000" transform="translate(1035,406)"/>
<path d="M0 0 C6.6 0 13.2 0 20 0 C20.00410889 1.79550293 20.00821777 3.59100586 20.01245117 5.44091797 C20.03193574 11.40824886 20.07438116 17.3750563 20.13209057 23.3421154 C20.1662176 26.95602405 20.19144798 30.56951642 20.19555664 34.18359375 C20.19987075 37.67884763 20.22858571 41.17316477 20.27343178 44.66812515 C20.29252695 46.63419897 20.28707976 48.60046257 20.28105164 50.56661987 C20.40657592 58.36598624 21.40245288 64.53626078 26 71 C29.64406036 74.37957836 33.0765537 75.24598304 38 75.5 C43.09258887 75.2678151 45.94130317 74.08460959 50 71 C56.80811539 63.08786589 56.31689409 52.78443176 56.4140625 42.87109375 C56.43342865 41.64084976 56.4527948 40.41060577 56.4727478 39.14308167 C56.53218602 35.24129006 56.57878583 31.33946839 56.625 27.4375 C56.66216838 24.78056798 56.7022662 22.12369014 56.7421875 19.46679688 C56.83785818 12.97796248 56.92202085 6.48907014 57 0 C63.27 0 69.54 0 76 0 C76.09092615 8.12005472 76.16407214 16.23970341 76.20724869 24.36013317 C76.22798734 28.13212927 76.25604797 31.90375442 76.30175781 35.67553711 C76.34571327 39.32604345 76.3692398 42.97619653 76.37950897 46.6269474 C76.38681247 48.00901146 76.40107 49.39105958 76.42292023 50.7729702 C76.61505162 63.44614746 75.01372861 75.48550869 66 85 C65.23042969 85.82951172 65.23042969 85.82951172 64.4453125 86.67578125 C56.18321792 94.64138918 46.25852867 95.58572856 35.28344727 95.47265625 C28.87130415 95.24973054 23.54254099 94.42145319 18 91 C17.2884375 90.57589844 16.576875 90.15179688 15.84375 89.71484375 C6.93001236 83.74463515 2.85985139 74.91682505 0.47315979 64.75740051 C-0.05156813 61.69948001 -0.11984478 58.84378817 -0.11352539 55.7409668 C-0.11344986 54.50005783 -0.11337433 53.25914886 -0.11329651 51.9806366 C-0.10819072 50.63683023 -0.10297474 49.29302429 -0.09765625 47.94921875 C-0.09578965 46.56631013 -0.09436689 45.18340085 -0.09336853 43.80049133 C-0.08956237 40.17225294 -0.07974843 36.544055 -0.06866455 32.91583252 C-0.05840945 29.20886787 -0.05386215 25.50189664 -0.04882812 21.79492188 C-0.03812435 14.5299274 -0.02054306 7.26497454 0 0 Z " fill="#000000" transform="translate(1091,406)"/>
<path d="M0 0 C20.32861246 -2.11339537 20.32861246 -2.11339537 25.9921875 2.3671875 C27.65459332 5.18844884 28.98848049 7.95762979 30.15917969 11.01367188 C31.70636099 14.66868554 33.90342211 17.9530546 36 21.3125 C36.77371116 22.59853342 37.54480736 23.88614606 38.3125 25.17578125 C38.869375 26.10777344 39.42625 27.03976562 40 28 C40.4846875 27.06800781 40.969375 26.13601563 41.46875 25.17578125 C42.50016426 23.19672904 43.54563734 21.23029554 44.62890625 19.27905273 C46.48257142 15.93970635 48.16401298 12.70293034 49.46875 9.109375 C51.25639991 4.96859409 52.39197602 2.76068501 56 0 C63.86263713 -1.60154295 72.0732317 -0.78764337 80 0 C76.37198564 6.98381927 72.39739891 13.66630168 68.1875 20.3125 C67.67195557 21.128396 67.15641113 21.94429199 66.62524414 22.78491211 C64.19531005 26.61184003 61.73765297 30.4121216 59.1875 34.16015625 C58.76315674 34.79203857 58.33881348 35.4239209 57.90161133 36.07495117 C56.76257688 37.76369056 55.60647502 39.4408826 54.44921875 41.1171875 C52.73725605 44.52265508 52.98802147 45.42964496 54 49 C54.96810612 51.0869497 54.96810612 51.0869497 56.23046875 53.08984375 C56.69735107 53.86400635 57.1642334 54.63816895 57.64526367 55.43579102 C58.15420166 56.26135498 58.66313965 57.08691895 59.1875 57.9375 C59.71126221 58.79980225 60.23502441 59.66210449 60.7746582 60.55053711 C65.57868649 68.41712461 70.53364408 76.18949154 75.54174805 83.92749023 C76.10933838 84.80864502 76.67692871 85.6897998 77.26171875 86.59765625 C78.01908325 87.76566772 78.01908325 87.76566772 78.79174805 88.95727539 C80 91 80 91 81 94 C73.1148641 95.51599852 64.69107596 96.84151206 57 94 C50.85864385 88.36646569 47.48571719 80.4352131 44.24487305 72.88427734 C42.93992609 69.86081327 41.49498929 66.93345109 40 64 C39.2886792 65.20329956 39.2886792 65.20329956 38.56298828 66.4309082 C36.80063129 69.41128233 35.03753062 72.39121385 33.27392578 75.37084961 C32.51125784 76.65973574 31.74888543 77.94879678 30.98681641 79.23803711 C29.89042856 81.09274797 28.79297415 82.94682404 27.6953125 84.80078125 C27.03547363 85.91622314 26.37563477 87.03166504 25.69580078 88.1809082 C24.51133883 90.14995257 23.27461437 92.08807844 22 94 C19.56982422 94.34057617 19.56982422 94.34057617 16.5546875 94.29296875 C15.47832031 94.28330078 14.40195313 94.27363281 13.29296875 94.26367188 C12.16503906 94.23853516 11.03710938 94.21339844 9.875 94.1875 C8.73933594 94.17396484 7.60367187 94.16042969 6.43359375 94.14648438 C3.62192613 94.11104319 0.81119583 94.06163517 -2 94 C1.60740446 87.05591886 5.55811032 80.41683514 9.75 73.8125 C10.26296631 73.00176025 10.77593262 72.19102051 11.30444336 71.35571289 C13.84856345 67.34625575 16.41793562 63.35667687 19.03515625 59.39453125 C19.50405273 58.67354248 19.97294922 57.95255371 20.45605469 57.2097168 C21.33892759 55.85283203 22.2335785 54.50351475 23.14160156 53.16333008 C25.46765326 49.63899279 25.46765326 49.63899279 25.74584961 45.55029297 C25.00455346 43.0155697 24.10859782 41.12159271 22.734375 38.875 C22.26225586 38.09560059 21.79013672 37.31620117 21.30371094 36.51318359 C20.79098633 35.68383301 20.27826172 34.85448242 19.75 34 C19.22438477 33.13584473 18.69876953 32.27168945 18.15722656 31.38134766 C15.23945309 26.59719639 12.27975888 21.83951132 9.3125 17.0859375 C8.71727539 16.13074219 8.12205078 15.17554688 7.50878906 14.19140625 C6.34898073 12.33416736 5.18436751 10.47991921 4.01464844 8.62890625 C3.22622559 7.37013672 3.22622559 7.37013672 2.421875 6.0859375 C1.95362305 5.3439209 1.48537109 4.6019043 1.00292969 3.83740234 C0 2 0 2 0 0 Z " fill="#000000" transform="translate(1176,405)"/>
<path d="M0 0 C0.495 1.485 0.495 1.485 1 3 C-5.27 6.3 -11.54 9.6 -18 13 C-16.68 13.33 -15.36 13.66 -14 14 C-14.95814332 16.57961663 -15.93282035 18.89411296 -17.41015625 21.22265625 C-19.26736776 24.46707242 -20.41907425 27.71360425 -21.625 31.25 C-23.9022082 37.9022082 -23.9022082 37.9022082 -25 39 C-25.43129613 41.68362038 -25.7614011 44.29740862 -26 47 C-26.06703125 47.70769531 -26.1340625 48.41539063 -26.203125 49.14453125 C-26.73218248 59.63120637 -21.40226571 68.49305575 -16.390625 77.34765625 C-15 80 -15 80 -15 82 C-16.37291868 82.48509793 -17.74846703 82.96275513 -19.125 83.4375 C-19.89070312 83.70433594 -20.65640625 83.97117187 -21.4453125 84.24609375 C-37.25464661 88.91153944 -52.2432362 85.71490966 -66.328125 78.140625 C-71.45011142 75.24109485 -75.60756712 72.44673969 -77.87109375 66.84375 C-78.43739626 64.2800239 -78.5543674 62.57226472 -78 60 C-76.37876627 57.71610261 -74.58015944 55.83030072 -72.609375 53.84375 C-70.72861518 51.98929217 -70.72861518 51.98929217 -70.3125 48.8125 C-70.82525597 45.858477 -70.82525597 45.858477 -73 43.5 C-75 41 -75 41 -75.5625 38.1875 C-74.07912543 29.78171079 -67.69690715 23.81281907 -61 19 C-57.84206224 17.12824787 -54.60359752 15.42286687 -51.31689453 13.7890625 C-47.46338833 11.86685244 -44.32564806 9.7135656 -41 7 C-34.88627823 2.21451288 -29.99270474 1.26085541 -22.3125 1.25 C-20.4752011 1.2166645 -18.63795408 1.18030476 -16.80078125 1.140625 C-15.99809814 1.13579102 -15.19541504 1.13095703 -14.3684082 1.12597656 C-9.48121784 0.86602499 -4.96874757 -0.09742642 0 0 Z " fill="#FADA04" transform="translate(751,63)"/>
<path d="M0 0 C5.20976971 4.33809618 8.03585101 8.14147231 10.0078125 14.671875 C7.76024466 15.82270185 5.50999502 16.96764358 3.2578125 18.109375 C2.30648437 18.59760742 2.30648437 18.59760742 1.3359375 19.09570312 C-1.72578658 20.64251165 -4.59834371 22.0633828 -7.9921875 22.671875 C-8.36730469 22.18976562 -8.74242187 21.70765625 -9.12890625 21.2109375 C-9.64066406 20.57929687 -10.15242187 19.94765625 -10.6796875 19.296875 C-11.17855469 18.67039062 -11.67742188 18.04390625 -12.19140625 17.3984375 C-15.77111096 13.96626943 -19.60457086 13.37990741 -24.4296875 13.359375 C-30.8502448 13.51429461 -34.71008882 15.11215587 -39.1796875 19.734375 C-45.82077441 28.11852934 -45.80952789 38.39989445 -44.9921875 48.671875 C-43.90528964 54.73645004 -42.17487073 59.0565004 -37.9921875 63.671875 C-37.9921875 64.331875 -37.9921875 64.991875 -37.9921875 65.671875 C-36.33233952 66.35534182 -34.66381945 67.01775815 -32.9921875 67.671875 C-32.0846875 68.06375 -31.1771875 68.455625 -30.2421875 68.859375 C-24.59897354 70.27017849 -19.89665479 69.66073301 -14.7421875 66.984375 C-11.69340175 64.42062335 -9.42373041 61.81857759 -6.9921875 58.671875 C-2.53036314 59.98261865 1.00400007 61.74253511 4.8828125 64.296875 C6.33300781 65.24433594 6.33300781 65.24433594 7.8125 66.2109375 C8.53695312 66.69304687 9.26140625 67.17515625 10.0078125 67.671875 C7.80949413 75.24627887 3.70006754 80.40552919 -3.046875 84.546875 C-13.94613186 90.08977336 -25.28645066 91.44959256 -37.33984375 88.98828125 C-48.08081699 85.34752942 -55.77157961 78.28474718 -61.24609375 68.41015625 C-65.32040963 59.79545884 -66.36118265 51.25203381 -66.3046875 41.796875 C-66.29977295 40.82524414 -66.2948584 39.85361328 -66.28979492 38.85253906 C-66.17873622 32.07055414 -65.64523985 25.98357213 -62.9921875 19.671875 C-62.48171875 18.40730469 -62.48171875 18.40730469 -61.9609375 17.1171875 C-56.46945217 4.90976404 -48.22184048 -1.56111409 -35.9921875 -6.328125 C-23.36015872 -9.08887335 -10.59579203 -7.67150534 0 0 Z " fill="#000000" transform="translate(809.9921875,527.328125)"/>
<path d="M0 0 C5.38045613 3.87537041 9.3355919 8.60222978 12.39453125 14.4921875 C12.39453125 15.1521875 12.39453125 15.8121875 12.39453125 16.4921875 C9.60581948 17.83176671 6.81310063 19.16277185 4.01953125 20.4921875 C3.22546875 20.87375 2.43140625 21.2553125 1.61328125 21.6484375 C0.85273437 22.009375 0.0921875 22.3703125 -0.69140625 22.7421875 C-1.39313965 23.07734375 -2.09487305 23.4125 -2.81787109 23.7578125 C-4.60546875 24.4921875 -4.60546875 24.4921875 -6.60546875 24.4921875 C-7.47171875 23.1 -7.47171875 23.1 -8.35546875 21.6796875 C-10.99350102 17.94247512 -12.26136989 16.88850499 -16.60546875 15.4921875 C-23.31273743 14.64197034 -29.29883236 14.65268862 -34.91796875 18.7265625 C-42.72831729 26.89850125 -43.03934395 37.13748466 -42.890625 47.72265625 C-42.67562449 53.25756886 -41.45621262 57.72439288 -38.60546875 62.4921875 C-38.04859375 63.4409375 -37.49171875 64.3896875 -36.91796875 65.3671875 C-32.88335555 69.0746699 -28.53371426 71.30724568 -23.0078125 71.65625 C-17.56896371 71.31170754 -13.78298352 70.17237908 -9.60546875 66.4921875 C-8.08693069 64.55130604 -6.86441685 62.62271506 -5.60546875 60.4921875 C-0.98721045 61.04011645 2.37602772 63.08183238 6.20703125 65.5546875 C6.80451172 65.93173828 7.40199219 66.30878906 8.01757812 66.69726562 C9.48089702 67.62208316 10.93832648 68.55620815 12.39453125 69.4921875 C11.81933693 70.72518384 11.23387808 71.95339276 10.64453125 73.1796875 C10.15726563 74.20642578 10.15726563 74.20642578 9.66015625 75.25390625 C6.9205628 80.098928 3.77736727 83.2243487 -0.91796875 86.1796875 C-1.82160156 86.76105469 -2.72523437 87.34242188 -3.65625 87.94140625 C-9.77361197 91.15808533 -15.57606631 91.8816302 -22.35546875 91.8671875 C-23.1453418 91.86557617 -23.93521484 91.86396484 -24.74902344 91.86230469 C-35.6111035 91.63573369 -44.04923012 87.7252887 -52.10546875 80.4921875 C-61.53755771 70.62188202 -64.44443039 56.75913697 -64.98046875 43.4921875 C-64.34300098 27.08432133 -59.65530887 13.91210343 -47.60546875 2.4921875 C-34.46830261 -8.38174408 -14.3917484 -8.328658 0 0 Z " fill="#000000" transform="translate(64.60546875,525.5078125)"/>
<path d="M0 0 C4.33491669 -0.06115086 8.66495338 -0.04320644 13 0 C13.92683594 -0.01933594 14.85367187 -0.03867187 15.80859375 -0.05859375 C20.81669664 0.05860055 23.39641722 0.88723538 26.9375 4.5 C27.58847656 5.22960937 28.23945312 5.95921875 28.91015625 6.7109375 C32.81460857 10.98758995 37.46813894 14.41705307 42 18 C42.66354492 18.52932129 43.32708984 19.05864258 44.01074219 19.60400391 C54.91921705 28.29492974 66.01456521 36.44802403 77.8828125 43.78125 C89.61280984 51.03127751 100.04818105 59.99942583 110.64697266 68.77832031 C116.49915917 73.61698471 122.44542811 78.32460671 128.4375 82.98828125 C131 85 131 85 132 86 C132.04443347 87.99950636 132.03920815 90.00038436 132 92 C131.63019987 96.04622502 131.63019987 96.04622502 134 99 C133.68609175 102.97617113 132.16754953 105.70155506 130 109 C125.91093956 107.20204629 122.46490338 104.55405844 118.875 101.9375 C112.16664049 96.65549639 112.16664049 96.65549639 104 96 C100.99353335 98.00024556 98.53485217 100.44082104 96 103 C95.31808594 103.63679688 94.63617187 104.27359375 93.93359375 104.9296875 C90.5248518 108.35908849 88.56569265 110.73591634 88.5 115.6875 C88.73409804 118.88879065 89.36459364 121.82296822 90 125 C86.04 123.02 82.08 121.04 78 119 C78 106.62997228 85.89296443 95.21146723 92.5546875 85.234375 C95.043845 81.38627205 96.65937913 78.70357111 96 74 C91.1636323 67.21884952 83.54647237 62.04502018 76.95288086 57.01782227 C74.46608415 55.12092089 71.98534932 53.21667641 69.50976562 51.30517578 C58.71901684 43.03741364 47.4632938 35.58141487 36.0625 28.1875 C33.33629133 26.4169796 30.61125454 24.644756 27.88926697 22.86775208 C26.21549793 21.77523144 24.53938348 20.68629108 22.86036682 19.60185242 C14.61083554 14.2208068 6.53582233 8.43948909 0 1 C0 0.67 0 0.34 0 0 Z " fill="#F8F8F8" transform="translate(497,353)"/>
<path d="M0 0 C6.27 0 12.54 0 19 0 C19 31.02 19 62.04 19 94 C12.73 94 6.46 94 0 94 C0 62.98 0 31.96 0 0 Z " fill="#000000" transform="translate(214,407)"/>
<path d="M0 0 C6.27 0 12.54 0 19 0 C19 31.02 19 62.04 19 94 C12.73 94 6.46 94 0 94 C0 62.98 0 31.96 0 0 Z " fill="#000000" transform="translate(809,406)"/>
<path d="M0 0 C6.09910517 0.05871581 11.01091615 1.67108393 16.5625 4 C17.33972412 4.30542725 18.11694824 4.61085449 18.91772461 4.92553711 C23.22051275 6.86317614 25.45650311 8.55293849 27.42578125 12.90625 C27.99626741 14.44935013 28.54340367 16.00136212 29.0625 17.5625 C29.74892578 19.31240234 29.74892578 19.31240234 30.44921875 21.09765625 C30.87847656 22.26167969 31.30773437 23.42570312 31.75 24.625 C32.26412748 26.01179122 32.77846457 27.39850474 33.29296875 28.78515625 C33.57188965 29.53941895 33.85081055 30.29368164 34.13818359 31.07080078 C35.54599701 34.86587309 36.96946893 38.65503825 38.39208984 42.44458008 C39.17054227 44.51834226 39.94821532 46.59239717 40.72509766 48.66674805 C42.46426983 53.31034515 44.20760999 57.95210646 45.97265625 62.5859375 C46.25496094 63.32972656 46.53726563 64.07351563 46.828125 64.83984375 C47.34493021 66.20025747 47.86430698 67.55969814 48.38671875 68.91796875 C50.0625 73.33856412 50.0625 73.33856412 50.0625 75.5625 C46.74995191 74.17284568 44.22762406 72.1284193 41.49291992 69.82958984 C31.98882445 61.8433222 21.64095849 55.35880613 11.07104492 48.88427734 C7.68319207 46.65480909 6.65768422 44.82949704 5.44140625 41.0546875 C5.14556641 40.14976562 4.84972656 39.24484375 4.54492188 38.3125 C4.24134766 37.36375 3.93777344 36.415 3.625 35.4375 C1.2296232 28.04016433 -1.28411999 20.7496312 -4.140625 13.515625 C-4.48609375 12.62359375 -4.8315625 11.7315625 -5.1875 10.8125 C-5.54328125 9.91015625 -5.8990625 9.0078125 -6.265625 8.078125 C-6.98168768 5.39705312 -6.92854993 4.12079168 -5.9375 1.5625 C-4.24904503 -0.12595497 -2.32848414 0.15012175 0 0 Z " fill="#E3E3E4" transform="translate(552.9375,339.4375)"/>
<path d="M0 0 C9.60181927 1.52819273 18.96566309 3.91224549 28.375 6.31640625 C30.03353597 6.73742868 31.69214736 7.1581541 33.35083008 7.57859802 C36.80396191 8.45469031 40.25647351 9.33317036 43.70849609 10.21362305 C48.13387773 11.34230569 52.56032678 12.46673067 56.98718262 13.58961582 C61.22099673 14.66373822 65.45426357 15.74000984 69.6875 16.81640625 C70.49330505 17.02109591 71.29911011 17.22578556 72.1293335 17.43667793 C74.40293425 18.01461747 76.67613776 18.59409233 78.94921875 19.17407227 C79.62245682 19.34499893 80.29569489 19.5159256 80.98933411 19.69203186 C83.69595679 20.38412021 86.34823568 21.11607856 89 22 C89 22.66 89 23.32 89 24 C86.57024611 25.64897689 84.14273782 27.18364079 81.625 28.6875 C75.89988984 32.15276476 70.44723291 35.73082278 65.2109375 39.91796875 C62.03984114 41.46990107 60.36398346 40.97543015 57 40 C54.61998554 38.802884 52.43532062 37.59242564 50.1875 36.1875 C49.54079346 35.79079102 48.89408691 35.39408203 48.2277832 34.98535156 C40.24003999 30.01129201 32.62076355 24.51243505 25 19 C23.38945597 17.83965905 21.77877638 16.67950624 20.16796875 15.51953125 C16.43772408 12.8307826 12.71166063 10.13636925 8.99121094 7.43408203 C7.64175542 6.46219609 6.28536039 5.49988667 4.92285156 4.54638672 C3.26618391 3.38638687 1.63067843 2.19625885 0 1 C0 0.67 0 0.34 0 0 Z " fill="#F5F5F6" transform="translate(270,188)"/>
<path d="M0 0 C3.5722075 2.53422449 6.87630625 5.28237984 9.52734375 8.79296875 C9.52734375 9.45296875 9.52734375 10.11296875 9.52734375 10.79296875 C6.05523974 13.83105976 4.25586457 14.80453257 -0.41015625 14.73046875 C-4.73523608 13.91019499 -9.93702812 12.73591287 -12.75390625 9.171875 C-15.4684277 6.99408847 -17.79895702 7.73939755 -21.16015625 8.10546875 C-22.33964844 8.22535156 -23.51914062 8.34523438 -24.734375 8.46875 C-26.08982422 8.62923828 -26.08982422 8.62923828 -27.47265625 8.79296875 C-27.47265625 12.09296875 -27.47265625 15.39296875 -27.47265625 18.79296875 C-27.80265625 18.79296875 -28.13265625 18.79296875 -28.47265625 18.79296875 C-28.47265625 15.49296875 -28.47265625 12.19296875 -28.47265625 8.79296875 C-31.44265625 8.13296875 -34.41265625 7.47296875 -37.47265625 6.79296875 C-36.64765625 7.43234375 -35.82265625 8.07171875 -34.97265625 8.73046875 C-32.02165629 12.3454437 -31.78372517 14.05946655 -32.046875 18.578125 C-32.87791904 22.90107886 -35.31036493 25.59059842 -38.28515625 28.66796875 C-41.550287 30.34717885 -43.8500112 30.23018453 -47.47265625 29.79296875 C-51.81446706 27.53856698 -54.70751096 25.40195923 -56.47265625 20.79296875 C-56.80986114 17.09977236 -56.92954643 13.47775836 -56.47265625 9.79296875 C-55.81265625 9.13296875 -55.15265625 8.47296875 -54.47265625 7.79296875 C-56.78265625 8.12296875 -59.09265625 8.45296875 -61.47265625 8.79296875 C-61.34765625 6.54296875 -61.34765625 6.54296875 -60.47265625 3.79296875 C-53.35077295 -1.90453789 -46.32497017 -1.85161721 -37.47265625 -1.20703125 C-34.82190844 -0.46688738 -32.88959455 0.44397993 -30.47265625 1.79296875 C-29.42078125 0.86484375 -29.42078125 0.86484375 -28.34765625 -0.08203125 C-19.33636422 -6.74255145 -9.18385422 -5.54720607 0 0 Z " fill="#F3D40B" transform="translate(722.47265625,44.20703125)"/>
<path d="M0 0 C0.77059753 0.02692932 1.54119507 0.05385864 2.33514404 0.081604 C4.58088694 0.17772344 6.81715758 0.32033543 9.05859375 0.48828125 C10.07851158 0.54915169 10.07851158 0.54915169 11.11903381 0.61125183 C14.82673583 0.9822867 16.56180308 1.68692753 19.46899414 4.07495117 C21.5625 6.6875 21.5625 6.6875 22.5625 9.6875 C24.55275966 11.22195196 24.55275966 11.22195196 26.9375 12.625 C30.2468362 14.64617439 32.39695197 16.45314923 34.5625 19.6875 C33.5725 21.3375 32.5825 22.9875 31.5625 24.6875 C28.97263697 22.68960566 26.64972178 20.7879372 24.5 18.3125 C16.58187521 11.23672891 7.50012227 8.50742117 -2.875 8.3125 C-3.62587891 8.27511719 -4.37675781 8.23773438 -5.15039062 8.19921875 C-9.27074902 8.1339888 -10.92249777 8.28275377 -14.265625 10.91015625 C-16.20613997 13.39164212 -18.04892726 15.84949131 -19.75 18.5 C-20.26175781 19.29019531 -20.77351562 20.08039063 -21.30078125 20.89453125 C-21.67589844 21.48621094 -22.05101562 22.07789063 -22.4375 22.6875 C-27.1875 20.8125 -27.1875 20.8125 -29.4375 19.6875 C-30.12734145 13.87948008 -27.46260429 9.82416145 -24.10913086 5.39135742 C-17.57773461 -1.31746831 -8.68278908 -0.36032206 0 0 Z " fill="#F3F4F4" transform="translate(559.4375,330.3125)"/>
<path d="M0 0 C2.4375 1.6875 2.4375 1.6875 4.4375 4.6875 C5.20137713 9.3507034 4.86784926 12.85754072 2.6875 17.0625 C-1.95535714 22.47916667 -1.95535714 22.47916667 -6.9375 23.125 C-12.12548324 22.49886409 -14.96611629 20.44352208 -18.4375 16.625 C-20.21030442 11.99601067 -20.32110754 7.56962773 -19.5625 2.6875 C-15.32553111 -3.59490215 -6.35385313 -2.34089326 0 0 Z " fill="#0B0D0D" transform="translate(685.5625,51.3125)"/>
<path d="M0 0 C8.03571429 0.80357143 8.03571429 0.80357143 12 3 C12.90156394 17.26474497 12.90156394 17.26474497 8.58203125 23.44921875 C4.56406384 27.3878189 1.13572224 28.43093555 -4.4375 28.4375 C-9.77592474 28.29289256 -13.08668907 27.91331093 -17 24 C-21.13619224 18.33287947 -22.1454902 13.07568686 -22.0625 6.1875 C-22.05347656 5.21167969 -22.04445313 4.23585938 -22.03515625 3.23046875 C-22.02355469 2.49441406 -22.01195312 1.75835937 -22 1 C-21.67 1.66 -21.34 2.32 -21 3 C-20.236875 2.649375 -19.47375 2.29875 -18.6875 1.9375 C-16 1 -16 1 -13 2 C-13.66 2.66 -14.32 3.32 -15 4 C-15.74277996 9.28582948 -15.61264034 13.75283931 -13.25 18.5625 C-9.96783669 22.11817692 -8.37598226 22.84989284 -3.5625 23.375 C0.62750939 22.93394638 2.093893 21.98913863 5 19 C7.51665832 14.79673909 7.73225482 10.79053454 7 6 C4.91286153 3.19315861 2.91823611 1.94549074 0 0 Z " fill="#F3F3EF" transform="translate(682,50)"/>
<path d="M0 0 C4.5355862 2.48336279 8.24885362 5.62163242 12.125 9 C12.74503906 9.53367187 13.36507812 10.06734375 14.00390625 10.6171875 C15.68062703 12.06673966 17.35400187 13.5156392 19 15 C19.84389282 15.758573 19.84389282 15.758573 20.70483398 16.5324707 C22 18 22 18 21.90234375 20.29296875 C20.80969633 23.57091101 19.31215727 26.33335383 17.5625 29.3125 C16.94503906 30.38113281 16.32757812 31.44976562 15.69140625 32.55078125 C15.13324219 33.35902344 14.57507813 34.16726563 14 35 C13.34 35 12.68 35 12 35 C10.28692579 30.33840312 8.57803719 25.67530186 6.87304688 21.01074219 C6.29217106 19.42340482 5.71014411 17.83648823 5.12695312 16.25 C4.28995194 13.97244574 3.45707244 11.69342126 2.625 9.4140625 C2.36251465 8.70255035 2.1000293 7.99103821 1.82958984 7.25796509 C0 2.22774341 0 2.22774341 0 0 Z " fill="#E0E0E1" transform="translate(570,410)"/>
<path d="M0 0 C5.87587986 3.3515849 10.86489515 7.62565143 16 12 C17.14082031 12.93972656 17.14082031 12.93972656 18.3046875 13.8984375 C21.3896967 16.63653804 22.88322589 18.00742009 23.375 22.1875 C21.89405446 27.90159076 18.10846663 33.05729457 15 38 C14.34 37.67 13.68 37.34 13 37 C14.51813668 32.72161482 16.70580967 29.03309244 19.07421875 25.18359375 C20.1286892 23.09737788 20.1286892 23.09737788 19.98828125 21.05859375 C18.48790334 17.93330064 16.05547678 15.8846246 13.5 13.625 C12.96407227 13.14184326 12.42814453 12.65868652 11.87597656 12.16088867 C7.53718963 8.31831339 2.97760949 4.97902386 -2 2 C-1.34 1.34 -0.68 0.68 0 0 Z " fill="#151616" transform="translate(571,408)"/>
<path d="M0 0 C4.25704518 0.91636667 7.59459962 2.96029536 11.25 5.25 C11.94512695 5.683125 12.64025391 6.11625 13.35644531 6.5625 C19.52787617 10.50866863 25.18072235 14.98276143 30.77050781 19.70800781 C31.39795898 20.23749023 32.02541016 20.76697266 32.671875 21.3125 C33.49316895 22.01826172 33.49316895 22.01826172 34.33105469 22.73828125 C36.13024599 24.09846566 37.9579645 25.05187234 40 26 C39.505 27.485 39.505 27.485 39 29 C37.859375 28.14453125 36.71875 27.2890625 35.578125 26.43359375 C34.47887695 25.60964111 34.47887695 25.60964111 33.35742188 24.76904297 C31.82100727 23.61609555 30.28579005 22.46155023 28.75195312 21.30517578 C15.82367875 11.55482312 15.82367875 11.55482312 1.95703125 3.234375 C1.31121094 2.82703125 0.66539062 2.4196875 0 2 C0 1.34 0 0.68 0 0 Z " fill="#212122" transform="translate(564,389)"/>
<path d="M0 0 C3.91526699 1.99799707 7.23067419 4.66499972 10.625 7.4375 C11.56601562 8.19933594 12.50703125 8.96117187 13.4765625 9.74609375 C15.68107015 11.71513541 17.34761302 13.56577891 19 16 C14.52557443 15.13292888 11.83312722 12.57266353 8.5 9.625 C7.36541642 8.63706327 6.23001951 7.65005971 5.09375 6.6640625 C4.56265625 6.20161133 4.0315625 5.73916016 3.484375 5.26269531 C1.71530917 3.7578255 -0.1159517 2.35762304 -2 1 C-1.34 0.67 -0.68 0.34 0 0 Z " fill="#1C1D1D" transform="translate(571,408)"/>
<path d="M0 0 C1.2065625 0.0309375 1.2065625 0.0309375 2.4375 0.0625 C2.81968767 1.71864657 3.15145102 3.38707024 3.4375 5.0625 C2.4375 6.0625 2.4375 6.0625 -0.125 6.125 C-1.3315625 6.0940625 -1.3315625 6.0940625 -2.5625 6.0625 C-2.94468767 4.40635343 -3.27645102 2.73792976 -3.5625 1.0625 C-2.5625 0.0625 -2.5625 0.0625 0 0 Z " fill="#F1F1F1" transform="translate(674.5625,54.9375)"/>
<path d="M0 0 C3.98363358 1.32787786 6.10630834 3.00985195 9 6 C9.99 6.33 10.98 6.66 12 7 C11.67 7.99 11.34 8.98 11 10 C10.45730469 9.59007812 9.91460938 9.18015625 9.35546875 8.7578125 C8.64003906 8.21898437 7.92460938 7.68015625 7.1875 7.125 C6.47980469 6.59132813 5.77210938 6.05765625 5.04296875 5.5078125 C3.39543703 4.29185219 1.70375789 3.13583859 0 2 C0 1.34 0 0.68 0 0 Z " fill="#1D1D1E" transform="translate(592,408)"/>
<path d="M0 0 C0 0.33 0 0.66 0 1 C-1.258125 1.103125 -2.51625 1.20625 -3.8125 1.3125 C-7.13957417 1.69609156 -7.13957417 1.69609156 -9.875 3.5625 C-10.24625 4.036875 -10.6175 4.51125 -11 5 C-11.66 5 -12.32 5 -13 5 C-10.04964557 -1.80851023 -6.4752192 -1.06151134 0 0 Z " fill="#272828" transform="translate(556,339)"/>
<path d="M0 0 C0.66 0.33 1.32 0.66 2 1 C-2.455 3.97 -2.455 3.97 -7 7 C-7.33 6.34 -7.66 5.68 -8 5 C-6.35197949 1.70395897 -3.32254422 1.22409524 0 0 Z " fill="#262627" transform="translate(420,181)"/>
<path d="M0 0 C2.86724686 0.57344937 3.8614515 0.8614515 6 3 C6 4.32 6 5.64 6 7 C5.34 7 4.68 7 4 7 C2.50475822 4.7272325 1.21600285 2.4320057 0 0 Z " fill="#0C0C0C" transform="translate(588,424)"/>
</svg>
