<?xml version="1.0" encoding="UTF-8"?>
<svg version="1.1" xmlns="http://www.w3.org/2000/svg" width="552" height="278">
<path d="M0 0 C4.33181153 3.69748075 6.98136116 7.59995011 9.0625 12.875 C10.45058906 16.35858637 10.45058906 16.35858637 13.5625 18.4375 C14.696875 18.623125 15.83125 18.80875 17 19 C17.93457031 19.17917969 18.86914062 19.35835937 19.83203125 19.54296875 C22.55002773 20.06284227 25.27075978 20.54350786 28 21 C28.33 21.99 28.66 22.98 29 24 C27.0429132 24.67031719 25.08428887 25.33614683 23.125 26 C22.03445313 26.37125 20.94390625 26.7425 19.8203125 27.125 C17 28 17 28 15 28 C14.58427734 28.83724609 14.58427734 28.83724609 14.16015625 29.69140625 C13.36785548 31.26800475 12.56254477 32.83811517 11.74609375 34.40234375 C11.09833984 35.65724609 11.09833984 35.65724609 10.4375 36.9375 C10.00308594 37.77152344 9.56867188 38.60554688 9.12109375 39.46484375 C7.31759232 43.54314489 6.51756754 45.72888102 8.14453125 50.015625 C8.69496094 51.08296875 9.24539063 52.1503125 9.8125 53.25 C15.41170404 64.87711744 17.59728531 78.30637829 13.4375 90.875 C3.47902057 113.90612253 -20.23266944 130.05998438 -42.80078125 139.125 C-46.81496117 140.52827634 -50.7709885 141.45781904 -55 142 C-54.34 142.556875 -53.68 143.11375 -53 143.6875 C-51 146 -51 146 -50.6875 148.5 C-51 151 -51 151 -51.62109375 152.81689453 C-52.44634676 157.57167057 -49.64678775 162.47833809 -48 166.875 C-47.62488281 167.95136719 -47.24976563 169.02773437 -46.86328125 170.13671875 C-44.61564738 176.19263592 -42.64437313 179.90388884 -37.44042969 183.75537109 C-36 185 -36 185 -35.1328125 187.7109375 C-35.13023437 188.59007812 -35.12765625 189.46921875 -35.125 190.375 C-34.92767963 199.93094366 -33.05218556 207.23893159 -29.60419846 216.17516136 C-28.82251694 218.20278061 -28.05280516 220.23459473 -27.28604126 222.26789856 C-25.10582154 228.04251907 -22.90301606 233.80846376 -20.69628906 239.57299805 C-19.34244042 243.11201028 -18.00087541 246.65548919 -16.66637039 250.20183754 C-15.9098383 252.2003515 -15.13898835 254.19295473 -14.36776733 256.18583679 C-13.9104422 257.40092422 -13.45311707 258.61601166 -12.98193359 259.86791992 C-12.57413666 260.93411057 -12.16633972 262.00030121 -11.7461853 263.09880066 C-10.94427066 266.216678 -10.99635354 267.96331688 -12 271 C-15.45213933 273.54279531 -19.43576637 274 -23.625 274 C-28.72796578 272.48801014 -31.79185692 270.21917513 -34.31982422 265.57568359 C-35.68185575 262.47667627 -36.91906189 259.35055669 -38.125 256.1875 C-38.58366455 255.0221875 -39.0423291 253.856875 -39.51489258 252.65625 C-40.76314599 249.46489122 -41.9933736 246.26785777 -43.21258545 243.06536865 C-44.02836695 240.92559419 -44.84981354 238.78806007 -45.67236328 236.65087891 C-47.35602221 232.2717578 -49.02512339 227.88723956 -50.6875 223.5 C-50.95556458 222.79483246 -51.22362915 222.08966492 -51.49981689 221.36312866 C-52.25945165 219.35874354 -53.01183109 217.35179902 -53.76171875 215.34375 C-54.19444092 214.19068359 -54.62716309 213.03761719 -55.07299805 211.84960938 C-56 209 -56 209 -56 206 C-57.1446875 205.8453125 -57.1446875 205.8453125 -58.3125 205.6875 C-61.27921598 204.92857266 -62.22365253 204.44920636 -64 202 C-63.86328125 199.6796875 -63.86328125 199.6796875 -63.3125 196.875 C-62.41859827 188.42916984 -64.69251643 180.29998922 -69 173 C-72.27914287 169.51525171 -75.85297955 167.33672784 -80 165 C-82.13416444 163.59717728 -84.25926477 162.18046631 -86.375 160.75 C-87.80972656 159.81414062 -87.80972656 159.81414062 -89.2734375 158.859375 C-96.78082192 153.73972603 -96.78082192 153.73972603 -98 149.625 C-98 145.54120736 -97.02770253 143.48764835 -95 140 C-95 139.34 -95 138.68 -95 138 C-96.02738281 137.63648438 -97.05476562 137.27296875 -98.11328125 136.8984375 C-118.81214463 129.44213955 -118.81214463 129.44213955 -124.0078125 123.83203125 C-128.92188423 120.82328498 -134.05675036 121.63659856 -139.6875 121.8125 C-142.20827323 121.85172998 -144.72911439 121.88678519 -147.25 121.91796875 C-148.53390625 121.93649902 -149.8178125 121.9550293 -151.140625 121.97412109 C-157.16263978 122.01450151 -163.17010719 121.84602573 -169.1875 121.625 C-170.24219482 121.5938208 -171.29688965 121.5626416 -172.38354492 121.53051758 C-178.47970277 121.29655931 -184.13992163 120.75981924 -190 119 C-190.33 118.01 -190.66 117.02 -191 116 C-186.79510146 108.82407276 -178.8365432 103.4816186 -172 99 C-171.34 99 -170.68 99 -170 99 C-170 98.34 -170 97.68 -170 97 C-170.73049561 96.73429199 -171.46099121 96.46858398 -172.21362305 96.19482422 C-174.98580074 95.00608877 -177.14374746 93.64742453 -179.58203125 91.8828125 C-180.43216797 91.27566406 -181.28230469 90.66851562 -182.15820312 90.04296875 C-183.91632679 88.77256593 -185.67414346 87.50173814 -187.43164062 86.23046875 C-188.71264648 85.31587891 -188.71264648 85.31587891 -190.01953125 84.3828125 C-190.78370361 83.82996582 -191.54787598 83.27711914 -192.33520508 82.70751953 C-199.41175271 78.17308306 -206.62375328 75.73652746 -214.69921875 73.50390625 C-215.81126175 73.18848373 -216.92330475 72.87306122 -218.06904602 72.54808044 C-221.60644684 71.54532081 -225.14662141 70.55290322 -228.6875 69.5625 C-264.00655556 59.6622963 -264.00655556 59.6622963 -271 55 C-271.1875 51.875 -271.1875 51.875 -271 49 C-260.16979876 42.03042757 -234.68485147 51.98291844 -222.44561768 54.3503418 C-219.72241032 54.87595895 -216.99832528 55.39693335 -214.27418137 55.9176712 C-202.70880056 58.12893098 -191.14663614 60.35371589 -179.60644531 62.69335938 C-178.92411898 62.83135578 -178.24179264 62.96935219 -177.53878975 63.1115303 C-174.29500831 63.76788988 -171.05226732 64.4284686 -167.81088257 65.09661865 C-158.53672328 66.98164383 -149.5344867 68.17922752 -140.0625 68.1875 C-139.32837891 68.19974609 -138.59425781 68.21199219 -137.83789062 68.22460938 C-127.39325182 68.25192752 -119.88471419 65.83185775 -111.0625 60.3125 C-102.09012254 54.94729317 -93.20496469 51.04214015 -83.30078125 47.76464844 C-80.17726298 46.72656915 -77.07471584 45.6322112 -73.97167969 44.53466797 C-72.54694267 44.03146964 -71.12063164 43.53269317 -69.69238281 43.03955078 C-65.36015273 41.534614 -61.11846416 40.01508713 -57 38 C-55.56968148 34.73070053 -55.12815943 31.96193226 -54.66015625 28.44921875 C-53.09212799 17.89116178 -48.63188087 10.60399602 -40.44140625 3.7578125 C-28.80846271 -4.61790685 -12.81625097 -8.13912182 0 0 Z M-78 153 C-77.67 153.66 -77.34 154.32 -77 155 C-76.34 154.67 -75.68 154.34 -75 154 C-75.99 153.67 -76.98 153.34 -78 153 Z " fill="#F9D905" transform="translate(310,4)"/>
<path d="M0 0 C3.0625 2.5625 3.0625 2.5625 5 5 C5 5.99 5 6.98 5 8 C2.50638429 6.79618552 0.31856917 5.54571278 -2 4 C-2.33 4.66 -2.66 5.32 -3 6 C-4.98 4.68 -6.96 3.36 -9 2 C-8.67 2.99 -8.34 3.98 -8 5 C-7.34 5.33 -6.68 5.66 -6 6 C-6.33 6.66 -6.66 7.32 -7 8 C-9.97 7.01 -12.94 6.02 -16 5 C-15.01 5.99 -14.02 6.98 -13 8 C-12 9 -11 10 -10 11 C-10.89203125 11.09796875 -11.7840625 11.1959375 -12.703125 11.296875 C-13.87359375 11.44640625 -15.0440625 11.5959375 -16.25 11.75 C-17.99023438 11.95882813 -17.99023438 11.95882813 -19.765625 12.171875 C-23.34645095 13.08870483 -24.68714518 14.18335502 -27 17 C-25.88625 16.2575 -25.88625 16.2575 -24.75 15.5 C-20.56652749 13.34305374 -16.29454015 13.86479614 -11.70703125 14.08984375 C-8.77500986 14.23046977 -8.77500986 14.23046977 -6 12 C-1.51253034 11.7520735 2.03728676 12.22513324 5.5625 15.0625 C6.2740625 16.0215625 6.2740625 16.0215625 7 17 C6.67 17.99 6.34 18.98 6 20 C0.93437617 20.25328119 -3.15758367 19.33583899 -8 18 C-8.0825 19.258125 -8.165 20.51625 -8.25 21.8125 C-8.61959826 24.63443265 -8.79697771 25.75012641 -10.625 28 C-13.94486236 29.39783678 -16.43330664 29.38214572 -20 29 C-22.4375 27.5 -22.4375 27.5 -24 26 C-24.1546875 27.3303125 -24.1546875 27.3303125 -24.3125 28.6875 C-25.01848778 32.08907749 -25.99310046 34.19034065 -28 37 C-28.99 37.495 -28.99 37.495 -30 38 C-29.5206753 42.31392226 -28.2542015 44.16569547 -25 47 C-25.33 47.99 -25.66 48.98 -26 50 C-39.81776765 50.55353075 -39.81776765 50.55353075 -45 47 C-45.33 47.33 -45.66 47.66 -46 48 C-45.34773437 48.46148437 -44.69546875 48.92296875 -44.0234375 49.3984375 C-36.74496843 54.83045129 -30.85990789 60.09485131 -29.5 69.43359375 C-29.20680514 77.94540708 -30.24291171 84.53278073 -35.77734375 91.11328125 C-47.0075862 102.21804613 -63.1376019 104.84184103 -78 108 C-78.88606934 108.18836426 -79.77213867 108.37672852 -80.68505859 108.57080078 C-84.02008691 109.27606209 -87.35484001 109.98125749 -90.69604492 110.65673828 C-94.08405388 111.34703431 -97.3601067 112.10539708 -100.68359375 113.078125 C-103.76956103 113.93594394 -106.5015505 114.35365812 -109.6875 114.5625 C-114.11977592 114.86441743 -114.11977592 114.86441743 -118.54589844 115.24291992 C-126.66515626 116.00146885 -134.72301132 116.18335352 -142.875 116.1875 C-144.76412109 116.20586914 -144.76412109 116.20586914 -146.69140625 116.22460938 C-167.48666432 116.25666784 -167.48666432 116.25666784 -174 113 C-174 112.34 -174 111.68 -174 111 C-168.72380668 108.91968162 -163.72701988 108.45487307 -158.1328125 108.03515625 C-157.18042694 107.95631699 -156.22804138 107.87747772 -155.24679565 107.79624939 C-151.19992091 107.46125825 -147.1517859 107.14305988 -143.10351562 106.82543945 C-120.14642912 105.0274904 -120.14642912 105.0274904 -98 99 C-99.21816406 99.27714844 -100.43632812 99.55429688 -101.69140625 99.83984375 C-103.31507188 100.20587242 -104.93877162 100.5717498 -106.5625 100.9375 C-107.76229492 101.21110352 -107.76229492 101.21110352 -108.98632812 101.49023438 C-109.77587891 101.66748047 -110.56542969 101.84472656 -111.37890625 102.02734375 C-112.0963501 102.18968506 -112.81379395 102.35202637 -113.55297852 102.51928711 C-121.44187318 104.06904602 -129.18314263 104.18617803 -137.18774414 104.18530273 C-139.42809004 104.18749081 -141.66794392 104.20569283 -143.90820312 104.22460938 C-145.35416501 104.22754399 -146.8001292 104.22952833 -148.24609375 104.23046875 C-149.54216553 104.23457764 -150.8382373 104.23868652 -152.17358398 104.24291992 C-156.38472797 103.97557555 -159.9464813 103.13647163 -164 102 C-164 101.01 -164 100.02 -164 99 C-157.54641253 96.29968314 -151.39781902 95.76012637 -144.5 95.5625 C-126.64916289 94.95631428 -110.87784823 90.10732554 -95 82 C-96.2065625 82.42925781 -97.413125 82.85851562 -98.65625 83.30078125 C-114.77815356 88.65690585 -131.98489974 92.31259345 -149 91 C-148.92578125 89.28515625 -148.92578125 89.28515625 -148 87 C-145.74830978 85.31924287 -143.58788207 83.86807947 -141.1875 82.4375 C-139.93020146 81.66664859 -138.67367086 80.894543 -137.41796875 80.12109375 C-136.85875732 79.7852124 -136.2995459 79.44933105 -135.72338867 79.10327148 C-133.73677183 77.83148773 -131.87245939 76.43332582 -130 75 C-130.52843506 75.3081665 -131.05687012 75.61633301 -131.60131836 75.93383789 C-134.03366798 77.33424946 -136.48471654 78.6982191 -138.9375 80.0625 C-140.18370117 80.79049805 -140.18370117 80.79049805 -141.45507812 81.53320312 C-147.46019453 84.82783897 -151.3549763 85.59674289 -158 84 C-158.76578369 83.83298584 -159.53156738 83.66597168 -160.32055664 83.49389648 C-162.74790671 82.93623836 -165.15388274 82.32094131 -167.5625 81.6875 C-169.1679142 81.27452745 -170.77338505 80.86177511 -172.37890625 80.44921875 C-173.7088562 80.10298462 -173.7088562 80.10298462 -175.06567383 79.74975586 C-177.09820969 79.23041834 -179.13487577 78.72708171 -181.17456055 78.23657227 C-194.11966447 75.10172301 -206.90406573 71.39740794 -219.70043945 67.7097168 C-223.0263933 66.75151902 -226.35456537 65.80128319 -229.68335247 64.85298252 C-232.91932891 63.92940044 -236.15285338 62.99735273 -239.38671875 62.06640625 C-240.55998215 61.73290665 -241.73324554 61.39940704 -242.94206238 61.05580139 C-264.06578269 54.93421731 -264.06578269 54.93421731 -268 51 C-268 50.01 -268 49.02 -268 48 C-259.30267874 47.68421977 -251.29257895 48.56751095 -242.765625 50.23046875 C-241.52995789 50.46276688 -240.29429077 50.695065 -239.0211792 50.93440247 C-235.75410417 51.55097511 -232.48915169 52.17705697 -229.22479248 52.80773926 C-225.98360737 53.43103253 -222.73966997 54.03968316 -219.49609375 54.65039062 C-205.65296305 57.26954976 -191.84275391 60.02285402 -178.05932617 62.93969727 C-143.5518169 70.74063713 -143.5518169 70.74063713 -110.625 61.8125 C-109.7484375 61.2040625 -108.871875 60.595625 -107.96875 59.96875 C-99.25253692 54.18852448 -89.76601907 49.95787216 -79.71875 47.12890625 C-74.67265089 45.59705473 -69.75000698 43.78609862 -64.8125 41.9375 C-63.87833252 41.59654297 -62.94416504 41.25558594 -61.98168945 40.90429688 C-61.10730225 40.57365234 -60.23291504 40.24300781 -59.33203125 39.90234375 C-58.15217651 39.46136353 -58.15217651 39.46136353 -56.94848633 39.01147461 C-54.6696171 38.02758011 -54.6696171 38.02758011 -53 35 C-52.50641285 32.4350587 -52.07867909 29.89239821 -51.6875 27.3125 C-50.60595104 20.91542024 -49.14914356 16.12077844 -45 11 C-44.443125 10.154375 -43.88625 9.30875 -43.3125 8.4375 C-32.19837934 -3.27738394 -14.61682072 -9.60003055 0 0 Z " fill="#B7B8BB" transform="translate(309,6)"/>
<path d="M0 0 C4.33181153 3.69748075 6.98136116 7.59995011 9.0625 12.875 C10.45058906 16.35858637 10.45058906 16.35858637 13.5625 18.4375 C14.696875 18.623125 15.83125 18.80875 17 19 C17.93457031 19.17917969 18.86914062 19.35835937 19.83203125 19.54296875 C22.55002773 20.06284227 25.27075978 20.54350786 28 21 C28.33 21.99 28.66 22.98 29 24 C27.0429132 24.67031719 25.08428887 25.33614683 23.125 26 C22.03445313 26.37125 20.94390625 26.7425 19.8203125 27.125 C17 28 17 28 15 28 C14.58427734 28.83724609 14.58427734 28.83724609 14.16015625 29.69140625 C13.36785548 31.26800475 12.56254477 32.83811517 11.74609375 34.40234375 C11.09833984 35.65724609 11.09833984 35.65724609 10.4375 36.9375 C10.00308594 37.77152344 9.56867188 38.60554688 9.12109375 39.46484375 C7.31759232 43.54314489 6.51756754 45.72888102 8.14453125 50.015625 C8.69496094 51.08296875 9.24539063 52.1503125 9.8125 53.25 C15.41170404 64.87711744 17.59728531 78.30637829 13.4375 90.875 C3.47902057 113.90612253 -20.23266944 130.05998438 -42.80078125 139.125 C-46.81496117 140.52827634 -50.7709885 141.45781904 -55 142 C-54.67 143.32 -54.34 144.64 -54 146 C-55.9375 145.25 -55.9375 145.25 -58 144 C-58.62890625 141.921875 -58.62890625 141.921875 -59 140 C-58.00742188 139.79246094 -57.01484375 139.58492187 -55.9921875 139.37109375 C-30.17978139 133.64815478 -6.33384305 117.32472735 8 95 C12.89920705 86.68369895 12.41693525 78.33471705 12 69 C8.58891654 73.45543108 7.53014107 76.3481553 7.4375 81.9375 C7.17811945 87.39601958 6.9526415 91.36013478 4 96 C1.3125 97.4375 1.3125 97.4375 -1 98 C-1.46871882 94.36742917 -0.70704428 92.34552043 1 89.25 C4.34045699 82.34560475 3.30877205 74.4705683 3 67 C-0.0207344 69.46557241 -0.42999576 71.31532957 -0.875 75.125 C-1.65453224 80.13250373 -3.20246941 83.62572425 -5.82421875 87.91796875 C-7.48594329 90.86049094 -8.23264521 93.72130228 -9 97 C-10.65 97.33 -12.3 97.66 -14 98 C-14.46866343 93.40709839 -14.45332177 91.57382502 -11.53125 87.875 C-8.23600451 83.49089078 -8.22404045 79.40146639 -8.1875 74.0625 C-8.14979492 72.75055664 -8.14979492 72.75055664 -8.11132812 71.41210938 C-8.05294303 69.27521492 -8.0234897 67.13756286 -8 65 C-8.66 65 -9.32 65 -10 65 C-11.40668331 67.751124 -12.6677306 70.53143158 -13.875 73.375 C-15.14076578 76.27156514 -16.37997786 78.55368203 -18.1875 81.1875 C-20.14148311 84.21954275 -20.6610357 86.4408749 -21 90 C-22.65 90 -24.3 90 -26 90 C-26.8125 87.9375 -26.8125 87.9375 -27 85 C-25.89740605 83.1432318 -24.60465907 81.51875249 -23.27734375 79.81640625 C-19.8704592 74.97175391 -19.60319949 68.73039518 -19 63 C-24.60332217 65.09591149 -24.60332217 65.09591149 -29 69 C-32.74677808 67.54911998 -33.841059 65.91004874 -35.625 62.375 C-38.96927207 56.44495057 -43.50437318 52.88821028 -49 49 C-48.01 48.67 -47.02 48.34 -46 48 C-45.21625 48.474375 -44.4325 48.94875 -43.625 49.4375 C-38.18066293 51.78419701 -32.84853001 51.23428829 -27 51 C-28.08352711 48.72885148 -29.054467 46.93544652 -30.6875 45 C-32 43 -32 43 -31.875 40.9375 C-31 39 -31 39 -29.55078125 37.640625 C-27.78494829 35.77248938 -27.14479098 34.23010714 -26.3125 31.8125 C-26.06113281 31.09707031 -25.80976563 30.38164063 -25.55078125 29.64453125 C-25.36902344 29.10183594 -25.18726563 28.55914062 -25 28 C-24.484375 28.33 -23.96875 28.66 -23.4375 29 C-20.15552906 30.34644962 -17.51567217 30.25568525 -14 30 C-10.70077803 27.80051868 -10.57190099 27.49675855 -9.8125 23.875 C-9.544375 22.59625 -9.27625 21.3175 -9 20 C-3.25 19.875 -3.25 19.875 -1 21 C0.99960012 21.039992 3.00047242 21.04346799 5 21 C4.05275873 18.63189682 3.34708866 17.24792047 1.25 15.75 C-1.65519064 14.78160312 -3.95279093 14.74606591 -7 15 C-7.61230469 15.33773438 -8.22460938 15.67546875 -8.85546875 16.0234375 C-11.54188248 17.24675887 -13.38231514 17.06564852 -16.3125 16.875 C-21.83682923 16.73467613 -24.45686979 18.00346731 -29 21 C-29.66 20.67 -30.32 20.34 -31 20 C-25.19608668 13.93227244 -20.25660344 12.78634319 -12 12 C-13.98 10.68 -15.96 9.36 -18 8 C-17.67 7.34 -17.34 6.68 -17 6 C-14.03 6.99 -11.06 7.98 -8 9 C-8.33 8.67 -8.66 8.34 -9 8 C-9.36162029 6.67405895 -9.69728039 5.34061543 -10 4 C-9.401875 4.33 -8.80375 4.66 -8.1875 5 C-5.94613529 6.20787988 -5.94613529 6.20787988 -3 6 C-0.44137136 7.11940003 1.66181022 8.44120681 4 10 C1.3887578 5.0523832 -1.4880489 1.99833954 -6.7421875 -0.08984375 C-14.86245764 -2.35845639 -23.60510618 -2.09730507 -31.109375 1.86328125 C-32.04523438 2.42595703 -32.04523438 2.42595703 -33 3 C-34.0725 3.639375 -35.145 4.27875 -36.25 4.9375 C-44.26036607 10.94527455 -49.93905077 17.95749216 -51.453125 28.0078125 C-51.72506962 30.0574692 -51.96941477 32.11107015 -52.1796875 34.16796875 C-53.27324269 37.94333787 -55.06038216 39.41889071 -58 42 C-60.90332031 43.43798828 -60.90332031 43.43798828 -64.078125 44.5703125 C-65.82029297 45.20259766 -65.82029297 45.20259766 -67.59765625 45.84765625 C-68.80292969 46.26917969 -70.00820312 46.69070312 -71.25 47.125 C-72.43980469 47.55425781 -73.62960938 47.98351563 -74.85546875 48.42578125 C-79.8318121 50.21286588 -84.81566267 51.95096876 -89.8515625 53.5625 C-94.13566881 54.97704478 -98.10862996 56.8313068 -102.125 58.875 C-102.78886719 59.20113281 -103.45273438 59.52726562 -104.13671875 59.86328125 C-107.5158495 61.5627658 -110.57661381 63.36364212 -113.59765625 65.64453125 C-125.89470608 74.67485211 -147.2133265 71.74570892 -161.5 69.7421875 C-167.2047512 68.85206679 -172.82059743 67.58669607 -178.44970703 66.31201172 C-189.61107219 63.80458065 -200.83553744 61.62863561 -212.0625 59.4375 C-213.02956879 59.24799774 -213.99663757 59.05849548 -214.99301147 58.86325073 C-225.64265156 56.77720156 -236.30006329 54.73502573 -246.97265625 52.76953125 C-247.87154068 52.60214951 -248.77042511 52.43476776 -249.69654846 52.26231384 C-256.11920156 51.09080093 -262.46939021 50.27555316 -269 50 C-267.99340099 53.05983223 -267.18803421 53.90168168 -264.2890625 55.41748047 C-251.94340782 59.88093478 -239.37844683 63.50812798 -226.74609375 67.06884766 C-223.00574297 68.12338086 -219.26831238 69.1877847 -215.53125 70.25390625 C-204.51403778 73.38673177 -193.49809469 76.4708405 -182.36767578 79.17675781 C-179.04409679 79.98922036 -175.73889337 80.85466148 -172.43359375 81.73828125 C-171.43392578 82.00060547 -170.43425781 82.26292969 -169.40429688 82.53320312 C-167.38872294 83.0626396 -165.37575247 83.60206751 -163.36523438 84.15039062 C-153.56207721 86.68910778 -147.82605422 85.31987926 -139.1875 80.375 C-137.68501619 79.52151807 -136.17867748 78.67477488 -134.66796875 77.8359375 C-134.01078857 77.46001465 -133.3536084 77.0840918 -132.67651367 76.69677734 C-132.12326416 76.46684082 -131.57001465 76.2369043 -131 76 C-130.34 76.33 -129.68 76.66 -129 77 C-129.49927002 77.32274902 -129.99854004 77.64549805 -130.51293945 77.97802734 C-132.77960102 79.44346634 -135.04605266 80.90922969 -137.3125 82.375 C-138.09818359 82.88289063 -138.88386719 83.39078125 -139.69335938 83.9140625 C-140.45068359 84.40390625 -141.20800781 84.89375 -141.98828125 85.3984375 C-142.68477783 85.84880371 -143.38127441 86.29916992 -144.09887695 86.76318359 C-147.99384613 89.06987169 -147.99384613 89.06987169 -150 93 C-139.18436198 92.96909818 -128.94848699 91.39113985 -118.375 89.125 C-117.16618164 88.86831543 -115.95736328 88.61163086 -114.71191406 88.34716797 C-107.62214447 86.79164193 -107.62214447 86.79164193 -100.8515625 84.2421875 C-98 83 -98 83 -95 84 C-103.79885499 88.69624045 -112.30647075 92.44594511 -122 95 C-122.99 95.28746094 -123.98 95.57492188 -125 95.87109375 C-132.60760028 97.89914025 -139.977204 98.37859003 -147.80200195 98.65478516 C-153.72884401 98.87714864 -159.22869917 99.55717479 -165 101 C-165 101.99 -165 102.98 -165 104 C-157.07837665 105.27568999 -149.12836346 105.2404218 -141.125 105.25 C-140.39099976 105.25167175 -139.65699951 105.25334351 -138.90075684 105.25506592 C-120.71889879 105.41752656 -120.71889879 105.41752656 -103.296875 100.8359375 C-100.70315799 99.89196566 -99.5484066 100.0561457 -97 101 C-116.22384491 108.57575197 -136.74567816 109.36759336 -157.14355469 110.99853516 C-157.88236877 111.0581543 -158.62118286 111.11777344 -159.38238525 111.17919922 C-161.4064157 111.34154938 -163.43073867 111.50024074 -165.45507812 111.65869141 C-168.67522239 111.96873009 -171.81815454 112.42287653 -175 113 C-175 113.66 -175 114.32 -175 115 C-154.93138276 118.59055133 -133.74606911 118.09567169 -113.58984375 115.4375 C-110.66851973 115.08147357 -107.93452273 114.90847492 -105 115 C-108.8038467 117.30232826 -112.93802837 117.87840421 -117.25 118.625 C-117.99507812 118.7590625 -118.74015625 118.893125 -119.5078125 119.03125 C-121.337563 119.35966676 -123.16865754 119.6805798 -125 120 C-114.62427447 127.5606062 -103.22272066 132.25610358 -91 136 C-91.30744141 136.88751953 -91.30744141 136.88751953 -91.62109375 137.79296875 C-92.02521484 138.97826172 -92.02521484 138.97826172 -92.4375 140.1875 C-92.70433594 140.96480469 -92.97117188 141.74210938 -93.24609375 142.54296875 C-94.00426853 145.01391143 -94.51055144 147.46410236 -95 150 C-89.12562528 155.45455218 -82.86351454 159.95662755 -76.1875 164.375 C-68.44698504 169.56602388 -60.99615784 174.82396592 -54 181 C-54.50955477 185.0881521 -55.26175391 187.9533776 -57.5625 191.375 C-58.01753906 192.06335938 -58.47257813 192.75171875 -58.94140625 193.4609375 C-59.29074219 193.96882812 -59.64007813 194.47671875 -60 195 C-62 194 -62 194 -62.69506836 192.08569336 C-62.90784424 191.26206299 -63.12062012 190.43843262 -63.33984375 189.58984375 C-66.91270412 175.86464464 -66.91270412 175.86464464 -77.01953125 166.55859375 C-78.00308594 166.04425781 -78.98664063 165.52992188 -80 165 C-82.1381613 163.6032768 -84.26327908 162.18638581 -86.375 160.75 C-87.80972656 159.81414062 -87.80972656 159.81414062 -89.2734375 158.859375 C-96.78082192 153.73972603 -96.78082192 153.73972603 -98 149.625 C-98 145.54120736 -97.02770253 143.48764835 -95 140 C-95 139.34 -95 138.68 -95 138 C-96.02738281 137.63648438 -97.05476562 137.27296875 -98.11328125 136.8984375 C-118.81214463 129.44213955 -118.81214463 129.44213955 -124.0078125 123.83203125 C-128.92188423 120.82328498 -134.05675036 121.63659856 -139.6875 121.8125 C-142.20827323 121.85172998 -144.72911439 121.88678519 -147.25 121.91796875 C-148.53390625 121.93649902 -149.8178125 121.9550293 -151.140625 121.97412109 C-157.16263978 122.01450151 -163.17010719 121.84602573 -169.1875 121.625 C-170.24219482 121.5938208 -171.29688965 121.5626416 -172.38354492 121.53051758 C-178.47970277 121.29655931 -184.13992163 120.75981924 -190 119 C-190.33 118.01 -190.66 117.02 -191 116 C-186.79510146 108.82407276 -178.8365432 103.4816186 -172 99 C-171.34 99 -170.68 99 -170 99 C-170 98.34 -170 97.68 -170 97 C-170.73049561 96.73429199 -171.46099121 96.46858398 -172.21362305 96.19482422 C-174.98580074 95.00608877 -177.14374746 93.64742453 -179.58203125 91.8828125 C-180.43216797 91.27566406 -181.28230469 90.66851562 -182.15820312 90.04296875 C-183.91632679 88.77256593 -185.67414346 87.50173814 -187.43164062 86.23046875 C-188.71264648 85.31587891 -188.71264648 85.31587891 -190.01953125 84.3828125 C-190.78370361 83.82996582 -191.54787598 83.27711914 -192.33520508 82.70751953 C-199.41175271 78.17308306 -206.62375328 75.73652746 -214.69921875 73.50390625 C-215.81126175 73.18848373 -216.92330475 72.87306122 -218.06904602 72.54808044 C-221.60644684 71.54532081 -225.14662141 70.55290322 -228.6875 69.5625 C-264.00655556 59.6622963 -264.00655556 59.6622963 -271 55 C-271.1875 51.875 -271.1875 51.875 -271 49 C-260.16979876 42.03042757 -234.68485147 51.98291844 -222.44561768 54.3503418 C-219.72241032 54.87595895 -216.99832528 55.39693335 -214.27418137 55.9176712 C-202.70880056 58.12893098 -191.14663614 60.35371589 -179.60644531 62.69335938 C-178.92411898 62.83135578 -178.24179264 62.96935219 -177.53878975 63.1115303 C-174.29500831 63.76788988 -171.05226732 64.4284686 -167.81088257 65.09661865 C-158.53672328 66.98164383 -149.5344867 68.17922752 -140.0625 68.1875 C-139.32837891 68.19974609 -138.59425781 68.21199219 -137.83789062 68.22460938 C-127.39325182 68.25192752 -119.88471419 65.83185775 -111.0625 60.3125 C-102.09012254 54.94729317 -93.20496469 51.04214015 -83.30078125 47.76464844 C-80.17726298 46.72656915 -77.07471584 45.6322112 -73.97167969 44.53466797 C-72.54694267 44.03146964 -71.12063164 43.53269317 -69.69238281 43.03955078 C-65.36015273 41.534614 -61.11846416 40.01508713 -57 38 C-55.56968148 34.73070053 -55.12815943 31.96193226 -54.66015625 28.44921875 C-53.09212799 17.89116178 -48.63188087 10.60399602 -40.44140625 3.7578125 C-28.80846271 -4.61790685 -12.81625097 -8.13912182 0 0 Z " fill="#050504" transform="translate(310,4)"/>
<path d="M0 0 C5.86650163 0.32806095 9.76698181 3.27581313 13.625 7.5625 C13.769375 6.964375 13.91375 6.36625 14.0625 5.75 C14.5122439 4.00099596 15.05392341 2.27572977 15.625 0.5625 C17.625 2.5625 17.625 2.5625 17.8125 4.9375 C17.625 7.5625 17.625 7.5625 17.01171875 9.38720703 C16.16828827 14.13150347 18.981369 19.04926612 20.625 23.4375 C21.00011719 24.51386719 21.37523437 25.59023437 21.76171875 26.69921875 C24.00935262 32.75513592 25.98062687 36.46638884 31.18457031 40.31787109 C32.625 41.5625 32.625 41.5625 33.4921875 44.2734375 C33.49605469 45.59214844 33.49605469 45.59214844 33.5 46.9375 C33.69732037 56.49344366 35.57281444 63.80143159 39.02080154 72.73766136 C39.80248306 74.76528061 40.57219484 76.79709473 41.33895874 78.83039856 C43.51917846 84.60501907 45.72198394 90.37096376 47.92871094 96.13549805 C49.28255958 99.67451028 50.62412459 103.21798919 51.95862961 106.76433754 C52.7151617 108.7628515 53.48601165 110.75545473 54.25723267 112.74833679 C54.94322037 114.57096794 54.94322037 114.57096794 55.64306641 116.43041992 C56.25476181 118.02970589 56.25476181 118.02970589 56.8788147 119.66130066 C57.68072934 122.779178 57.62864646 124.52581688 56.625 127.5625 C53.17286067 130.10529531 49.18923363 130.5625 45 130.5625 C39.89703422 129.05051014 36.83314308 126.78167513 34.30517578 122.13818359 C32.94314425 119.03917627 31.70593811 115.91305669 30.5 112.75 C30.04133545 111.5846875 29.5826709 110.419375 29.11010742 109.21875 C27.86185401 106.02739122 26.6316264 102.83035777 25.41241455 99.62786865 C24.59663305 97.48809419 23.77518646 95.35056007 22.95263672 93.21337891 C21.26897779 88.8342578 19.59987661 84.44973956 17.9375 80.0625 C17.66943542 79.35733246 17.40137085 78.65216492 17.12518311 77.92562866 C16.36554835 75.92124354 15.61316891 73.91429902 14.86328125 71.90625 C14.43055908 70.75318359 13.99783691 69.60011719 13.55200195 68.41210938 C12.625 65.5625 12.625 65.5625 12.625 62.5625 C11.861875 62.459375 11.09875 62.35625 10.3125 62.25 C7.34339688 61.49046199 6.2030299 61.19254984 4.625 58.5625 C4.8125 54.9375 4.8125 54.9375 5.625 51.5625 C6.615 51.0675 6.615 51.0675 7.625 50.5625 C7.295 53.2025 6.965 55.8425 6.625 58.5625 C8.605 59.2225 10.585 59.8825 12.625 60.5625 C12.50125 59.53125 12.3775 58.5 12.25 57.4375 C12.69270231 52.86290943 13.78626294 51.63518921 16.921875 48.53125 C18.625 47.5625 18.625 47.5625 20.66796875 47.77734375 C22.625 48.5625 22.625 48.5625 25.1875 50.625 C27.49745668 52.87362206 27.49745668 52.87362206 30.625 52.5625 C31.42179727 48.82368204 31.70553643 47.15216671 30.625 43.5625 C24.24384185 36.41437572 15.79131353 31.15230381 7.8984375 25.8203125 C-0.22036159 20.22047255 -7.98570504 14.09257462 -15.375 7.5625 C-14.715 5.9125 -14.055 4.2625 -13.375 2.5625 C-12.385 4.0475 -12.385 4.0475 -11.375 5.5625 C-10.385 5.5625 -9.395 5.5625 -8.375 5.5625 C-7.83875 4.7375 -7.3025 3.9125 -6.75 3.0625 C-4.10881524 0.28230552 -3.63910336 0.1404352 0 0 Z M-9.375 9.5625 C-9.045 10.2225 -8.715 10.8825 -8.375 11.5625 C-7.715 11.2325 -7.055 10.9025 -6.375 10.5625 C-7.365 10.2325 -8.355 9.9025 -9.375 9.5625 Z " fill="#0A0A0A" transform="translate(241.375,147.4375)"/>
<path d="M0 0 C0.7005249 0.09699188 1.4010498 0.19398376 2.12280273 0.29391479 C10.06325175 1.4302653 17.9391568 2.92103036 25.8125 4.4453125 C27.28116177 4.72572292 28.74991159 5.00567257 30.21875 5.28515625 C33.75102428 5.95826837 37.28208946 6.63748382 40.8125 7.3203125 C40.8125 8.3103125 40.8125 9.3003125 40.8125 10.3203125 C39.72420898 10.11349854 38.63591797 9.90668457 37.51464844 9.69360352 C33.42302319 8.91774239 29.32990795 8.14999681 25.23632812 7.38452148 C23.47485291 7.05400363 21.71377258 6.72137324 19.953125 6.38647461 C10.25861451 4.54396679 0.69232789 2.798812 -9.1875 2.3203125 C-8.18090099 5.38014473 -7.37553421 6.22199418 -4.4765625 7.73779297 C7.86909218 12.20124728 20.43405317 15.82844048 33.06640625 19.38916016 C36.80675703 20.44369336 40.54418762 21.5080972 44.28125 22.57421875 C55.29846222 25.70704427 66.31440531 28.791153 77.44482422 31.49707031 C80.76840321 32.30953286 84.07360663 33.17497398 87.37890625 34.05859375 C88.37857422 34.32091797 89.37824219 34.58324219 90.40820312 34.85351562 C92.42377706 35.3829521 94.43674753 35.92238001 96.44726562 36.47070312 C106.25042279 39.00942028 111.98644578 37.64019176 120.625 32.6953125 C122.12748381 31.84183057 123.63382252 30.99508738 125.14453125 30.15625 C125.80171143 29.78032715 126.4588916 29.4044043 127.13598633 29.01708984 C127.68923584 28.78715332 128.24248535 28.5572168 128.8125 28.3203125 C129.4725 28.6503125 130.1325 28.9803125 130.8125 29.3203125 C130.31322998 29.64306152 129.81395996 29.96581055 129.29956055 30.29833984 C127.03289898 31.76377884 124.76644734 33.22954219 122.5 34.6953125 C121.71431641 35.20320313 120.92863281 35.71109375 120.11914062 36.234375 C118.9831543 36.96914062 118.9831543 36.96914062 117.82421875 37.71875 C117.12772217 38.16911621 116.43122559 38.61948242 115.71362305 39.08349609 C111.81865387 41.39018419 111.81865387 41.39018419 109.8125 45.3203125 C120.62813802 45.28941068 130.86401301 43.71145235 141.4375 41.4453125 C142.64631836 41.18862793 143.85513672 40.93194336 145.10058594 40.66748047 C152.19035553 39.11195443 152.19035553 39.11195443 158.9609375 36.5625 C161.8125 35.3203125 161.8125 35.3203125 164.8125 36.3203125 C156.01364501 41.01655295 147.50602925 44.76625761 137.8125 47.3203125 C136.8225 47.60777344 135.8325 47.89523438 134.8125 48.19140625 C127.20489972 50.21945275 119.835296 50.69890253 112.01049805 50.97509766 C106.08365599 51.19746114 100.58380083 51.87748729 94.8125 53.3203125 C94.8125 54.3103125 94.8125 55.3003125 94.8125 56.3203125 C102.73412335 57.59600249 110.68413654 57.5607343 118.6875 57.5703125 C119.42150024 57.57198425 120.15550049 57.57365601 120.91174316 57.57537842 C139.09360121 57.73783906 139.09360121 57.73783906 156.515625 53.15625 C159.10934201 52.21227816 160.2640934 52.3764582 162.8125 53.3203125 C143.58865509 60.89606447 123.06682184 61.68790586 102.66894531 63.31884766 C101.93013123 63.3784668 101.19131714 63.43808594 100.43011475 63.49951172 C98.4060843 63.66186188 96.38176133 63.82055324 94.35742188 63.97900391 C91.13727761 64.28904259 87.99434546 64.74318903 84.8125 65.3203125 C84.8125 65.9803125 84.8125 66.6403125 84.8125 67.3203125 C104.88111724 70.91086383 126.06643089 70.41598419 146.22265625 67.7578125 C149.14398027 67.40178607 151.87797727 67.22878742 154.8125 67.3203125 C151.0086533 69.62264076 146.87447163 70.19871671 142.5625 70.9453125 C141.81742188 71.079375 141.07234375 71.2134375 140.3046875 71.3515625 C138.474937 71.67997926 136.64384246 72.0008923 134.8125 72.3203125 C145.18822553 79.8809187 156.58977934 84.57641608 168.8125 88.3203125 C168.50505859 89.20783203 168.50505859 89.20783203 168.19140625 90.11328125 C167.78728516 91.29857422 167.78728516 91.29857422 167.375 92.5078125 C167.10816406 93.28511719 166.84132812 94.06242187 166.56640625 94.86328125 C165.80823147 97.33422393 165.30194856 99.78441486 164.8125 102.3203125 C170.68687472 107.77486468 176.94898546 112.27694005 183.625 116.6953125 C191.36551496 121.88633638 198.81634216 127.14427842 205.8125 133.3203125 C205.30294523 137.4084646 204.55074609 140.2736901 202.25 143.6953125 C201.79496094 144.38367188 201.33992187 145.07203125 200.87109375 145.78125 C200.52175781 146.28914062 200.17242187 146.79703125 199.8125 147.3203125 C197.8125 146.3203125 197.8125 146.3203125 197.11743164 144.40600586 C196.90465576 143.58237549 196.69187988 142.75874512 196.47265625 141.91015625 C192.89979588 128.18495714 192.89979588 128.18495714 182.79296875 118.87890625 C181.80941406 118.36457031 180.82585937 117.85023438 179.8125 117.3203125 C177.6743387 115.9235893 175.54922092 114.50669831 173.4375 113.0703125 C172.48101562 112.44640625 171.52453125 111.8225 170.5390625 111.1796875 C163.03167808 106.06003853 163.03167808 106.06003853 161.8125 101.9453125 C161.8125 97.86151986 162.78479747 95.80796085 164.8125 92.3203125 C164.8125 91.6603125 164.8125 91.0003125 164.8125 90.3203125 C163.78511719 89.95679688 162.75773438 89.59328125 161.69921875 89.21875 C141.00035537 81.76245205 141.00035537 81.76245205 135.8046875 76.15234375 C130.89061577 73.14359748 125.75574964 73.95691106 120.125 74.1328125 C117.60422677 74.17204248 115.08338561 74.20709769 112.5625 74.23828125 C111.27859375 74.25681152 109.9946875 74.2753418 108.671875 74.29443359 C102.64986022 74.33481401 96.64239281 74.16633823 90.625 73.9453125 C89.57030518 73.9141333 88.51561035 73.8829541 87.42895508 73.85083008 C81.33279723 73.61687181 75.67257837 73.08013174 69.8125 71.3203125 C69.4825 70.3303125 69.1525 69.3403125 68.8125 68.3203125 C73.01739854 61.14438526 80.9759568 55.8019311 87.8125 51.3203125 C88.4725 51.3203125 89.1325 51.3203125 89.8125 51.3203125 C89.8125 50.6603125 89.8125 50.0003125 89.8125 49.3203125 C89.08200439 49.05460449 88.35150879 48.78889648 87.59887695 48.51513672 C84.82669926 47.32640127 82.66875254 45.96773703 80.23046875 44.203125 C79.38033203 43.59597656 78.53019531 42.98882812 77.65429688 42.36328125 C75.89617321 41.09287843 74.13835654 39.82205064 72.38085938 38.55078125 C71.09985352 37.63619141 71.09985352 37.63619141 69.79296875 36.703125 C69.02879639 36.15027832 68.26462402 35.59743164 67.47729492 35.02783203 C60.40074729 30.49339556 53.18874672 28.05683996 45.11328125 25.82421875 C44.00123825 25.50879623 42.88919525 25.19337372 41.74345398 24.86839294 C38.20605316 23.86563331 34.66587859 22.87321572 31.125 21.8828125 C-4.19405556 11.9826088 -4.19405556 11.9826088 -11.1875 7.3203125 C-11.375 4.1953125 -11.375 4.1953125 -11.1875 1.3203125 C-7.38204335 -1.23782665 -4.41727404 -0.62083302 0 0 Z " fill="#050505" transform="translate(50.1875,51.6796875)"/>
<path d="M0 0 C4.33843151 1.27600927 7.92320983 2.81024281 10.32348633 6.84887695 C11.38123251 9.22469342 12.30204367 11.61724086 13.1875 14.0625 C13.52434814 14.94615234 13.86119629 15.82980469 14.20825195 16.74023438 C16.68960898 23.33209254 18.93960722 30.00017875 21.10717773 36.70092773 C22.79733477 41.8998531 24.78975952 46.89587031 26.953125 51.91796875 C28.43785315 55.54991452 29.74232484 59.22178404 31 62.9375 C31.41894531 64.175 31.83789062 65.4125 32.26953125 66.6875 C33.1875 69.9375 33.1875 69.9375 33.1875 73.9375 C30.91501762 75.07374119 29.40447236 75.20196843 26.875 75.3125 C26.11574219 75.36148438 25.35648437 75.41046875 24.57421875 75.4609375 C20.89002421 74.65294721 19.54677595 72.83861923 17.1875 69.9375 C15.66135737 67.17057633 14.47796984 64.30941143 13.3125 61.375 C12.80323975 60.13121582 12.80323975 60.13121582 12.28369141 58.86230469 C9.53201789 52.04266154 7.07787225 45.12731258 4.70288086 38.16894531 C2.50581052 31.74547374 0.05739084 25.46597745 -2.55078125 19.19921875 C-4.62251246 13.84350493 -6.47069509 8.72961679 -5.8125 2.9375 C-4.14453506 0.06489372 -3.32618124 -0.07391514 0 0 Z " fill="#E1E1E2" transform="translate(261.8125,199.0625)"/>
<path d="M0 0 C6.0328125 -0.0928125 6.0328125 -0.0928125 12.1875 -0.1875 C14.07698364 -0.22846802 14.07698364 -0.22846802 16.00463867 -0.27026367 C17.50861206 -0.28150269 17.50861206 -0.28150269 19.04296875 -0.29296875 C20.06414795 -0.3086792 21.08532715 -0.32438965 22.13745117 -0.34057617 C25.45589588 0.05424092 27.30410939 1.06364105 30 3 C32.71179716 6.48659635 32.45029926 10.77411463 32 15 C31 17.5 31 17.5 30 19 C30.72896484 19.82177734 30.72896484 19.82177734 31.47265625 20.66015625 C34.15321227 24.76668581 33.63167637 29.26944587 33 34 C30.68858328 38.19479331 28.45573809 39.53706539 24 41 C21.22924805 41.22705078 21.22924805 41.22705078 18.26171875 41.1953125 C16.81865356 41.18781982 16.81865356 41.18781982 15.34643555 41.18017578 C14.13898682 41.16196777 12.93153809 41.14375977 11.6875 41.125 C7.830625 41.08375 3.97375 41.0425 0 41 C0 27.47 0 13.94 0 0 Z M9 8 C9 10.31 9 12.62 9 15 C10.95803507 15.05389087 12.91648909 15.09274217 14.875 15.125 C15.96554688 15.14820313 17.05609375 15.17140625 18.1796875 15.1953125 C21.1371051 15.30060534 21.1371051 15.30060534 23 13 C22.83333333 10.91666667 22.83333333 10.91666667 22 9 C19.35541621 7.67770811 17.32238699 7.90322806 14.375 7.9375 C12.87066406 7.95103516 12.87066406 7.95103516 11.3359375 7.96484375 C10.17964844 7.98224609 10.17964844 7.98224609 9 8 Z M9 23 C9 25.97 9 28.94 9 32 C11.12472576 32.05386629 13.24983652 32.09273071 15.375 32.125 C17.15003906 32.15980469 17.15003906 32.15980469 18.9609375 32.1953125 C22.11153817 32.32866229 22.11153817 32.32866229 24 30 C24.41666667 27.5 24.41666667 27.5 24 25 C20.47320901 22.64880601 18.97120515 22.78556548 14.8125 22.875 C13.72582031 22.89304688 12.63914062 22.91109375 11.51953125 22.9296875 C10.68808594 22.95289063 9.85664062 22.97609375 9 23 Z " fill="#000000" transform="translate(54,177)"/>
<path d="M0 0 C9 0 9 0 11.39868164 2.01953125 C11.97996826 2.94121094 12.56125488 3.86289063 13.16015625 4.8125 C13.80791016 5.80507812 14.45566406 6.79765625 15.12304688 7.8203125 C16.08307617 9.39425781 16.08307617 9.39425781 17.0625 11 C17.73732422 12.04929688 18.41214844 13.09859375 19.10742188 14.1796875 C20.76662266 16.76851141 22.38715343 19.38204614 24 22 C24.33 14.74 24.66 7.48 25 0 C27.97 0 30.94 0 34 0 C34 13.86 34 27.72 34 42 C26 42 26 42 24.00390625 40.5234375 C23.52824219 39.81445312 23.05257812 39.10546875 22.5625 38.375 C22.005625 37.56933594 21.44875 36.76367188 20.875 35.93359375 C20.25625 34.96550781 19.6375 33.99742187 19 33 C18.18825884 31.76122117 17.37571272 30.52296955 16.5625 29.28515625 C14.33320779 25.88103083 12.17278044 22.44302131 10 19 C9.67 26.59 9.34 34.18 9 42 C6.03 42 3.06 42 0 42 C0 28.14 0 14.28 0 0 Z " fill="#000000" transform="translate(77,226)"/>
<path d="M0 0 C8 0 8 0 10.28515625 2.0546875 C10.87167969 2.98539063 11.45820313 3.91609375 12.0625 4.875 C12.71347656 5.86886719 13.36445313 6.86273438 14.03515625 7.88671875 C14.68355469 8.91410156 15.33195312 9.94148437 16 11 C17.32424685 12.90219139 18.65692881 14.79855279 20 16.6875 C20.99 18.110625 21.98 19.53375 23 21 C23.33 14.07 23.66 7.14 24 0 C26.97 0 29.94 0 33 0 C33 13.86 33 27.72 33 42 C25 42 25 42 22.71484375 39.98046875 C22.12832031 39.05878906 21.54179687 38.13710938 20.9375 37.1875 C20.28652344 36.19492187 19.63554687 35.20234375 18.96484375 34.1796875 C18.31644531 33.13039063 17.66804688 32.08109375 17 31 C15.98099609 29.42605469 15.98099609 29.42605469 14.94140625 27.8203125 C13.269192 25.22955802 11.63122485 22.61675653 10 20 C9.67 27.26 9.34 34.52 9 42 C6.03 42 3.06 42 0 42 C0 28.14 0 14.28 0 0 Z " fill="#000000" transform="translate(399,226)"/>
<path d="M0 0 C5.754375 -0.0928125 5.754375 -0.0928125 11.625 -0.1875 C13.42251709 -0.22846802 13.42251709 -0.22846802 15.25634766 -0.27026367 C20.895494 -0.31429731 25.18567788 -0.3138584 30 3 C33.59418183 6.83379395 33.60608619 11.22765372 33.50390625 16.26171875 C32.70031615 20.62851456 30.27192097 23.14680701 27 26 C27.433125 26.83144531 27.86625 27.66289062 28.3125 28.51953125 C28.869375 29.60621094 29.42625 30.69289062 30 31.8125 C30.556875 32.89144531 31.11375 33.97039062 31.6875 35.08203125 C33 38 33 38 33 41 C29.7 41 26.4 41 23 41 C22.57589844 40.07316406 22.15179688 39.14632812 21.71484375 38.19140625 C21.12376463 36.98110139 20.53124009 35.77150169 19.9375 34.5625 C19.66228516 33.95083984 19.38707031 33.33917969 19.10351562 32.70898438 C18.13753331 30.65653612 18.13753331 30.65653612 16 28 C12.36898649 26.97949122 12.36898649 26.97949122 9 27 C9 31.62 9 36.24 9 41 C6.03 41 3.06 41 0 41 C0 27.47 0 13.94 0 0 Z M9 9 C9 11.97 9 14.94 9 18 C10.93681161 18.08107583 12.8745934 18.13922475 14.8125 18.1875 C15.89144531 18.22230469 16.97039062 18.25710937 18.08203125 18.29296875 C20.98777611 18.24372575 20.98777611 18.24372575 22.90234375 16.65234375 C24.27452555 14.96306027 24.27452555 14.96306027 23.75 12.375 C23.22254355 10.0687593 23.22254355 10.0687593 22 9 C19.81360547 8.92741054 17.62499611 8.91626217 15.4375 8.9375 C14.23996094 8.94652344 13.04242188 8.95554688 11.80859375 8.96484375 C10.41833984 8.98224609 10.41833984 8.98224609 9 9 Z " fill="#000000" transform="translate(108,177)"/>
<path d="M0 0 C21.94117647 0 21.94117647 0 28.875 5.125 C33.33725678 11.16217093 34.70431885 17.60465208 34 25 C32.3773148 31.32612055 29.82055207 36.31967111 24.0625 39.75 C15.83547747 43.10796838 9.54563308 42 0 42 C0 28.14 0 14.28 0 0 Z M9 9 C9 16.92 9 24.84 9 33 C15.90428175 33.22924107 15.90428175 33.22924107 21 30 C24.59344981 26.0489496 24.55685625 22.8038332 24.42578125 17.63671875 C24.16150127 14.71818296 24.16150127 14.71818296 21.6875 11.875 C16.99999162 8.60464531 15.17099601 9 9 9 Z " fill="#000000" transform="translate(158,226)"/>
<path d="M0 0 C22.37068966 0 22.37068966 0 27.64453125 4.359375 C32.91806801 10.25600976 33.44984628 16.17256489 33.3125 23.76953125 C32.71651394 29.93053711 30.46499558 33.46841371 26.25 37.875 C17.77101032 43.41895479 10.4381881 42 0 42 C0 28.14 0 14.28 0 0 Z M9 9 C9 16.92 9 24.84 9 33 C17.45051123 32.86635988 17.45051123 32.86635988 21 29.625 C24.18306645 25.44722528 24.35541438 22.15350853 24 17 C22.20962547 12.85386952 20.14613048 10.79037453 16 9 C13.69 9 11.38 9 9 9 Z " fill="#000000" transform="translate(480,226)"/>
<path d="M0 0 C20 0 20 0 28 4 C33.84621361 11.34524274 33.82485279 19.00160598 33 28 C31.01188131 33.75868863 27.35793935 37.15003226 22 40 C14.87827589 41.78043103 7.34090518 41 0 41 C0 27.47 0 13.94 0 0 Z M9 9 C9 16.59 9 24.18 9 32 C15.84871495 32.60027289 15.84871495 32.60027289 20.4375 29.6875 C24.0088278 25.94196109 24.28832742 23.10358801 24.22265625 18 C23.89788564 15.08276227 22.80700436 13.27548697 21 11 C17.35284977 8.16794971 17.35284977 8.16794971 9 9 Z " fill="#000000" transform="translate(146,177)"/>
<path d="M0 0 C5.09261926 4.71067282 8.09636448 8.75920808 8.72265625 15.82421875 C8.94455156 22.74156384 8.67621908 29.82012948 3.8125 35.16796875 C-1.62554455 39.93758699 -5.20697545 40.68689811 -12.453125 40.57421875 C-16.73570301 40.20635628 -19.46815418 39.40885318 -22.5 36.3125 C-27.33866514 29.99261084 -28.29587579 23.55206693 -27.98046875 15.7265625 C-27.15229146 9.84179052 -25.22012506 5.09050006 -21.03125 0.8125 C-15.03293568 -3.42160422 -6.35662152 -3.06479966 0 0 Z M-15.875 9.625 C-18.51646964 13.9935844 -18.83695132 17.25823019 -18.5 22.3125 C-17.31441304 26.3762015 -16.1253773 28.8955818 -12.5 31.3125 C-8.93103555 31.76811248 -7.20239654 31.81978639 -4.25 29.6875 C-1.29568842 25.67807714 -0.24138546 22.18514208 -0.6875 17.25 C-1.2518106 13.74321273 -2.33026531 11.1765498 -4.5 8.3125 C-8.75348271 6.18575864 -12.47496872 6.31444323 -15.875 9.625 Z " fill="#000000" transform="translate(337.5,177.6875)"/>
<path d="M0 0 C1.8125 1.20833333 3.625 2.41666667 5.4375 3.625 C3.94652342 7.4202131 1.68049151 9.23542731 -1.5625 11.625 C-2.0575 11.13 -2.5525 10.635 -3.0625 10.125 C-6.67880158 7.95521905 -9.38481616 8.41611581 -13.5625 8.625 C-13.8925 9.945 -14.2225 11.265 -14.5625 12.625 C-13.69367188 12.79515625 -12.82484375 12.9653125 -11.9296875 13.140625 C1.57379403 15.98028331 1.57379403 15.98028331 5.8125 21.375 C7.10801871 26.03886736 7.13094047 30.06475894 5.1875 34.4375 C2.58670432 37.6884946 0.38678155 39.30857282 -3.5625 40.625 C-17.25006579 41.57527159 -17.25006579 41.57527159 -22.5625 37.625 C-24.9375 34.9375 -24.9375 34.9375 -26.5625 32.625 C-24.3125 30.0625 -24.3125 30.0625 -21.5625 27.625 C-19.11342069 27.69921452 -17.8622529 28.44932782 -15.76953125 29.67578125 C-13.12382765 30.81366793 -11.17970615 30.82545279 -8.3125 30.75 C-6.97445313 30.72292969 -6.97445313 30.72292969 -5.609375 30.6953125 C-4.93390625 30.67210937 -4.2584375 30.64890625 -3.5625 30.625 C-3.5625 28.975 -3.5625 27.325 -3.5625 25.625 C-4.35914063 25.44324219 -5.15578125 25.26148438 -5.9765625 25.07421875 C-19.67768325 21.82395288 -19.67768325 21.82395288 -23.4375 17.4375 C-25.33835672 12.6853582 -25.33835672 8.5646418 -23.4375 3.8125 C-17.62142939 -2.97291571 -7.91099288 -3.05336567 0 0 Z " fill="#000000" transform="translate(388.5625,177.375)"/>
<path d="M0 0 C1.96455114 1.05850538 3.26586792 2.30608415 4.76171875 3.94921875 C3.46872181 6.83359654 2.10230512 8.82141296 -0.23828125 10.94921875 C-4.98828125 9.07421875 -4.98828125 9.07421875 -7.23828125 7.94921875 C-8.61170956 7.88027155 -9.98830227 7.86454167 -11.36328125 7.88671875 C-12.64203125 7.90734375 -13.92078125 7.92796875 -15.23828125 7.94921875 C-15.30667378 9.91021237 -15.30667378 9.91021237 -14.23828125 11.94921875 C-11.16259281 13.17199245 -8.15996619 14.02621796 -4.9609375 14.83984375 C0.35298853 16.36407401 2.70223957 18.2988104 5.76171875 22.94921875 C6.96298512 27.42598781 6.11636613 31.15126216 4.26171875 35.32421875 C0.18604324 39.60367804 -4.38642514 41.04775311 -10.23828125 41.32421875 C-16.21387847 41.07719603 -21.73322745 38.89114082 -26.23828125 34.94921875 C-25.69601144 31.15333009 -24.03700562 29.47709882 -21.23828125 26.94921875 C-17.23828125 28.94921875 -17.23828125 28.94921875 -15.36328125 30.07421875 C-12.5174098 31.24604817 -10.28777267 31.20874993 -7.23828125 30.94921875 C-6.24828125 30.28921875 -5.25828125 29.62921875 -4.23828125 28.94921875 C-4.56828125 27.95921875 -4.89828125 26.96921875 -5.23828125 25.94921875 C-8.30788643 24.82244904 -11.35557497 23.93244457 -14.515625 23.10742188 C-19.80819675 21.55292389 -22.16576365 19.56677376 -25.23828125 14.94921875 C-26.47235645 10.77942429 -25.49498362 7.49342778 -23.67578125 3.63671875 C-17.05113544 -3.66737792 -8.50201743 -3.25939411 0 0 Z " fill="#000000" transform="translate(207.23828125,178.05078125)"/>
<path d="M0 0 C3.3 0 6.6 0 10 0 C10.01458252 0.82725586 10.02916504 1.65451172 10.04418945 2.50683594 C10.1186586 6.25502881 10.2153246 10.00232997 10.3125 13.75 C10.33505859 15.05195313 10.35761719 16.35390625 10.38085938 17.6953125 C10.41630859 18.94570312 10.45175781 20.19609375 10.48828125 21.484375 C10.51446533 22.63647461 10.54064941 23.78857422 10.56762695 24.97558594 C11.03662573 28.25619398 11.64272027 29.69868871 14 32 C18.08165827 32.51020728 19.52957297 32.31361802 23 30 C24.07955212 26.76134365 24.20441741 24.20844162 24.31640625 20.80078125 C24.35830078 19.59228516 24.40019531 18.38378906 24.44335938 17.13867188 C24.48267578 15.87603516 24.52199219 14.61339844 24.5625 13.3125 C24.60568359 12.03826172 24.64886719 10.76402344 24.69335938 9.45117188 C24.7995486 6.30089148 24.90159533 3.15053161 25 0 C27.97 0 30.94 0 34 0 C34.09969463 4.12582397 34.17185233 8.25117097 34.21972656 12.37792969 C34.2397063 13.77844473 34.2669002 15.17887782 34.30175781 16.57910156 C34.65582715 31.17925501 34.65582715 31.17925501 30 38 C25.02909195 42.05788412 20.93933103 42.58141086 14.5859375 42.3203125 C9.89601126 41.73938508 7.13513708 40.07207391 3.75 36.875 C-0.83999457 29.33429463 -0.25329353 20.48875726 -0.125 11.9375 C-0.11597656 10.78572266 -0.10695313 9.63394531 -0.09765625 8.44726562 C-0.07428714 5.63128807 -0.04152565 2.81575842 0 0 Z " fill="#000000" transform="translate(471,176)"/>
<path d="M0 0 C2.97 0 5.94 0 9 0 C12.74222038 7.89636236 16.00089279 15.93735446 19.0769043 24.11010742 C19.82399893 26.09302005 20.57865675 28.07294511 21.33398438 30.05273438 C21.81294522 31.31753983 22.29147753 32.58250766 22.76953125 33.84765625 C23.19854736 34.98211182 23.62756348 36.11656738 24.06958008 37.28540039 C25 40 25 40 25 42 C21.7 42 18.4 42 15 42 C13.515 37.545 13.515 37.545 12 33 C7.38 33.33 2.76 33.66 -2 34 C-2.99 36.64 -3.98 39.28 -5 42 C-8.3 42 -11.6 42 -15 42 C-14.26330396 37.21771891 -12.56603809 32.91030067 -10.83984375 28.41796875 C-10.53051407 27.60378983 -10.22118439 26.7896109 -9.90248108 25.95075989 C-8.91782092 23.36159267 -7.92774287 20.77453654 -6.9375 18.1875 C-6.26721913 16.42787108 -5.59729323 14.6681069 -4.92773438 12.90820312 C-3.28926463 8.60389085 -1.64593414 4.30146318 0 0 Z M4 14 C3.01 17.3 2.02 20.6 1 24 C3.31 24 5.62 24 8 24 C7.39009109 20.44219804 6.4216319 17.3171411 5 14 C4.67 14 4.34 14 4 14 Z " fill="#000000" transform="translate(447,176)"/>
<path d="M0 0 C1.23556641 0.01740234 1.23556641 0.01740234 2.49609375 0.03515625 C3.32238281 0.04417969 4.14867187 0.05320313 5 0.0625 C5.63808594 0.07410156 6.27617187 0.08570313 6.93359375 0.09765625 C9.07623888 5.59445278 11.21230759 11.09374142 13.34228516 16.59545898 C14.06801423 18.46725551 14.79554493 20.33835453 15.52490234 22.20874023 C16.57211594 24.89516367 17.61285413 27.5840175 18.65234375 30.2734375 C18.98045044 31.11103104 19.30855713 31.94862457 19.64660645 32.81159973 C19.94691772 33.59218246 20.247229 34.3727652 20.55664062 35.17700195 C20.82311401 35.86317093 21.0895874 36.5493399 21.36413574 37.25630188 C21.93359375 39.09765625 21.93359375 39.09765625 21.93359375 42.09765625 C18.63359375 42.09765625 15.33359375 42.09765625 11.93359375 42.09765625 C10.94359375 39.45765625 9.95359375 36.81765625 8.93359375 34.09765625 C2.00359375 33.60265625 2.00359375 33.60265625 -5.06640625 33.09765625 C-6.05640625 36.06765625 -7.04640625 39.03765625 -8.06640625 42.09765625 C-11.36640625 42.09765625 -14.66640625 42.09765625 -18.06640625 42.09765625 C-15.53697325 34.24403212 -12.66708982 26.52441004 -9.76806641 18.80175781 C-8.93330609 16.57605902 -8.10327586 14.34863165 -7.2734375 12.12109375 C-6.74377384 10.70692475 -6.21383614 9.29285835 -5.68359375 7.87890625 C-5.43568085 7.21234009 -5.18776794 6.54577393 -4.93234253 5.85900879 C-2.7734712 0.13107142 -2.7734712 0.13107142 0 0 Z M1.93359375 14.09765625 C-0.35685639 18.90975526 -0.35685639 18.90975526 -1.06640625 24.09765625 C1.24359375 24.09765625 3.55359375 24.09765625 5.93359375 24.09765625 C4.94359375 20.79765625 3.95359375 17.49765625 2.93359375 14.09765625 C2.60359375 14.09765625 2.27359375 14.09765625 1.93359375 14.09765625 Z " fill="#000000" transform="translate(454.06640625,225.90234375)"/>
<path d="M0 0 C2.97 0 5.94 0 9 0 C12.74222038 7.89636236 16.00089279 15.93735446 19.0769043 24.11010742 C19.82399893 26.09302005 20.57865675 28.07294511 21.33398438 30.05273438 C21.81294522 31.31753983 22.29147753 32.58250766 22.76953125 33.84765625 C23.19854736 34.98211182 23.62756348 36.11656738 24.06958008 37.28540039 C25 40 25 40 25 42 C21.7 42 18.4 42 15 42 C13.515 37.545 13.515 37.545 12 33 C7.38 33.33 2.76 33.66 -2 34 C-2.99 36.64 -3.98 39.28 -5 42 C-8.3 42 -11.6 42 -15 42 C-14.26330396 37.21771891 -12.56603809 32.91030067 -10.83984375 28.41796875 C-10.53051407 27.60378983 -10.22118439 26.7896109 -9.90248108 25.95075989 C-8.91782092 23.36159267 -7.92774287 20.77453654 -6.9375 18.1875 C-6.26721913 16.42787108 -5.59729323 14.6681069 -4.92773438 12.90820312 C-3.28926463 8.60389085 -1.64593414 4.30146318 0 0 Z M4 14 C3.01 17.3 2.02 20.6 1 24 C3.31 24 5.62 24 8 24 C7.39009109 20.44219804 6.4216319 17.3171411 5 14 C4.67 14 4.34 14 4 14 Z " fill="#000000" transform="translate(370,226)"/>
<path d="M0 0 C2.97 0 5.94 0 9 0 C11.14264513 5.49679653 13.27871384 10.99608517 15.40869141 16.49780273 C16.13442048 18.36959926 16.86195118 20.24069828 17.59130859 22.11108398 C18.63852219 24.79750742 19.67926038 27.48636125 20.71875 30.17578125 C21.04685669 31.01337479 21.37496338 31.85096832 21.7130127 32.71394348 C22.01332397 33.49452621 22.31363525 34.27510895 22.62304688 35.0793457 C22.88952026 35.76551468 23.15599365 36.45168365 23.43054199 37.15864563 C24 39 24 39 24 42 C20.7 42 17.4 42 14 42 C13.01 39.36 12.02 36.72 11 34 C4.07 33.505 4.07 33.505 -3 33 C-3.99 35.97 -4.98 38.94 -6 42 C-8.97 42 -11.94 42 -15 42 C-14.43278368 36.6362389 -13.11853471 32.15130135 -11.09375 27.16796875 C-10.66660706 26.0912365 -10.66660706 26.0912365 -10.23083496 24.99275208 C-9.32769877 22.72140909 -8.41394307 20.45451289 -7.5 18.1875 C-6.88603535 16.64675652 -6.2727475 15.10574317 -5.66015625 13.56445312 C-1.25382586 2.50765173 -1.25382586 2.50765173 0 0 Z M4 14 C1.70954986 18.81209901 1.70954986 18.81209901 1 24 C3.31 24 5.62 24 8 24 C7.01 20.7 6.02 17.4 5 14 C4.67 14 4.34 14 4 14 Z " fill="#000000" transform="translate(206,226)"/>
<path d="M0 0 C2.97 0 5.94 0 9 0 C12.54870689 8.34330894 15.87444715 16.75971839 19.0769043 25.24047852 C19.82649105 27.2245324 20.58006231 29.20704307 21.33398438 31.18945312 C21.8127322 32.45303705 22.29125673 33.7167056 22.76953125 34.98046875 C23.19854736 36.11379639 23.62756348 37.24712402 24.06958008 38.41479492 C25 41 25 41 25 42 C21.7 42 18.4 42 15 42 C12 36.375 12 36.375 12 33 C7.05 33 2.1 33 -3 33 C-3.66 35.97 -4.32 38.94 -5 42 C-8.3 42 -11.6 42 -15 42 C-14.26330396 37.21771891 -12.56603809 32.91030067 -10.83984375 28.41796875 C-10.53051407 27.60378983 -10.22118439 26.7896109 -9.90248108 25.95075989 C-8.91782092 23.36159267 -7.92774287 20.77453654 -6.9375 18.1875 C-6.26721913 16.42787108 -5.59729323 14.6681069 -4.92773438 12.90820312 C-3.28926463 8.60389085 -1.64593414 4.30146318 0 0 Z M4 14 C3.01 17.3 2.02 20.6 1 24 C3.31 24 5.62 24 8 24 C7.01 20.7 6.02 17.4 5 14 C4.67 14 4.34 14 4 14 Z " fill="#000000" transform="translate(130,226)"/>
<path d="M0 0 C9.57 0 19.14 0 29 0 C29 2.97 29 5.94 29 9 C22.4 9 15.8 9 9 9 C9 10.98 9 12.96 9 15 C12.63 15 16.26 15 20 15 C20 17.97 20 20.94 20 24 C16.37 24 12.74 24 9 24 C9 26.97 9 29.94 9 33 C15.6 33 22.2 33 29 33 C29 35.97 29 38.94 29 42 C19.43 42 9.86 42 0 42 C0 28.14 0 14.28 0 0 Z " fill="#000000" transform="translate(400,176)"/>
<path d="M0 0 C2.97 0 5.94 0 9 0 C12.54870689 8.34330894 15.87444715 16.75971839 19.0769043 25.24047852 C19.82649105 27.2245324 20.58006231 29.20704307 21.33398438 31.18945312 C21.8127322 32.45303705 22.29125673 33.7167056 22.76953125 34.98046875 C23.19854736 36.11379639 23.62756348 37.24712402 24.06958008 38.41479492 C25 41 25 41 25 42 C21.7 42 18.4 42 15 42 C13.515 37.545 13.515 37.545 12 33 C7.05 33 2.1 33 -3 33 C-3.66 35.97 -4.32 38.94 -5 42 C-8.3 42 -11.6 42 -15 42 C-14.26330396 37.21771891 -12.56603809 32.91030067 -10.83984375 28.41796875 C-10.53051407 27.60378983 -10.22118439 26.7896109 -9.90248108 25.95075989 C-8.91782092 23.36159267 -7.92774287 20.77453654 -6.9375 18.1875 C-6.26721913 16.42787108 -5.59729323 14.6681069 -4.92773438 12.90820312 C-3.28926463 8.60389085 -1.64593414 4.30146318 0 0 Z M4 14 C3.01 17.3 2.02 20.6 1 24 C3.31 24 5.62 24 8 24 C7.01 20.7 6.02 17.4 5 14 C4.67 14 4.34 14 4 14 Z " fill="#000000" transform="translate(527,226)"/>
<path d="M0 0 C2.97 0 5.94 0 9 0 C11.14264513 5.49679653 13.27871384 10.99608517 15.40869141 16.49780273 C16.13442048 18.36959926 16.86195118 20.24069828 17.59130859 22.11108398 C18.63852219 24.79750742 19.67926038 27.48636125 20.71875 30.17578125 C21.04685669 31.01337479 21.37496338 31.85096832 21.7130127 32.71394348 C22.01332397 33.49452621 22.31363525 34.27510895 22.62304688 35.0793457 C22.88952026 35.76551468 23.15599365 36.45168365 23.43054199 37.15864563 C24 39 24 39 24 42 C20.7 42 17.4 42 14 42 C13.01 39.36 12.02 36.72 11 34 C4.07 33.505 4.07 33.505 -3 33 C-3.99 35.97 -4.98 38.94 -6 42 C-8.97 42 -11.94 42 -15 42 C-14.37163753 37.05983743 -12.89605286 32.65914501 -11.09375 28.046875 C-10.80898804 27.3054425 -10.52422607 26.56401001 -10.23083496 25.80010986 C-9.32584587 23.44799376 -8.41292842 21.09904433 -7.5 18.75 C-6.88622092 17.15644166 -6.27293459 15.56269343 -5.66015625 13.96875 C-1.20550818 2.41101635 -1.20550818 2.41101635 0 0 Z M4 14 C1.70954986 18.81209901 1.70954986 18.81209901 1 24 C3.31 24 5.62 24 8 24 C7.01 20.7 6.02 17.4 5 14 C4.67 14 4.34 14 4 14 Z " fill="#000000" transform="translate(49,226)"/>
<path d="M0 0 C3.86047446 -0.69111568 7.17274412 -0.95937916 11 0 C14.20296789 3.42706633 15.83328144 6.76286148 18 11 C19.98 7.37 21.96 3.74 24 0 C27.63 0 31.26 0 35 0 C32.80734796 5.48163009 29.8688925 9.87048696 26.58203125 14.74609375 C24.680821 18.65648421 24.61377429 19.91320125 26 24 C27.52704104 26.88224943 29.26381037 29.59343548 31.0625 32.3125 C31.99255412 33.74501173 32.92103071 35.17854935 33.84765625 36.61328125 C34.26023682 37.24016846 34.67281738 37.86705566 35.09790039 38.51293945 C36 40 36 40 36 41 C32.13952554 41.69111568 28.82725588 41.95937916 25 41 C21.9143357 37.69844451 19.93361075 34.06520213 18 30 C16.07010324 32.49946515 14.35035822 34.99246112 12.8125 37.75 C12.214375 38.8225 11.61625 39.895 11 41 C7.37 41 3.74 41 0 41 C1.35096762 37.62258096 2.31253441 35.29635862 4.234375 32.40625 C4.64300781 31.76816406 5.05164063 31.13007813 5.47265625 30.47265625 C6.32886439 29.15037763 7.19623027 27.8352617 8.07421875 26.52734375 C10.50627319 22.80167819 10.50627319 22.80167819 10.5546875 18.515625 C9.78511719 17.27039063 9.78511719 17.27039063 9 16 C8.49243164 15.12214844 8.49243164 15.12214844 7.97460938 14.2265625 C6.8058879 12.21387577 5.59646745 10.23106752 4.375 8.25 C0 1.12384969 0 1.12384969 0 0 Z " fill="#000000" transform="translate(508,176)"/>
<path d="M0 0 C-3.75 3 -3.75 3 -6 3 C-6 3.66 -6 4.32 -6 5 C-5.01 5.33 -4.02 5.66 -3 6 C-3.61875 6.804375 -4.2375 7.60875 -4.875 8.4375 C-7.92164026 13.01288147 -9.19438776 18.21377537 -8.8125 23.6875 C-7.79061706 26.59593607 -6.40165588 29.2576298 -5 32 C-5 32.66 -5 33.32 -5 34 C-10.26823383 37.51215588 -16.88133432 36.64239629 -23 36 C-27.10804679 34.39845712 -29.91495592 32.08504408 -33 29 C-32.44444444 24.44444444 -32.44444444 24.44444444 -31 23 C-31.08520092 21.24897416 -31.19324749 19.49903674 -31.3125 17.75 C-31.31940672 12.39038599 -31.31940672 12.39038599 -28.75 9.25 C-27.51921402 8.46886885 -26.26523253 7.72400736 -25 7 C-23.70642578 6.08541016 -23.70642578 6.08541016 -22.38671875 5.15234375 C-14.82223588 0.1126949 -8.99032983 -0.91353352 0 0 Z " fill="#F6D707" transform="translate(324,29)"/>
<path d="M0 0 C2.15684052 1.99092971 3.92898612 3.7358102 5.4375 6.25 C5.4375 6.91 5.4375 7.57 5.4375 8.25 C0.06540698 11.30232558 0.06540698 11.30232558 -2.8125 11.0625 C-4.5625 10.25 -4.5625 10.25 -6.5625 8.25 C-11.26766025 7.72754445 -11.26766025 7.72754445 -15.4375 9.5625 C-18.37716847 13.97200271 -18.03310413 19.16260708 -17.5625 24.25 C-15.86846911 28.03365532 -15.86846911 28.03365532 -12.5625 30.25 C-9.6467309 30.66702122 -9.6467309 30.66702122 -6.5625 30.25 C-4.18530307 28.37498069 -4.18530307 28.37498069 -2.5625 26.25 C0.4094385 27.37451727 2.77190687 28.47293791 5.4375 30.25 C4.08467831 34.67741644 2.20451112 36.61309221 -1.5625 39.25 C-5.72623021 41.3318651 -11.01668359 40.57725118 -15.5625 40.25 C-20.34084904 38.62877443 -22.8781975 36.50785914 -25.5625 32.25 C-29.18909565 23.96953268 -29.27016819 17.12548064 -26.47265625 8.55078125 C-24.81654685 4.36430727 -22.66569311 2.049815 -19.0625 -0.5625 C-12.64933496 -2.73839528 -6.13034688 -3.01139847 0 0 Z " fill="#000000" transform="translate(349.5625,227.75)"/>
<path d="M0 0 C4.29347298 2.21095511 6.11990734 4.89513702 7.828125 9.31640625 C4.87157837 10.54830068 1.9688096 11.66095903 -1.171875 12.31640625 C-3.359375 11.00390625 -3.359375 11.00390625 -5.171875 9.31640625 C-8.65887992 8.8078847 -10.44224146 8.88257009 -13.484375 10.69140625 C-16.05935015 14.69692316 -16.3741319 18.6067099 -16.171875 23.31640625 C-15.48552341 26.04220258 -14.59455012 27.83989771 -13.171875 30.31640625 C-10.33103859 31.73682446 -8.31710222 31.63092897 -5.171875 31.31640625 C-2.79467807 29.44138694 -2.79467807 29.44138694 -1.171875 27.31640625 C4.578125 29.06640625 4.578125 29.06640625 6.828125 31.31640625 C6.71873697 34.48865903 5.58203529 35.59487619 3.453125 38.00390625 C-1.06492906 41.98409673 -5.44392796 41.65342202 -11.22265625 41.59765625 C-16.44556137 41.09957788 -18.99240509 38.59416532 -22.421875 34.87890625 C-27.19699844 27.88676121 -27.19749232 20.07851081 -25.7421875 11.90234375 C-24.08840887 6.61433553 -20.75337877 3.32562123 -16.171875 0.31640625 C-11.03906382 -1.39453081 -5.20173714 -1.63723741 0 0 Z " fill="#000000" transform="translate(26.171875,226.68359375)"/>
<path d="M0 0 C1.91470844 -0.13547465 3.83218481 -0.23220869 5.75 -0.3125 C6.81734375 -0.37050781 7.8846875 -0.42851562 8.984375 -0.48828125 C13.04936153 0.16990957 13.59918895 1.72248829 16 5 C18.43239582 7.1055968 21.0259132 8.98114583 23.625 10.875 C24.34429687 11.40746338 25.06359375 11.93992676 25.8046875 12.48852539 C29.49170877 15.20695755 33.21330603 17.85918789 37 20.4375 C41.65082051 23.66834444 46.11950438 27.11642068 50.5625 30.625 C51.27857422 31.17599365 51.99464844 31.7269873 52.73242188 32.29467773 C57.761085 36.32307417 57.761085 36.32307417 58.9609375 39.72265625 C58.97382813 40.47417969 58.98671875 41.22570312 59 42 C59.020625 42.928125 59.04125 43.85625 59.0625 44.8125 C59.041875 45.534375 59.02125 46.25625 59 47 C57.375 47.8125 57.375 47.8125 55 48 C53 46.33333333 51 44.66666667 49 43 C46.1360039 42.91576482 45.09715296 43.93253267 42.75 45.5625 C40.18768537 49.13143823 40.71138734 51.67081014 41 56 C37.535 54.515 37.535 54.515 34 53 C34.26267451 46.95848628 36.39426364 43.37140774 39.8203125 38.4296875 C41.17992541 36.07238035 41.17992541 36.07238035 41.01953125 33.48046875 C39.58892566 29.9998766 37.58350244 28.66647933 34.5625 26.4375 C33.99700439 26.01621826 33.43150879 25.59493652 32.84887695 25.16088867 C27.20104821 21.01320542 21.34293126 17.15670502 15.44555664 13.37475586 C2.47826233 4.95652466 2.47826233 4.95652466 0 0 Z " fill="#F4F4F3" transform="translate(214,153)"/>
<path d="M0 0 C2.97 0 5.94 0 9 0 C9 13.86 9 27.72 9 42 C6.03 42 3.06 42 0 42 C0 28.14 0 14.28 0 0 Z " fill="#000000" transform="translate(350,176)"/>
<path d="M0 0 C2.97 0 5.94 0 9 0 C9 13.53 9 27.06 9 41 C6.03 41 3.06 41 0 41 C0 27.47 0 13.94 0 0 Z " fill="#000000" transform="translate(92,177)"/>
<path d="M0 0 C5.50588847 0.45882404 10.79873778 1.16592127 15 5 C17.51826866 9.49771857 19.2609753 14.16637545 21 19 C21.64575282 20.56253328 22.29156727 22.12504109 22.9375 23.6875 C24 27 24 27 23 30 C22.05898438 29.32453125 21.11796875 28.6490625 20.1484375 27.953125 C18.8906618 27.05203196 17.63284723 26.15099319 16.375 25.25 C15.75753906 24.8065625 15.14007813 24.363125 14.50390625 23.90625 C13.89160156 23.46796875 13.27929688 23.0296875 12.6484375 22.578125 C12.03782471 22.13863525 11.42721191 21.69914551 10.7980957 21.24633789 C9.14204865 20.09846006 7.41851107 19.04961291 5.69140625 18.01171875 C2.60261068 15.70296734 1.77210065 14.18126378 0.5625 10.5625 C0.23378906 9.63566406 -0.09492188 8.70882812 -0.43359375 7.75390625 C-1.04257336 4.79300536 -0.8021225 2.88868952 0 0 Z " fill="#DEDEE0" transform="translate(237,149)"/>
<path d="M0 0 C5.86650163 0.32806095 9.76698181 3.27581313 13.625 7.5625 C13.769375 6.964375 13.91375 6.36625 14.0625 5.75 C14.5122439 4.00099596 15.05392341 2.27572977 15.625 0.5625 C17.625 2.5625 17.625 2.5625 17.8125 4.9375 C17.625 7.5625 17.625 7.5625 17.01171875 9.38720703 C16.16828827 14.13150347 18.981369 19.04926612 20.625 23.4375 C21.00011719 24.51386719 21.37523437 25.59023437 21.76171875 26.69921875 C23.959998 32.6221572 25.84281932 36.6840453 31.17797852 40.24902344 C33.1276901 42.01879707 33.25423375 43.3586645 33.5625 45.9375 C33.583125 47.13375 33.60375 48.33 33.625 49.5625 C32.635 50.0575 32.635 50.0575 31.625 50.5625 C31.57859375 49.51835937 31.5321875 48.47421875 31.484375 47.3984375 C30.44554083 42.76145953 28.48697906 40.96128013 24.875 38.1875 C24.29298828 37.71836182 23.71097656 37.24922363 23.11132812 36.76586914 C18.20928472 32.87101361 13.0852839 29.32425958 7.8984375 25.8203125 C-0.22036159 20.22047255 -7.98570504 14.09257462 -15.375 7.5625 C-14.715 5.9125 -14.055 4.2625 -13.375 2.5625 C-12.385 4.0475 -12.385 4.0475 -11.375 5.5625 C-10.385 5.5625 -9.395 5.5625 -8.375 5.5625 C-7.83875 4.7375 -7.3025 3.9125 -6.75 3.0625 C-4.10881524 0.28230552 -3.63910336 0.1404352 0 0 Z M-4.375 1.5625 C-5.64858018 6.53213454 -5.15019145 9.80904897 -3.34375 14.5703125 C0.88217672 20.99305034 8.13057165 24.69158049 14.625 28.5625 C15.61628906 29.160625 16.60757812 29.75875 17.62890625 30.375 C18.28761719 30.766875 18.94632812 31.15875 19.625 31.5625 C19.01528155 25.77017476 16.91395384 20.85425091 14.625 15.5625 C14.27566406 14.66273438 13.92632812 13.76296875 13.56640625 12.8359375 C11.53125397 8.061428 9.92120395 5.19640866 5.125 2.9375 C1.8977983 1.78454313 -0.92314206 1.11709898 -4.375 1.5625 Z M-9.375 9.5625 C-9.045 10.2225 -8.715 10.8825 -8.375 11.5625 C-7.715 11.2325 -7.055 10.9025 -6.375 10.5625 C-7.365 10.2325 -8.355 9.9025 -9.375 9.5625 Z " fill="#0B0B0C" transform="translate(241.375,147.4375)"/>
<path d="M0 0 C1 3 1 3 1.38183594 5.01293945 C3.49464813 11.80447912 14.19292503 16.61803393 19.75 20.3125 C27.50701453 25.52643105 34.9841836 30.80661184 42 37 C41.49044523 41.0881521 40.73824609 43.9533776 38.4375 47.375 C37.98246094 48.06335938 37.52742188 48.75171875 37.05859375 49.4609375 C36.70925781 49.96882813 36.35992187 50.47671875 36 51 C34 50 34 50 33.30493164 48.08569336 C32.98576782 46.8502478 32.98576782 46.8502478 32.66015625 45.58984375 C29.08729588 31.86464464 29.08729588 31.86464464 18.98046875 22.55859375 C17.99691406 22.04425781 17.01335937 21.52992188 16 21 C13.8618387 19.6032768 11.73672092 18.18638581 9.625 16.75 C8.66851562 16.12609375 7.71203125 15.5021875 6.7265625 14.859375 C-0.81465931 9.71665067 -0.81465931 9.71665067 -1.9375 5.375 C-1.958125 4.26125 -1.97875 3.1475 -2 2 C-1.34 1.34 -0.68 0.68 0 0 Z " fill="#0E0E0F" transform="translate(214,148)"/>
<path d="M0 0 C7.60541371 1.03569658 14.99514023 2.6461783 22.4375 4.5 C23.30149414 4.71358154 24.16548828 4.92716309 25.05566406 5.1472168 C29.16603266 6.18844068 33.11094983 7.27508247 37 9 C33.97047236 12.26256822 30.9102804 14.8453557 27 17 C17.33394349 16.17193585 7.34202564 6.82249615 0 1 C0 0.67 0 0.34 0 0 Z " fill="#EEEEEF" transform="translate(118,83)"/>
<path d="M0 0 C2.93174079 0.75674898 4.3821042 2.15682387 6.1640625 4.55859375 C5.8340625 5.54859375 5.5040625 6.53859375 5.1640625 7.55859375 C0.09843867 7.81187494 -3.99352117 6.89443274 -8.8359375 5.55859375 C-8.8359375 7.20859375 -8.8359375 8.85859375 -8.8359375 10.55859375 C-9.1659375 10.55859375 -9.4959375 10.55859375 -9.8359375 10.55859375 C-10.1659375 8.90859375 -10.4959375 7.25859375 -10.8359375 5.55859375 C-11.1659375 5.55859375 -11.4959375 5.55859375 -11.8359375 5.55859375 C-11.7946875 6.67234375 -11.7534375 7.78609375 -11.7109375 8.93359375 C-11.8359375 12.55859375 -11.8359375 12.55859375 -13.8359375 14.55859375 C-16.64577998 14.91882997 -18.21835669 14.94191977 -20.6484375 13.43359375 C-22.32699856 10.78323418 -22.04043988 8.62612951 -21.8359375 5.55859375 C-22.4959375 5.55859375 -23.1559375 5.55859375 -23.8359375 5.55859375 C-23.1759375 4.23859375 -22.5159375 2.91859375 -21.8359375 1.55859375 C-20.58876953 1.59339844 -20.58876953 1.59339844 -19.31640625 1.62890625 C-18.22972656 1.64695312 -17.14304687 1.665 -16.0234375 1.68359375 C-14.94449219 1.70679688 -13.86554688 1.73 -12.75390625 1.75390625 C-7.71402925 1.41656509 -5.42987789 -0.7163194 0 0 Z " fill="#DCC21C" transform="translate(309.8359375,18.44140625)"/>
<path d="M0 0 C0.71736328 0 1.43472656 0 2.17382812 0 C6.87739278 0.17942753 9.68698989 0.96700183 13.3125 4.1875 C15.125 6.15625 15.125 6.15625 16.3125 7.6875 C15.9825 9.3375 15.6525 10.9875 15.3125 12.6875 C14.75820312 12.26597656 14.20390625 11.84445313 13.6328125 11.41015625 C12.90835938 10.86230469 12.18390625 10.31445312 11.4375 9.75 C10.71820313 9.20472656 9.99890625 8.65945312 9.2578125 8.09765625 C5.64681441 5.48004518 2.89295993 5.30620222 -1.48828125 5.3203125 C-4.01002835 5.52625664 -4.01002835 5.52625664 -6.25 8.1875 C-6.724375 9.0125 -7.19875 9.8375 -7.6875 10.6875 C-9.0075 10.3575 -10.3275 10.0275 -11.6875 9.6875 C-10.61020242 1.93095743 -7.67022562 -0.07004772 0 0 Z " fill="#EFEFED" transform="translate(240.6875,143.3125)"/>
<path d="M0 0 C1.3790577 2.75811541 1.79403445 5.6024058 2.40234375 8.61328125 C2.59957031 9.40089844 2.79679688 10.18851563 3 11 C3.20238281 11.81726563 3.40476563 12.63453125 3.61328125 13.4765625 C5.66327344 17.20697082 8.69144785 18.85291915 12.25 21.0625 C12.90613281 21.48337891 13.56226563 21.90425781 14.23828125 22.33789062 C15.53269028 23.16780496 16.83015996 23.99296781 18.13085938 24.81298828 C20.78413673 26.49797189 23.39173729 28.24630783 26 30 C25.34 30.66 24.68 31.32 24 32 C23.23816406 31.41992188 22.47632813 30.83984375 21.69140625 30.2421875 C14.76525117 24.98834259 14.76525117 24.98834259 7.5625 20.125 C1.24908698 16.02477604 -4.32783277 10.92698297 -10 6 C-9.34 4.35 -8.68 2.7 -8 1 C-7.34 1.99 -6.68 2.98 -6 4 C-5.01 4 -4.02 4 -3 4 C-1.29467677 2.05990478 -1.29467677 2.05990478 0 0 Z M-4 8 C-3.67 8.66 -3.34 9.32 -3 10 C-2.34 9.67 -1.68 9.34 -1 9 C-1.99 8.67 -2.98 8.34 -4 8 Z " fill="#1F1F1F" transform="translate(236,149)"/>
<path d="M0 0 C2.875 0.6875 2.875 0.6875 3.875 1.6875 C4.0625 5.125 4.0625 5.125 3.875 8.6875 C1.875 10.6875 1.875 10.6875 -0.5625 11 C-3.125 10.6875 -3.125 10.6875 -4.9375 9.5625 C-6.66958662 6.82762639 -6.52873601 4.85009871 -6.125 1.6875 C-3.125 -0.3125 -3.125 -0.3125 0 0 Z " fill="#1D1F1D" transform="translate(294.125,22.3125)"/>
<path d="M0 0 C3.36573933 1.44245971 5.75010389 3.083468 8 6 C7.80398092 8.74426716 7.22394754 10.55210492 6 13 C5.34 13 4.68 13 4 13 C3.32942113 11.2097939 2.6636531 9.41778511 2 7.625 C1.62875 6.62726563 1.2575 5.62953125 0.875 4.6015625 C0 2 0 2 0 0 Z " fill="#D5D5D7" transform="translate(246,180)"/>
<path d="M0 0 C1 3 1 3 -0.00390625 5.33984375 C-3.13175698 10.55292831 -5.5707424 14.15610316 -11 17 C-9.49755563 13.58535371 -7.42310865 10.74298089 -5.23828125 7.74609375 C-3.69598651 5.57131221 -2.35117834 3.29700317 -1 1 C-0.67 0.67 -0.34 0.34 0 0 Z " fill="#11100D" transform="translate(322,93)"/>
<path d="M0 0 C0.66 0.33 1.32 0.66 2 1 C-1.69264564 5.15422634 -5.63296818 8.27087259 -11 10 C-11.99 9.67 -12.98 9.34 -14 9 C-2.68796992 1.38471178 -2.68796992 1.38471178 0 0 Z " fill="#11100C" transform="translate(284,131)"/>
<path d="M0 0 C0.66 0.33 1.32 0.66 2 1 C-3.61 4.63 -9.22 8.26 -15 12 C-15 9 -15 9 -13.87890625 7.515625 C-11.39900542 5.51520603 -8.78515612 4.17555811 -5.9375 2.75 C-4.87402344 2.20859375 -3.81054688 1.6671875 -2.71484375 1.109375 C-1.81894531 0.74328125 -0.92304688 0.3771875 0 0 Z " fill="#171717" transform="translate(179,80)"/>
<path d="M0 0 C3.89193339 0.57658272 6.04539841 2.4999525 9 5 C9.99 5.66 10.98 6.32 12 7 C11.34 7.66 10.68 8.32 10 9 C6.7 7.35 3.4 5.7 0 4 C0 2.68 0 1.36 0 0 Z " fill="#222323" transform="translate(260,195)"/>
<path d="M0 0 C0.99 0.33 1.98 0.66 3 1 C3.48676056 8.42309859 3.48676056 8.42309859 1.3125 11 C-1.3119388 12.13489245 -3.16910178 12.23590819 -6 12 C-6 11.34 -6 10.68 -6 10 C-4.02 9.34 -2.04 8.68 0 8 C0 5.36 0 2.72 0 0 Z " fill="#DDDCDB" transform="translate(297,23)"/>
<path d="M0 0 C3.63 0 7.26 0 11 0 C11 0.99 11 1.98 11 3 C9.1746875 2.9690625 9.1746875 2.9690625 7.3125 2.9375 C4.08022678 2.93175884 1.15065259 3.21233685 -2 4 C-1.34 2.68 -0.68 1.36 0 0 Z " fill="#EED014" transform="translate(288,20)"/>
<path d="M0 0 C0.33 0 0.66 0 1 0 C2.11165232 4.4378561 2.11527763 8.76956386 2.0625 13.3125 C2.05798828 14.05306641 2.05347656 14.79363281 2.04882812 15.55664062 C2.03712175 17.37112899 2.01918898 19.18557534 2 21 C1.67 21 1.34 21 1 21 C0.67 17.04 0.34 13.08 0 9 C-0.99 9.66 -1.98 10.32 -3 11 C-2.690625 10.29875 -2.38125 9.5975 -2.0625 8.875 C-0.96697322 5.91063343 -0.43577008 3.12301892 0 0 Z " fill="#A99941" transform="translate(321,68)"/>
<path d="M0 0 C3.63968277 1.57005924 5.63326681 3.37001978 8.1875 6.375 C8.1875 7.035 8.1875 7.695 8.1875 8.375 C4.74046566 6.84298474 2.12163229 4.72230584 -0.8125 2.375 C-2.12388904 1.66614106 -3.45027017 0.98043548 -4.8125 0.375 C-2.8125 -0.625 -2.8125 -0.625 0 0 Z " fill="#111111" transform="translate(306.8125,2.625)"/>
<path d="M0 0 C1.09658936 3.28976808 0.79953138 4.71303767 0 8 C1.98 8.66 3.96 9.32 6 10 C6 10.66 6 11.32 6 12 C3.39376858 11.64780657 1.39210885 11.23526531 -0.875 9.875 C-2.69201408 6.8466432 -1.73744186 4.31848838 -1 1 C-0.67 0.67 -0.34 0.34 0 0 Z " fill="#040405" transform="translate(248,198)"/>
<path d="M0 0 C1.41623216 -0.05447047 2.83308191 -0.09300508 4.25 -0.125 C5.03890625 -0.14820313 5.8278125 -0.17140625 6.640625 -0.1953125 C9.20731941 0.0171622 10.7916067 0.71345895 13 2 C12.67 2.99 12.34 3.98 12 5 C10.948125 4.525625 9.89625 4.05125 8.8125 3.5625 C5.89824149 2.30676259 3.15253086 1.47765619 0 1 C0 0.67 0 0.34 0 0 Z " fill="#151515" transform="translate(237,148)"/>
<path d="M0 0 C4.08963819 2.28538605 7.46362104 4.95706926 11 8 C10.01 9.485 10.01 9.485 9 11 C8.60167969 10.50628906 8.20335937 10.01257813 7.79296875 9.50390625 C7.26316406 8.86324219 6.73335937 8.22257813 6.1875 7.5625 C5.66542969 6.92441406 5.14335937 6.28632813 4.60546875 5.62890625 C2.99165589 3.7451725 2.99165589 3.7451725 0 3 C0 2.01 0 1.02 0 0 Z " fill="#3B3B3D" transform="translate(245,177)"/>
<path d="M0 0 C0.33 0 0.66 0 1 0 C0.67 3.63 0.34 7.26 0 11 C-0.66 11 -1.32 11 -2 11 C-2.28571429 3.57142857 -2.28571429 3.57142857 0 0 Z " fill="#000000" transform="translate(258,24)"/>
<path d="M0 0 C0.66 0.33 1.32 0.66 2 1 C1 4 1 4 -1.9375 5.75 C-3.4534375 6.36875 -3.4534375 6.36875 -5 7 C-5.66 6.67 -6.32 6.34 -7 6 C-4.69 4.02 -2.38 2.04 0 0 Z " fill="#171716" transform="translate(286,18)"/>
<path d="M0 0 C0.99 0.33 1.98 0.66 3 1 C1.8125 3.5 1.8125 3.5 0 6 C-2.6875 6.3125 -2.6875 6.3125 -5 6 C-5 5.34 -5 4.68 -5 4 C-3.35178756 2.96986723 -1.68496298 1.96885372 0 1 C0 0.67 0 0.34 0 0 Z " fill="#3D3928" transform="translate(323,28)"/>
<path d="M0 0 C0.66 0.33 1.32 0.66 2 1 C2 3.31 2 5.62 2 8 C0.68 7.34 -0.64 6.68 -2 6 C-2 4.35 -2 2.7 -2 1 C-1.34 0.67 -0.68 0.34 0 0 Z " fill="#F3F1E9" transform="translate(287,23)"/>
<path d="M0 0 C3 2 3 2 3.51171875 3.9453125 C3.67447917 5.96354167 3.83723958 7.98177083 4 10 C3.01 10.495 3.01 10.495 2 11 C1.855625 9.9275 1.71125 8.855 1.5625 7.75 C1.16250558 5.08337051 0.72408076 2.58600271 0 0 Z " fill="#171717" transform="translate(271,187)"/>
</svg>
