<?xml version="1.0" encoding="UTF-8"?>
<svg xmlns="http://www.w3.org/2000/svg" viewBox="0 0 1039 1124" role="img" aria-labelledby="title desc">
  <title id="title">Canadian maple leaf silhouette</title>
  <desc id="desc">Single red maple leaf silhouette on a transparent background, suitable for web use.</desc>
  <path fill="#FF0000" d="M 521 10 L 422 195 L 406 197 L 313 144 L 366 445 L 341 448 L 224 320 L 183 399 L 26 368 L 77 537 L 10 574 L 270 785 L 241 889 L 477 848 L 501 858 L 494 1113 L 543 1113 L 536 859 L 562 848 L 796 888 L 767 787 L 1028 576 L 960 534 L 1011 368 L 854 399 L 814 321 L 698 447 L 671 444 L 724 145 L 618 196 Z"/>
</svg>
