<?xml version="1.0" encoding="UTF-8"?>
<svg version="1.1" xmlns="http://www.w3.org/2000/svg" width="600" height="175">
<path d="M0 0 C39.6 0 79.2 0 120 0 C120 39.93 120 79.86 120 121 C80.4 121 40.8 121 0 121 C0 81.07 0 41.14 0 0 Z " fill="#FEDF00" transform="translate(36,27)"/>
<path d="M0 0 C0.37276759 7.26206499 0.35994333 14.37198679 -3 21 C-5.6875 22.625 -5.6875 22.625 -8 23 C-8.042721 24.66611905 -8.04063832 26.33382885 -8 28 C-6.96367261 29.23007345 -6.96367261 29.23007345 -4.75 29.375 C-1.75916591 29.28383501 -1.75916591 29.28383501 0.0625 26.5 C4.05296137 23.10386266 6.93104859 23.29829662 12.04296875 23.5 C16.53576526 24.25968025 18.69013531 25.91079295 22 29 C22.495 29.99 22.495 29.99 23 31 C26.91329453 30.45354896 28.58718985 28.70064387 31.25 25.875 C35.31074649 21.66610024 39.54004749 17.77941479 44 14 C47.25345187 16.67527819 48.63882428 20.15624459 50.25 23.9375 C50.6979895 24.97692749 50.6979895 24.97692749 51.1550293 26.03735352 C53.57508087 31.76546201 55.74038821 37.57548915 57.8125 43.4375 C58.2470752 44.6603772 58.2470752 44.6603772 58.69042969 45.90795898 C58.9640332 46.70016846 59.23763672 47.49237793 59.51953125 48.30859375 C59.75776611 48.99751709 59.99600098 49.68644043 60.24145508 50.39624023 C64.94216798 66.53177389 63 74.9753693 63 95 C37.26 95 11.52 95 -15 95 C-15 87.97654453 -14.76950685 82.44542326 -13.1875 75.8125 C-13.02185547 75.05775391 -12.85621094 74.30300781 -12.68554688 73.52539062 C-11.86303383 69.94047526 -10.92120157 66.66078767 -9.36328125 63.32421875 C-7.9130836 59.78806346 -7.49996182 57.77028785 -8 54 C-9.34444351 50.86661954 -9.34444351 50.86661954 -11.25 47.875 C-11.85328125 46.86179688 -12.4565625 45.84859375 -13.078125 44.8046875 C-14.8594975 42.20504227 -16.77814872 40.21202008 -19 38 C-19 37.34 -19 36.68 -19 36 C-15.53846154 33 -15.53846154 33 -13 33 C-15.54456151 30.03134491 -18.48994665 28.6380249 -22 27 C-22.85083133 19.17235178 -19.34965947 12.84028189 -14.6875 6.6875 C-5.88852459 -2.11147541 -5.88852459 -2.11147541 0 0 Z " fill="#FCFCFC" transform="translate(93,53)"/>
<path d="M0 0 C8.18994209 7.340213 12.54733579 19.08237775 16.3046875 29.1796875 C17.10025607 31.29335785 17.94563453 33.39050615 18.8828125 35.4453125 C22.61010262 43.96855634 21.9860389 52.57126774 21.625 61.6875 C19.42167698 57.82914633 18.38042971 53.68477297 17.1875 49.4375 C14.74931442 40.77694176 11.65862629 32.55652285 8.0625 24.3125 C7.75892578 23.60222656 7.45535156 22.89195313 7.14257812 22.16015625 C5.38136744 18.10230652 5.38136744 18.10230652 2.625 14.6875 C2.1309668 15.16695068 1.63693359 15.64640137 1.12792969 16.14038086 C-1.11577414 18.30959288 -3.37018437 20.46734309 -5.625 22.625 C-6.40230469 23.37974609 -7.17960937 24.13449219 -7.98046875 24.91210938 C-8.73457031 25.63076172 -9.48867187 26.34941406 -10.265625 27.08984375 C-10.95688477 27.75491943 -11.64814453 28.41999512 -12.36035156 29.10522461 C-14.46011976 30.75435182 -15.71358461 31.50486054 -18.375 31.6875 C-20.9375 29.375 -20.9375 29.375 -23.375 26.6875 C-28.02396368 23.58819088 -32.93224264 23.92684327 -38.375 24.6875 C-41.31473281 27.04168376 -41.31473281 27.04168376 -43.375 29.6875 C-46.0625 30.125 -46.0625 30.125 -48.375 29.6875 C-50.375 27.6875 -50.375 27.6875 -50.625 25.1875 C-50.375 22.6875 -50.375 22.6875 -48.375 20.6875 C-47.055 20.6875 -45.735 20.6875 -44.375 20.6875 C-42.65169093 13.59423679 -42.1255217 6.97781024 -42.375 -0.3125 C-48.59254584 0.62660849 -53.07449013 3.72805012 -56.9296875 8.6875 C-60.80976921 14.74869272 -62.66216561 19.36477684 -62.375 26.6875 C-59.735 28.0075 -57.095 29.3275 -54.375 30.6875 C-54.375 31.3475 -54.375 32.0075 -54.375 32.6875 C-57.83653846 35.6875 -57.83653846 35.6875 -60.375 35.6875 C-59.76011719 36.48414063 -59.14523438 37.28078125 -58.51171875 38.1015625 C-57.69505263 39.17167673 -56.87866099 40.24200047 -56.0625 41.3125 C-55.26199219 42.35664062 -54.46148437 43.40078125 -53.63671875 44.4765625 C-50.10891834 49.48494236 -47.61186173 53.45520411 -48.375 59.6875 C-48.83390625 60.72390625 -49.2928125 61.7603125 -49.765625 62.828125 C-51.58279884 66.94406159 -52.56720751 71.1106621 -53.5 75.5 C-53.67176758 76.28810059 -53.84353516 77.07620117 -54.02050781 77.88818359 C-55.20514872 83.47899861 -56.00665351 88.97812936 -56.375 94.6875 C-60.335 94.6875 -64.295 94.6875 -68.375 94.6875 C-69.22119656 82.20610073 -64.80609925 71.58413797 -57.375 61.6875 C-56.80910156 61.19507812 -56.24320313 60.70265625 -55.66015625 60.1953125 C-54.16791704 58.70818507 -54.16791704 58.70818507 -53.98828125 56.3125 C-54.46956094 53.04563181 -55.61641228 51.34314209 -57.5625 48.6875 C-58.15417969 47.8625 -58.74585937 47.0375 -59.35546875 46.1875 C-64.35785455 39.99499146 -67.94909136 37.74819096 -75.5625 35.9375 C-77.18132914 35.52737964 -78.7998354 35.11598207 -80.41796875 34.703125 C-81.12977295 34.53071289 -81.84157715 34.35830078 -82.57495117 34.18066406 C-84.375 33.6875 -84.375 33.6875 -86.375 32.6875 C-86.375 31.6975 -86.375 30.7075 -86.375 29.6875 C-83.75105694 28.85070723 -81.12595616 28.01793058 -78.5 27.1875 C-77.75363281 26.94902344 -77.00726563 26.71054688 -76.23828125 26.46484375 C-70.6015625 24.6875 -70.6015625 24.6875 -68.375 24.6875 C-68.28863281 24.07003906 -68.20226562 23.45257813 -68.11328125 22.81640625 C-66.36469253 12.27674766 -61.77917945 4.3845805 -53.375 -2.3125 C-37.67935832 -11.95479207 -14.92036824 -10.94827916 0 0 Z " fill="#5D5D5B" transform="translate(134.375,53.3125)"/>
<path d="M0 0 C9.94776806 19.4534131 9 36.27385263 9 59 C-16.74 59 -42.48 59 -69 59 C-69 51.97654453 -68.76950685 46.44542326 -67.1875 39.8125 C-67.02185547 39.05775391 -66.85621094 38.30300781 -66.68554688 37.52539062 C-65.24989815 31.26812921 -62.96470733 25.70136025 -60 20 C-59.95617187 20.58265625 -59.91234375 21.1653125 -59.8671875 21.765625 C-58.16449797 26.15273497 -53.39395892 27.73080746 -49.30859375 29.5703125 C-39.14100238 33.43214468 -26.85131345 32.19370255 -17 28 C-9.48831892 23.66211399 -4.9864846 17.86688728 -1.75 9.9375 C-0.90818472 6.64039014 -0.405226 3.37688332 0 0 Z " fill="#D0D2D3" transform="translate(147,89)"/>
<path d="M0 0 C6.81528426 0.63104484 10.61404265 2.720175 15.203125 7.77734375 C18.42975295 11.76854224 21.34330827 15.55233084 22.6875 20.5625 C21.77887579 23.78398584 19.96956094 25.41721822 17.7265625 27.8515625 C10.27788265 37.12028177 8.27801596 47.49785633 7 59 C-2.9 59 -12.8 59 -23 59 C-23.11507231 54.53263736 -23.21449895 50.07044969 -23.2746582 45.6027832 C-23.29974109 44.08470199 -23.3338166 42.56674082 -23.37719727 41.04907227 C-23.43813293 38.86184035 -23.46626895 36.67620961 -23.48828125 34.48828125 C-23.51446533 33.17384033 -23.54064941 31.85939941 -23.56762695 30.50512695 C-22.8559597 26.11054341 -21.35582011 24.81694958 -18 22 C-15.97441315 19.8776752 -13.9882498 17.7198015 -12 15.5625 C-11.49210937 15.01529297 -10.98421875 14.46808594 -10.4609375 13.90429688 C-4.2003529 7.59298184 -4.2003529 7.59298184 0 0 Z " fill="#ECD247" transform="translate(59,89)"/>
<path d="M0 0 C3.96 0 7.92 0 12 0 C12.825 1.5675 13.65 3.135 14.5 4.75 C17.96299492 11.12091649 21.91196549 17.00891495 26 23 C26.33 15.41 26.66 7.82 27 0 C29.97 0 32.94 0 36 0 C36 14.19 36 28.38 36 43 C32.7 43 29.4 43 26 43 C23.56721809 40.37735812 22.31200872 38.6452672 20.75 35.5625 C19.97573057 34.16698399 19.19967201 32.77245922 18.421875 31.37890625 C17.62265625 29.93386719 16.8234375 28.48882812 16 27 C14.02 24.03 12.04 21.06 10 18 C10 26.25 10 34.5 10 43 C6.7 43 3.4 43 0 43 C0 28.81 0 14.62 0 0 Z " fill="#58595B" transform="translate(180,68)"/>
<path d="M0 0 C-0.33 2.97 -0.66 5.94 -1 9 C-1.80824219 8.96519531 -2.61648438 8.93039063 -3.44921875 8.89453125 C-5.05216797 8.85392578 -5.05216797 8.85392578 -6.6875 8.8125 C-7.74324219 8.77769531 -8.79898437 8.74289063 -9.88671875 8.70703125 C-13.43157528 9.04061248 -15.19395529 9.83885328 -18 12 C-20.74680208 15.90381518 -21.32303518 20.03892272 -20.5625 24.6875 C-19.52896002 28.18098602 -18.23175164 30.97538573 -15.1953125 33.203125 C-10.08764019 35.05715552 -4.34114244 34.32924851 1 34 C1 36.97 1 39.94 1 43 C-6.00529588 45.33509863 -15.5138921 45.1844585 -22.3203125 42.1171875 C-26.64457583 39.24104957 -30.13616827 34.83749053 -32 30 C-32.79548315 21.97117008 -33.26027937 13.60402675 -28 7 C-20.43721872 -0.91453855 -10.39454404 -2.59863601 0 0 Z " fill="#58595B" transform="translate(404,68)"/>
<path d="M0 0 C0.804375 0.721875 1.60875 1.44375 2.4375 2.1875 C3.3346875 2.9609375 3.3346875 2.9609375 4.25 3.75 C8.00034066 8.28988606 6.80988793 15.68969997 6.4375 21.1875 C4.83705942 25.98882174 2.61214064 28.36961757 -1.5625 31.1875 C-7.19079669 33.0635989 -14.35489953 33.52623141 -19.90234375 31.2109375 C-23.11067037 28.99970181 -25.20255016 26.80358782 -26.5625 23.1875 C-27.18402114 17.25414123 -27.77347376 10.52612428 -25 5.0625 C-18.50679136 -2.59615635 -9.12602649 -4.64306611 0 0 Z M-12.625 5.9375 C-14.85429032 7.19353002 -14.85429032 7.19353002 -16.5625 10.1875 C-17.17672989 14.44722417 -16.95928806 18.18508806 -15.375 22.1875 C-13.67492424 24.31947429 -13.67492424 24.31947429 -11.1875 25.3125 C-8.36420476 25.40365968 -8.36420476 25.40365968 -5.75 23.3125 C-3.19949408 19.66892011 -2.88669827 17.68694233 -3.1328125 13.34375 C-3.77462109 10.1230378 -5.16901577 8.37582844 -7.5625 6.1875 C-10.41418704 4.89171837 -10.41418704 4.89171837 -12.625 5.9375 Z " fill="#58595B" transform="translate(434.5625,79.8125)"/>
<path d="M0 0 C3.27113651 2.86224444 5.39332314 5.38192664 6 9.75 C6 12.39 6 15.03 6 17.75 C-3.9 18.245 -3.9 18.245 -14 18.75 C-9.74512241 24.01185102 -9.74512241 24.01185102 -5.44921875 24.23828125 C-3.58716797 24.15126953 -3.58716797 24.15126953 -1.6875 24.0625 C-0.43324219 24.01738281 0.82101562 23.97226563 2.11328125 23.92578125 C3.06589844 23.86777344 4.01851563 23.80976562 5 23.75 C5 26.39 5 29.03 5 31.75 C-1.52445341 33.76005888 -10.15887481 34.06050154 -16.65625 31.84375 C-20.97790231 29.32816134 -23.55388263 26.63064614 -25 21.75 C-25.75603161 15.51034671 -25.56510535 9.91022155 -22.3125 4.41015625 C-16.9119359 -2.42091441 -7.71321796 -3.21384082 0 0 Z M-11 5.75 C-13.67331713 8.46003293 -13.67331713 8.46003293 -15 11.75 C-11.37 11.75 -7.74 11.75 -4 11.75 C-4.33 10.1 -4.66 8.45 -5 6.75 C-7.97 6.255 -7.97 6.255 -11 5.75 Z " fill="#58595B" transform="translate(363,79.25)"/>
<path d="M0 0 C3.3 0 6.6 0 10 0 C10.04898437 1.48113281 10.09796875 2.96226563 10.1484375 4.48828125 C10.22346843 6.4297065 10.29901612 8.37111182 10.375 10.3125 C10.4059375 11.28896484 10.436875 12.26542969 10.46875 13.27148438 C10.50742187 14.20927734 10.54609375 15.14707031 10.5859375 16.11328125 C10.6173584 16.97735596 10.6487793 17.84143066 10.68115234 18.73168945 C10.87188037 21.27742445 10.87188037 21.27742445 13 24 C15.31 24 17.62 24 20 24 C20 16.08 20 8.16 20 0 C23.3 0 26.6 0 30 0 C30.33 10.56 30.66 21.12 31 32 C27.04 32 23.08 32 19 32 C18.01 32.495 18.01 32.495 17 33 C11.55518893 33.61374682 7.38411467 34.02424485 2.875 30.6875 C0.11978127 26.73835315 -0.12151702 23.93885351 -0.09765625 19.23828125 C-0.09443359 18.12001953 -0.09121094 17.00175781 -0.08789062 15.84960938 C-0.07951172 14.68236328 -0.07113281 13.51511719 -0.0625 12.3125 C-0.05573242 10.54422852 -0.05573242 10.54422852 -0.04882812 8.74023438 C-0.03703273 5.82677211 -0.0205727 2.91341137 0 0 Z " fill="#58595B" transform="translate(445,79)"/>
<path d="M0 0 C3.3 0 6.6 0 10 0 C10.04898437 1.39734375 10.09796875 2.7946875 10.1484375 4.234375 C10.22348082 6.07293622 10.29902797 7.91147692 10.375 9.75 C10.4059375 10.67039062 10.436875 11.59078125 10.46875 12.5390625 C10.50742187 13.42851563 10.54609375 14.31796875 10.5859375 15.234375 C10.6173584 16.05131836 10.6487793 16.86826172 10.68115234 17.70996094 C11.02343693 20.16832958 11.7739277 21.85759999 13 24 C15.31 24 17.62 24 20 24 C20 16.08 20 8.16 20 0 C23.3 0 26.6 0 30 0 C30.33 10.56 30.66 21.12 31 32 C27.37 32 23.74 32 20 32 C18.515 32.495 18.515 32.495 17 33 C12.4582991 33.4002855 8.32202014 33.46821547 4 31.9375 C0.64740899 28.68967746 0.10296129 24.78535511 -0.15722656 20.27368164 C-0.19638754 17.20079987 -0.17459047 14.13520158 -0.125 11.0625 C-0.11597656 9.99708984 -0.10695313 8.93167969 -0.09765625 7.83398438 C-0.07423539 5.22255839 -0.03836937 2.61124913 0 0 Z " fill="#58595B" transform="translate(278,79)"/>
<path d="M0 0 C1.64162109 -0.02513672 1.64162109 -0.02513672 3.31640625 -0.05078125 C7.74802949 0.46503973 10.32564622 2.20064622 13.4375 5.3125 C14.55927204 8.52514892 14.5531397 11.57223688 14.53515625 14.953125 C14.53193359 16.02304688 14.52871094 17.09296875 14.52539062 18.1953125 C14.51701172 19.30648437 14.50863281 20.41765625 14.5 21.5625 C14.49548828 22.68914062 14.49097656 23.81578125 14.48632812 24.9765625 C14.47455397 27.75526217 14.4581084 30.53385409 14.4375 33.3125 C13.75042969 33.30089844 13.06335938 33.28929687 12.35546875 33.27734375 C11.45441406 33.26832031 10.55335938 33.25929687 9.625 33.25 C8.73167969 33.23839844 7.83835938 33.22679687 6.91796875 33.21484375 C4.30336209 33.20240033 4.30336209 33.20240033 1.4375 34.3125 C-3.29366741 34.8016546 -7.29575974 34.86986571 -11.6875 32.9375 C-14.16991836 29.4621143 -14.26982836 26.92780433 -14.046875 22.72265625 C-13.29115827 18.96235605 -11.65877984 17.4664338 -8.5625 15.3125 C-4.15269427 13.29932782 -0.37482093 13.12000716 4.4375 13.3125 C4.1075 12.3225 3.7775 11.3325 3.4375 10.3125 C0.43436252 8.81093126 -2.35317522 9.21968796 -5.6875 9.25 C-6.96882812 9.25902344 -8.25015625 9.26804687 -9.5703125 9.27734375 C-10.55773437 9.28894531 -11.54515625 9.30054687 -12.5625 9.3125 C-12.5625 7.0025 -12.5625 4.6925 -12.5625 2.3125 C-8.24680355 0.67865413 -4.61098002 0.01633169 0 0 Z M-4.5625 22.3125 C-4.2325 23.6325 -3.9025 24.9525 -3.5625 26.3125 C-0.95667629 27.24315133 0.07948224 27.46167407 2.6875 26.375 C3.265 26.024375 3.8425 25.67375 4.4375 25.3125 C4.4375 23.3325 4.4375 21.3525 4.4375 19.3125 C0.16040301 19.3125 -1.12180376 20.01870251 -4.5625 22.3125 Z " fill="#58595B" transform="translate(235.5625,77.6875)"/>
<path d="M0 0 C0.56847656 -0.32484375 1.13695312 -0.6496875 1.72265625 -0.984375 C6.23908965 -2.99856485 11.25775746 -2.48189687 15.9375 -1.1875 C18 0 18 0 20 3 C20.22705078 5.91088867 20.22705078 5.91088867 20.1953125 9.41796875 C20.18886719 10.67158203 20.18242187 11.92519531 20.17578125 13.21679688 C20.15902344 14.52712891 20.14226562 15.83746094 20.125 17.1875 C20.11496639 18.52277987 20.1058412 19.85806689 20.09765625 21.19335938 C20.07405292 24.46242015 20.04112594 27.73112028 20 31 C16.7 31 13.4 31 10 31 C10.03480469 29.51886719 10.06960938 28.03773437 10.10546875 26.51171875 C10.13360491 24.57032382 10.16090525 22.62891665 10.1875 20.6875 C10.21263672 19.71103516 10.23777344 18.73457031 10.26367188 17.72851562 C10.27333984 16.79072266 10.28300781 15.85292969 10.29296875 14.88671875 C10.3086792 14.02264404 10.32438965 13.15856934 10.34057617 12.26831055 C10.13805354 9.97519882 10.13805354 9.97519882 8.91918945 8.13208008 C6.35256342 6.34871638 6.35256342 6.34871638 0 8 C0 15.59 0 23.18 0 31 C-3.3 31 -6.6 31 -10 31 C-10.33 20.44 -10.66 9.88 -11 -1 C-3 -2 -3 -2 0 0 Z " fill="#58595B" transform="translate(491,80)"/>
<path d="M0 0 C1.8871875 -0.00386719 1.8871875 -0.00386719 3.8125 -0.0078125 C7 0.125 7 0.125 9 1.125 C8.67 3.765 8.34 6.405 8 9.125 C4.04 9.125 0.08 9.125 -4 9.125 C-2.33521879 12.45456242 1.26289352 13.22339212 4.5546875 14.7109375 C7.21942893 16.25189021 8.45975951 17.47678007 10 20.125 C10.64005872 25.16546243 10.64005872 25.16546243 10 28.125 C7.46546343 31.34454645 5.88702695 32.82932435 2 34.125 C-0.53257899 34.22099519 -3.03092392 34.26437035 -5.5625 34.25 C-6.24763672 34.25386719 -6.93277344 34.25773437 -7.63867188 34.26171875 C-12.7466133 34.25169335 -12.7466133 34.25169335 -15 33.125 C-14.67 30.485 -14.34 27.845 -14 25.125 C-9.38 25.125 -4.76 25.125 0 25.125 C-2.60587557 22.51912443 -3.81637628 21.59239456 -7 20.1875 C-12.50679206 17.48471787 -12.50679206 17.48471787 -14 14.125 C-14.64221857 9.06752874 -14.64221857 9.06752874 -14 6.125 C-9.54864417 0.61937569 -6.87833681 -0.01409495 0 0 Z " fill="#58595B" transform="translate(554,77.875)"/>
<path d="M0 0 C0 3.3 0 6.6 0 10 C2.64 9.67 5.28 9.34 8 9 C8 11.64 8 14.28 8 17 C5.36 17 2.72 17 0 17 C0.14024219 19.47960136 0.2869185 21.95852402 0.4375 24.4375 C0.47681641 25.14455078 0.51613281 25.85160156 0.55664062 26.58007812 C0.47624438 30.08690419 0.47624438 30.08690419 2 33 C4.32817964 33.36760731 6.6618385 33.70241581 9 34 C8.74438677 36.3431213 8.40729228 38.67843403 8 41 C4.54506191 42.72746904 0.78446758 42.35356617 -3 42 C-5.9375 40.875 -5.9375 40.875 -8 39 C-10.11062715 34.11687655 -10.2474169 29.83242657 -10.125 24.625 C-10.11597656 23.88894531 -10.10695313 23.15289062 -10.09765625 22.39453125 C-10.07430144 20.5962112 -10.03843836 18.79806089 -10 17 C-11.32 17 -12.64 17 -14 17 C-14 14.69 -14 12.38 -14 10 C-12.35 10 -10.7 10 -9 10 C-9 7.03 -9 4.06 -9 1 C-6.04335481 -0.4783226 -3.25770263 -0.06032783 0 0 Z " fill="#58595B" transform="translate(267,70)"/>
<path d="M0 0 C0 3.3 0 6.6 0 10 C2.64 9.67 5.28 9.34 8 9 C8.04241723 11.33294775 8.04092937 13.66702567 8 16 C7 17 7 17 3.4375 17.0625 C2.303125 17.041875 1.16875 17.02125 0 17 C-0.2358396 22.77807024 0.13216954 27.51324804 2 33 C3.98 33.33 5.96 33.66 8 34 C8 36.31 8 38.62 8 41 C4.54506191 42.72746904 0.78446758 42.35356617 -3 42 C-5.9375 40.875 -5.9375 40.875 -8 39 C-10.11062715 34.11687655 -10.2474169 29.83242657 -10.125 24.625 C-10.11597656 23.88894531 -10.10695313 23.15289062 -10.09765625 22.39453125 C-10.07430144 20.5962112 -10.03843836 18.79806089 -10 17 C-11.32 17 -12.64 17 -14 17 C-14 14.69 -14 12.38 -14 10 C-12.35 10 -10.7 10 -9 10 C-9 7.03 -9 4.06 -9 1 C-6.04335481 -0.4783226 -3.25770263 -0.06032783 0 0 Z " fill="#58595B" transform="translate(529,70)"/>
<path d="M0 0 C0.33 0.66 0.66 1.32 1 2 C1.99 1.34 2.98 0.68 4 0 C7.42017557 -0.39958487 10.87293041 -0.5635348 14 1 C13.34 3.97 12.68 6.94 12 10 C10.906875 9.95875 9.81375 9.9175 8.6875 9.875 C4.91107771 9.67925334 4.91107771 9.67925334 2 12 C1.49223956 14.21932277 1.49223956 14.21932277 1.48828125 16.7890625 C1.45283203 17.73007813 1.41738281 18.67109375 1.38085938 19.640625 C1.34702148 21.11789063 1.34702148 21.11789063 1.3125 22.625 C1.27833984 23.61757812 1.24417969 24.61015625 1.20898438 25.6328125 C1.12635318 28.08813947 1.06150472 30.54405301 1 33 C-2.3 33 -5.6 33 -9 33 C-9.33 22.44 -9.66 11.88 -10 1 C-2 0 -2 0 0 0 Z " fill="#58595B" transform="translate(323,78)"/>
</svg>
