<?xml version="1.0" encoding="UTF-8"?>
<svg version="1.1" xmlns="http://www.w3.org/2000/svg" width="1800" height="525">
<path d="M0 0 C117.81 0 235.62 0 357 0 C357 117.81 357 235.62 357 357 C239.19 357 121.38 357 0 357 C0 239.19 0 121.38 0 0 Z " fill="#FEDF00" transform="translate(110,84)"/>
<path d="M0 0 C4.68997864 21.733026 1.98822127 45.02355746 -8 65 C-9.7394392 65.31520039 -11.49327552 65.55272078 -13.25 65.75 C-17.1977674 66.38574436 -19.54869683 66.85965413 -22.125 70 C-24.9142739 74.46283825 -25.67307531 77.74811658 -25 83 C-23.62944197 86.96287066 -21.67705649 89.5335833 -18.1875 91.9375 C-13.2859446 93.5713518 -9.69093429 93.59680034 -4.8125 91.875 C-0.61959651 89.07973101 1.42162539 85.73512382 3 81 C13.47125941 73.99838409 26.67034459 72.05260595 38.96582031 74.37060547 C52.29994572 77.58215798 62.80701104 85.07601472 71 96 C71.70444893 97.31376327 72.38521372 98.64196464 73 100 C76.32837116 99.4124262 78.01478631 98.37717124 80.43359375 96.04296875 C81.07554687 95.43130859 81.7175 94.81964844 82.37890625 94.18945312 C83.05824219 93.52880859 83.73757813 92.86816406 84.4375 92.1875 C85.88366635 90.80552038 87.33028642 89.42401541 88.77734375 88.04296875 C89.49390137 87.35509277 90.21045898 86.6672168 90.94873047 85.95849609 C93.76580386 83.2688314 96.62849733 80.63126645 99.5 78 C105.04196726 72.9026357 110.53522805 67.7544944 116.0234375 62.59936523 C122.31411895 56.69496712 128.64924002 50.8396543 135 45 C138 46 138 46 139.45117188 48.31542969 C140.20237305 49.85312012 140.20237305 49.85312012 140.96875 51.421875 C141.53440674 52.5778418 142.10006348 53.73380859 142.68286133 54.92480469 C143.2898623 56.1992571 143.8955405 57.47434023 144.5 58.75 C144.80924408 59.39569946 145.11848816 60.04139893 145.43710327 60.70666504 C152.17539135 74.8150709 157.71635704 89.28673711 163 104 C163.81083229 106.23711172 164.62202188 108.47409398 165.43359375 110.7109375 C166.95239488 114.90716715 168.45704533 119.10812214 169.953125 123.3125 C171.1939686 126.78778636 172.46484101 130.24616498 173.796875 133.6875 C177.65116743 143.68829968 180.82955212 153.8359347 183.8125 164.125 C184.00763184 164.7966217 184.20276367 165.46824341 184.40380859 166.16021729 C196.13522932 206.69744129 190 232.68765809 190 285 C113.44 285 36.88 285 -42 285 C-42 264.04552469 -42 264.04552469 -40.8125 255.875 C-40.68012939 254.92326904 -40.54775879 253.97153809 -40.41137695 252.9909668 C-31.45363355 191.45363355 -31.45363355 191.45363355 -18 178 C-17.16513879 171.93269471 -19.77594256 167.35668155 -22.375 162.0625 C-22.82472168 161.1346167 -23.27444336 160.2067334 -23.73779297 159.25073242 C-31.36870354 143.86274761 -41.49928922 130.56071422 -53.3125 118.12890625 C-55 116 -55 116 -55 113 C-53.34765625 111.46606445 -53.34765625 111.46606445 -51.0625 109.86328125 C-49.84433594 108.99799805 -49.84433594 108.99799805 -48.6015625 108.11523438 C-47.74304688 107.52033203 -46.88453125 106.92542969 -46 106.3125 C-44.71222656 105.40274414 -44.71222656 105.40274414 -43.3984375 104.47460938 C-41.27170688 102.97408277 -39.13888554 101.48312498 -37 100 C-37.03139568 97.58905259 -37.03139568 97.58905259 -38 95 C-40.63799848 93.1967764 -40.63799848 93.1967764 -44.00390625 91.88671875 C-44.60178452 91.62744095 -45.19966278 91.36816315 -45.81565857 91.10102844 C-47.72407303 90.27831329 -49.64253098 89.48282308 -51.5625 88.6875 C-52.85947546 88.13391883 -54.15571064 87.57859983 -55.45117188 87.02148438 C-58.6272338 85.66368839 -61.80982117 84.32420727 -65 83 C-63.41693812 62.40157134 -56.36090653 42.98120082 -43 27 C-42.32582031 26.1646875 -41.65164062 25.329375 -40.95703125 24.46875 C-32.7516888 14.78375563 -23.31952443 7.77713748 -11.9375 2.3125 C-11.21111328 1.96106934 -10.48472656 1.60963867 -9.73632812 1.24755859 C-6.02531779 -0.43839479 -3.885153 -1.27470708 0 0 Z " fill="#FEFEFE" transform="translate(277,156)"/>
<path d="M0 0 C31.4684874 29.2359258 46.09427335 76.67806771 59.0793457 116.60986328 C60.24396338 120.11922752 60.24396338 120.11922752 61.72338867 123.27685547 C66.8671947 135.1273268 65.8624462 147.33753841 65.625 160.0234375 C65.59987354 162.36846568 65.5770681 164.71351993 65.55664062 167.05859375 C65.50202059 172.75578521 65.4187429 178.45198695 65.3125 184.1484375 C64.9825 184.1484375 64.6525 184.1484375 64.3125 184.1484375 C64.07297607 183.157229 64.07297607 183.157229 63.82861328 182.14599609 C57.73958456 157.21302587 49.76347091 133.09520838 40.58203125 109.12890625 C38.98717674 104.96099214 37.45082319 100.77662137 35.94921875 96.57421875 C29.23362336 77.8643705 21.27742018 59.88708288 12.3125 42.1484375 C9.39926185 43.47252828 7.26003755 44.92652674 4.94921875 47.1328125 C4.00163696 48.03012085 4.00163696 48.03012085 3.03491211 48.94555664 C2.36339111 49.59000732 1.69187012 50.23445801 1 50.8984375 C-0.44249465 52.26715232 -1.88520796 53.63563672 -3.328125 55.00390625 C-4.05708984 55.69790527 -4.78605469 56.3919043 -5.53710938 57.10693359 C-8.75547372 60.16233353 -12.00194623 63.18716949 -15.25 66.2109375 C-16.4857967 67.36315296 -17.72147356 68.51549699 -18.95703125 69.66796875 C-19.87476318 70.52382568 -19.87476318 70.52382568 -20.81103516 71.39697266 C-23.38176768 73.7964568 -25.9489021 76.19977685 -28.51611328 78.60302734 C-30.39390669 80.3577024 -32.27666931 82.10690924 -34.16015625 83.85546875 C-36.44160272 85.97541888 -38.69729232 88.11768527 -40.93359375 90.28515625 C-41.91401471 91.21880019 -42.89448051 92.15239704 -43.875 93.0859375 C-45.13376953 94.30603516 -45.13376953 94.30603516 -46.41796875 95.55078125 C-48.6875 97.1484375 -48.6875 97.1484375 -50.8203125 97.15625 C-53.25334063 95.84302561 -54.00761354 94.47989037 -55.375 92.0859375 C-60.86411695 83.43266792 -68.28218098 78.00403412 -77.6875 74.1484375 C-78.83992188 73.66890625 -78.83992188 73.66890625 -80.015625 73.1796875 C-90.88030573 69.29430499 -102.98825725 70.13622147 -113.6875 74.1484375 C-115.70831924 75.10566767 -117.71870677 76.08831807 -119.6875 77.1484375 C-120.3475 77.1484375 -121.0075 77.1484375 -121.6875 77.1484375 C-121.749375 77.8496875 -121.81125 78.5509375 -121.875 79.2734375 C-123.18594611 83.91216991 -125.89770595 87.11224095 -130.0625 89.5234375 C-134.88675237 90.67206902 -138.89285029 90.82221348 -143.375 88.5859375 C-147.11598694 86.18462832 -149.24798055 83.34774573 -150.6875 79.1484375 C-151.50064863 74.81443913 -151.02198812 71.75974338 -148.875 67.8359375 C-144.45345745 62.40375665 -144.45345745 62.40375665 -140.6875 61.1484375 C-139.29310336 61.08178374 -137.89580125 61.06305551 -136.5 61.0859375 C-135.241875 61.1065625 -133.98375 61.1271875 -132.6875 61.1484375 C-132.51734375 60.57738281 -132.3471875 60.00632812 -132.171875 59.41796875 C-131.80835938 58.20173828 -131.80835938 58.20173828 -131.4375 56.9609375 C-131.16550781 56.04570312 -130.89351562 55.13046875 -130.61328125 54.1875 C-129.98759408 52.13355647 -129.33846751 50.08662985 -128.66796875 48.046875 C-123.12060269 30.96846713 -121.89219741 13.7355986 -125.6875 -3.8515625 C-141.76161157 -2.19132562 -156.40785607 11.04076139 -166.8125 22.5234375 C-176.38186699 34.5320549 -183.5561369 49.1178946 -186.6875 64.1484375 C-186.83123047 64.82261719 -186.97496094 65.49679688 -187.12304688 66.19140625 C-188.03731972 70.49986801 -188.88676926 74.81721215 -189.6875 79.1484375 C-189.14730225 79.31786865 -188.60710449 79.4872998 -188.05053711 79.66186523 C-182.28637744 81.51969395 -176.77281751 83.73233747 -171.25 86.2109375 C-170.44884766 86.56220703 -169.64769531 86.91347656 -168.82226562 87.27539062 C-167.67467773 87.78682617 -167.67467773 87.78682617 -166.50390625 88.30859375 C-165.81756104 88.61418213 -165.13121582 88.91977051 -164.42407227 89.23461914 C-162.6875 90.1484375 -162.6875 90.1484375 -160.6875 92.1484375 C-160.63671875 94.45703125 -160.63671875 94.45703125 -161.6875 97.1484375 C-163.93884932 99.03863893 -166.05496824 100.62105253 -168.5 102.2109375 C-172.58226695 104.93941275 -176.34361114 107.50132446 -179.6875 111.1484375 C-179.26082031 111.52871094 -178.83414063 111.90898437 -178.39453125 112.30078125 C-164.16346865 125.71025673 -153.61369329 142.73855033 -145.125 160.2109375 C-144.77783936 160.91347656 -144.43067871 161.61601562 -144.07299805 162.33984375 C-142.1642668 166.4128481 -141.04537395 169.56627586 -141.6875 174.1484375 C-142.9375 176.953125 -142.9375 176.953125 -144.6875 180.0234375 C-153.57886848 196.69417902 -158.10701516 215.71282474 -161.6875 234.1484375 C-161.84057617 234.92396973 -161.99365234 235.69950195 -162.15136719 236.49853516 C-164.9857745 251.25974629 -165.73735016 266.16530542 -166.6875 281.1484375 C-179.2275 281.1484375 -191.7675 281.1484375 -204.6875 281.1484375 C-204.6875 272.22447672 -203.96795895 264.80422637 -202.13623047 256.25878906 C-201.69670811 254.19174265 -201.28715609 252.12028935 -200.87890625 250.046875 C-195.30745898 223.03302287 -181.98383628 196.98582318 -161.6484375 178.1640625 C-159.69794524 176.15917404 -158.54853424 174.80244892 -157.6875 172.1484375 C-157.96004116 167.38309658 -160.41403919 163.34175937 -162.625 159.2109375 C-163.02614014 158.46094482 -163.42728027 157.71095215 -163.84057617 156.93823242 C-169.4548567 146.67382757 -176.33632329 137.56811924 -183.875 128.6484375 C-184.34977783 128.08487549 -184.82455566 127.52131348 -185.3137207 126.94067383 C-186.73290354 125.30187593 -188.1929661 123.71867812 -189.6875 122.1484375 C-190.16606445 121.62628662 -190.64462891 121.10413574 -191.13769531 120.56616211 C-196.48732986 115.32004216 -203.00382628 113.7340622 -210.0625 111.7109375 C-211.34766616 111.32870986 -212.63241095 110.94506282 -213.91674805 110.56005859 C-223.42848695 107.72754076 -232.98636835 105.03644387 -242.56591797 102.44360352 C-253.9239416 99.35040758 -253.9239416 99.35040758 -258.6875 97.1484375 C-259.58520508 95.23876953 -259.58520508 95.23876953 -259.6875 93.1484375 C-257.53879731 89.89036358 -254.43290622 89.21209744 -250.82421875 88.1328125 C-249.63675049 87.77179443 -248.44928223 87.41077637 -247.22583008 87.03881836 C-245.94226239 86.65854846 -244.65865148 86.27842444 -243.375 85.8984375 C-242.06829189 85.50436843 -240.76189698 85.10925939 -239.45581055 84.71313477 C-237.47003199 84.1109089 -235.48410024 83.5092843 -233.49708557 82.91114807 C-226.37230949 80.76418184 -219.29203127 78.48136512 -212.21557617 76.18066406 C-211.37744385 75.91092773 -210.53931152 75.64119141 -209.67578125 75.36328125 C-208.94915283 75.12730225 -208.22252441 74.89132324 -207.47387695 74.64819336 C-205.6875 74.1484375 -205.6875 74.1484375 -203.6875 74.1484375 C-203.6450415 73.53822754 -203.60258301 72.92801758 -203.55883789 72.29931641 C-203.04710964 66.12189855 -201.93629787 60.44530632 -200.125 54.5234375 C-199.86251465 53.66169922 -199.6000293 52.79996094 -199.32958984 51.91210938 C-190.6621346 24.64710215 -172.50207451 2.25696036 -147.6875 -11.8515625 C-146.74132812 -12.39941406 -145.79515625 -12.94726562 -144.8203125 -13.51171875 C-104.34772932 -35.42969662 -35.02625739 -30.07188545 0 0 Z " fill="#595A5B" transform="translate(401.6875,159.8515625)"/>
<path d="M0 0 C2.57590712 2.57590712 3.3525443 5.37534239 4.5 8.75 C4.87705078 9.84429321 4.87705078 9.84429321 5.26171875 10.96069336 C5.84297268 12.65550565 6.42082587 14.35148638 6.99609375 16.04833984 C7.71165251 18.15220789 8.43371546 20.25386847 9.16015625 22.35400391 C10.23349538 25.45751856 11.29815164 28.56365652 12.35522461 31.67272949 C12.97122207 33.47815483 13.59575617 35.28066078 14.22070312 37.08300781 C30.01303125 83.91499209 24 112.72486587 24 170 C-52.56 170 -129.12 170 -208 170 C-208 149.04552469 -208 149.04552469 -206.8125 140.875 C-206.68012939 139.92326904 -206.54775879 138.97153809 -206.41137695 137.9909668 C-202.62776157 111.99852761 -195.84913792 87.90144079 -185 64 C-184.49791016 64.38164307 -183.99582031 64.76328613 -183.47851562 65.15649414 C-154.3958398 87.1363911 -122.82190718 96.53210919 -86.3918457 91.47851562 C-60.67295377 87.4759869 -36.91701999 74.70958977 -21.20214844 53.69140625 C-10.00653821 37.93933727 -2.48643143 19.13577128 0 0 Z " fill="#D0D2D3" transform="translate(443,271)"/>
<path d="M0 0 C3.37783273 0.92748644 6.7516724 1.86877145 10.125 2.8125 C11.55199219 3.20405273 11.55199219 3.20405273 13.0078125 3.60351562 C34.2468185 9.57698606 47.45554374 30.57081479 58.12841797 48.94238281 C64.07373473 59.56111936 64.07373473 59.56111936 63.86328125 63.66796875 C62.91025683 66.24242839 61.87233665 67.68947408 60 69.6875 C59.36707031 70.38101563 58.73414063 71.07453125 58.08203125 71.7890625 C56.68910488 73.26823009 55.29060935 74.7421721 53.88671875 76.2109375 C42.84238064 88.02033634 35.37415928 101.23761123 29 116 C28.53980469 117.01835937 28.07960938 118.03671875 27.60546875 119.0859375 C24.58904498 126.22959505 22.68264291 133.61267334 20.8125 141.125 C20.56226074 142.10726562 20.31202148 143.08953125 20.05419922 144.1015625 C17.73782043 153.82440193 17.07361604 162.80064761 16 173 C-12.71 173 -41.42 173 -71 173 C-71.52141452 150.60145825 -71.52141452 150.60145825 -71.63476562 140.98046875 C-71.71219308 134.43983167 -71.8033077 127.90158201 -71.98071289 121.36279297 C-72.12300396 116.08460711 -72.19990266 110.80898312 -72.23340416 105.52902603 C-72.25724435 103.52502253 -72.30380234 101.52114399 -72.37449074 99.5182457 C-72.69693881 89.99453851 -72.95146571 82.21085939 -66.43402386 74.73259163 C-64.21086804 72.46580974 -61.90724277 70.34218658 -59.48607445 68.28911209 C-57.62123505 66.67143606 -56.02310106 64.88879745 -54.4375 63 C-53.91414063 62.39542969 -53.39078125 61.79085937 -52.8515625 61.16796875 C-51.34345927 59.40215168 -49.83908179 57.63331461 -48.3359375 55.86328125 C-42.78367872 49.33750327 -37.14098601 42.94045846 -31.28808594 36.68261719 C-27.46682236 32.57106771 -23.93488751 28.27610269 -20.42578125 23.89453125 C-16.98278804 19.78622534 -13.3133027 15.90142833 -9.60375977 12.03344727 C-6.00617645 8.24119073 -2.95610385 4.31372191 0 0 Z " fill="#ECD247" transform="translate(181,268)"/>
<path d="M0 0 C9.57 0 19.14 0 29 0 C30.423125 2.619375 31.84625 5.23875 33.3125 7.9375 C38.451892 17.25508062 44.12741162 26.13322377 50 35 C61.15828481 51.90806183 72.23457293 68.70194853 81 87 C80.93433838 85.99646484 80.86867676 84.99292969 80.80102539 83.95898438 C80.03239446 71.59128873 79.71824241 59.22963898 79.49731445 46.84130859 C79.4375859 43.5047987 79.37250661 40.16842507 79.30664062 36.83203125 C79.07177382 24.55214489 78.95465462 12.28211926 79 0 C87.25 0 95.5 0 104 0 C103.9278125 2.60261719 103.855625 5.20523438 103.78125 7.88671875 C102.72017257 47.30413231 103.03983411 86.58176116 104 126 C95.75 126 87.5 126 79 126 C78.154375 124.30875 77.30875 122.6175 76.4375 120.875 C69.81161476 108.27224176 61.08400559 96.77981381 52.890625 85.171875 C41.32485792 68.75643739 30.64042203 52.15145373 22 34 C22.09849243 35.23157837 22.09849243 35.23157837 22.19897461 36.48803711 C23.06145889 48.1723627 23.33397117 59.85083682 23.5625 71.5625 C23.59426834 73.10298508 23.59426834 73.10298508 23.62667847 74.67459106 C23.9782877 91.78596288 24.12254039 108.88519219 24 126 C16.08 126 8.16 126 0 126 C0 84.42 0 42.84 0 0 Z " fill="#58595B" transform="translate(543,206)"/>
<path d="M0 0 C9.26228609 8.71575368 13.46839425 18.7284805 14.09375 31.37890625 C14.50931003 45.87282921 12.6444712 61.08762202 2.43359375 72.31640625 C-11.3838943 85.06844944 -25.53956807 88.65969049 -43.71728516 87.98730469 C-55.78695519 87.13319481 -65.25047868 81.12077569 -73.5 72.625 C-84.08955365 60.12761179 -84.23743118 44.34118234 -83.1875 28.8125 C-81.50556688 16.85573318 -75.1892287 6.6392481 -66.08984375 -1.078125 C-45.68940964 -15.90482005 -19.54031368 -16.48713967 0 0 Z M-51.8671875 15.73046875 C-58.26726307 25.82289561 -58.51120514 37.32328355 -56.71484375 48.84375 C-54.70101189 56.65789998 -49.9811609 63.39662041 -43.1875 67.8125 C-38.07520882 70.25245716 -33.58184816 70.18627288 -28.1875 68.8125 C-20.92246734 65.98059292 -17.41817719 60.68831625 -14.1875 53.8125 C-10.48051206 43.7025329 -10.89644683 31.6819223 -15.1875 21.8125 C-18.37905104 15.39544526 -22.23231939 10.9982577 -28.5625 7.5 C-38.03910954 5.01803084 -45.93354683 8.02970559 -51.8671875 15.73046875 Z " fill="#58595B" transform="translate(1308.1875,247.1875)"/>
<path d="M0 0 C1.31641479 0.0012085 1.31641479 0.0012085 2.65942383 0.00244141 C9.24361351 0.06424203 15.98096502 0.2035374 22.3125 2.1875 C23.5794226 4.72134519 23.21435796 5.90574857 22.7890625 8.6875 C22.655 9.574375 22.5209375 10.46125 22.3828125 11.375 C22.23585938 12.303125 22.08890625 13.23125 21.9375 14.1875 C21.79828125 15.115625 21.6590625 16.04375 21.515625 17 C20.45089286 23.91071429 20.45089286 23.91071429 19.3125 26.1875 C18.20132812 25.9709375 17.09015625 25.754375 15.9453125 25.53125 C1.88321268 22.86285379 -11.6185098 20.98084206 -24.5625 28.8125 C-32.60529364 34.71733584 -37.31910516 44.43675211 -39.2734375 54.078125 C-41.09108491 67.72762818 -38.99753196 80.25568382 -31.44140625 91.90234375 C-24.47422541 100.97985108 -15.9550594 105.66907575 -4.6875 107.1875 C4.29103576 107.77183524 12.42862008 106.8311766 21.1328125 104.84375 C24.3125 104.1875 24.3125 104.1875 28.3125 104.1875 C28.17115273 107.08361544 28.0245847 109.9793081 27.875 112.875 C27.83568359 113.69162109 27.79636719 114.50824219 27.75585938 115.34960938 C27.54351997 119.38405811 27.26802078 123.24497309 26.3125 127.1875 C4.89104412 132.82472523 -19.76156857 132.65993555 -39.6875 122.1875 C-42.91578592 120.07902576 -45.8145272 117.75483739 -48.6875 115.1875 C-49.30238281 114.65382813 -49.91726563 114.12015625 -50.55078125 113.5703125 C-61.71135423 103.22636682 -68.23702227 88.13181187 -68.92578125 73.0078125 C-69.37785716 53.99021556 -65.47820954 36.12450503 -52.1875 21.6875 C-50.38691404 19.81554382 -48.54836177 18.00121624 -46.6875 16.1875 C-46.08035156 15.57132813 -45.47320313 14.95515625 -44.84765625 14.3203125 C-32.91548268 3.05914136 -15.79862169 -0.01502199 0 0 Z " fill="#58595B" transform="translate(1185.6875,203.8125)"/>
<path d="M0 0 C1.093125 0.598125 2.18625 1.19625 3.3125 1.8125 C11.84944685 8.76117766 16.29863535 17.20376354 18 28 C18.23640759 31.50638148 18.23672039 34.98721851 18.1875 38.5 C18.1865332 39.85738281 18.1865332 39.85738281 18.18554688 41.2421875 C18.14083759 47.85916241 18.14083759 47.85916241 17 49 C15.23196037 49.16007335 13.45768752 49.25176201 11.68359375 49.31640625 C10.54108154 49.35838135 9.39856934 49.40035645 8.22143555 49.44360352 C6.97273682 49.48283936 5.72403809 49.5220752 4.4375 49.5625 C3.16237549 49.6049585 1.88725098 49.64741699 0.57348633 49.69116211 C-14.2817715 50.15435424 -29.13942963 50.09519435 -44 50 C-43.38255418 51.58866221 -42.76057192 53.17556171 -42.13671875 54.76171875 C-41.79084717 55.64561279 -41.44497559 56.52950684 -41.08862305 57.44018555 C-37.88920724 64.96336894 -33.49319253 68.75607765 -26 72 C-14.6998851 75.27120129 -1.39668703 73.11056895 9.875 70.65625 C13 70 13 70 16 70 C16.12910853 76.74233419 15.797837 83.30386804 15 90 C13.31409158 90.48473678 11.62617455 90.96248926 9.9375 91.4375 C8.99777344 91.70433594 8.05804687 91.97117187 7.08984375 92.24609375 C-0.80029247 94.17124709 -8.52814357 94.24823923 -16.625 94.3125 C-18.41744141 94.35600586 -18.41744141 94.35600586 -20.24609375 94.40039062 C-34.40935119 94.50013187 -47.38166571 90.47260485 -57.8125 80.625 C-68.42158074 69.19408906 -70.87805584 56.27117138 -70.38671875 41.08203125 C-70.00858561 34.63706802 -68.58782305 28.9162402 -66 23 C-65.649375 22.19691406 -65.29875 21.39382813 -64.9375 20.56640625 C-58.9520232 8.57466975 -50.11625466 1.93401653 -38 -3 C-26.77065425 -6.37200961 -10.21749787 -5.72259086 0 0 Z M-36.79296875 17.48046875 C-41.45027976 22.50576482 -44 28.07984594 -44 35 C-39.4101602 35.0248244 -34.82035999 35.04291873 -30.23046875 35.05493164 C-28.67089151 35.05994272 -27.11131892 35.06675337 -25.55175781 35.07543945 C-23.30272264 35.08764686 -21.0537499 35.09326068 -18.8046875 35.09765625 C-18.1138205 35.10281754 -17.42295349 35.10797882 -16.71115112 35.11329651 C-12.70084945 35.11375529 -8.93454705 34.7735266 -5 34 C-6.18950501 24.77781349 -6.18950501 24.77781349 -11 17 C-18.77412105 11.75698813 -29.36960223 11.35093517 -36.79296875 17.48046875 Z " fill="#58595B" transform="translate(1086,240)"/>
<path d="M0 0 C6.20544396 6.83368105 8.25874334 14.3525478 8.22705078 23.49584961 C8.22734283 24.20888245 8.22763489 24.92191528 8.22793579 25.65655518 C8.22655419 27.9886131 8.21104896 30.32034237 8.1953125 32.65234375 C8.1915782 34.27901536 8.1887332 35.90568922 8.18673706 37.53236389 C8.17913346 41.79519966 8.15951339 46.05789721 8.1373291 50.32067871 C8.11679986 54.6779595 8.10772026 59.03526282 8.09765625 63.39257812 C8.07626413 71.92845564 8.04110898 80.46419465 8 89 C-0.58 89 -9.16 89 -18 89 C-18 81.86008915 -17.94536089 74.90576068 -17.5 67.8125 C-17.05986104 59.81287698 -16.85983852 51.8239524 -16.8125 43.8125 C-16.79960938 42.77391846 -16.78671875 41.73533691 -16.7734375 40.6652832 C-16.76224583 32.01062224 -17.16077233 23.84023813 -23 17 C-29.20115627 13.91004028 -36.30333203 13.94380915 -42.8984375 15.828125 C-46.56228528 17.2678775 -49.71864868 18.81243245 -53 21 C-53.44046971 23.95085629 -53.44046971 23.95085629 -53.34057617 27.46923828 C-53.34101425 28.13277313 -53.34145233 28.79630798 -53.34190369 29.47994995 C-53.33981068 31.677035 -53.31645699 33.87336049 -53.29296875 36.0703125 C-53.28737458 37.5920266 -53.28310364 39.1137461 -53.28010559 40.63546753 C-53.26864261 44.64364499 -53.2391633 48.65149712 -53.20599365 52.6595459 C-53.17532384 56.74824624 -53.16160689 60.83699907 -53.14648438 64.92578125 C-53.11429461 72.95068689 -53.06151518 80.97526551 -53 89 C-61.91 89 -70.82 89 -80 89 C-79.97643433 86.06722168 -79.97643433 86.06722168 -79.95239258 83.07519531 C-79.90351851 76.52947565 -79.86932302 69.9837999 -79.84456348 63.43794632 C-79.82907503 59.47903264 -79.80815548 55.52032093 -79.77368164 51.56152344 C-79.50746835 27.94029691 -79.50746835 27.94029691 -82.3503418 4.52636719 C-83 1 -83 1 -83 -3 C-70.625 -4.485 -70.625 -4.485 -58 -6 C-57.01 -2.7 -56.02 0.6 -55 4 C-54.38253906 3.52949219 -53.76507812 3.05898437 -53.12890625 2.57421875 C-37.98121661 -8.561754 -16.09800321 -11.46288849 0 0 Z " fill="#58595B" transform="translate(1524,243)"/>
<path d="M0 0 C-0.00666183 0.66017624 -0.01332367 1.32035248 -0.02018738 2.00053406 C-0.08702904 8.92844731 -0.1320015 15.8562676 -0.16479492 22.78442383 C-0.17979647 25.36323778 -0.20020427 27.94202659 -0.22631836 30.52075195 C-0.26308314 34.24697103 -0.27981339 37.97285013 -0.29296875 41.69921875 C-0.30845261 42.8351799 -0.32393646 43.97114105 -0.33988953 45.14152527 C-0.43320474 59.1361892 -0.43320474 59.1361892 5.5 71.25 C10.38383911 74.66868738 15.24512977 74.47754901 21 74 C25.14456937 73.06041056 29.19108494 71.90445753 33 70 C33 47.23 33 24.46 33 1 C41.91 0.67 50.82 0.34 60 0 C59.98952637 1.86317871 59.97905273 3.72635742 59.96826172 5.64599609 C59.93553079 11.92027588 59.91281752 18.194535 59.89637566 24.46887779 C59.88609862 28.25941263 59.87224902 32.04985209 59.84912109 35.84033203 C59.752289 52.11225071 59.85999728 68.21103756 61.38278198 84.42953491 C61.47576569 85.42039093 61.56874939 86.41124695 61.66455078 87.43212891 C61.79689621 88.7275914 61.79689621 88.7275914 61.93191528 90.04922485 C61.96561722 91.01485855 61.96561722 91.01485855 62 92 C61 93 61 93 58.77514648 93.11352539 C57.33764038 93.10567017 57.33764038 93.10567017 55.87109375 93.09765625 C54.31938477 93.09282227 54.31938477 93.09282227 52.73632812 93.08789062 C51.64771484 93.07951172 50.55910156 93.07113281 49.4375 93.0625 C47.7987793 93.05573242 47.7987793 93.05573242 46.12695312 93.04882812 C43.41791505 93.03699826 40.70898401 93.02051543 38 93 C36.64560332 90.29120665 36.93498549 87.99066732 37 85 C36.32195312 85.47050781 35.64390625 85.94101562 34.9453125 86.42578125 C22.38228723 94.83013195 10.93841312 96.45985359 -4 95 C-7.72755378 94.14985616 -10.74266899 92.98212057 -14 91 C-14.928125 90.46375 -15.85625 89.9275 -16.8125 89.375 C-25.47682797 79.96801534 -26.2696805 67.22364707 -26.37890625 55.0234375 C-26.39590073 54.01391022 -26.4128952 53.00438293 -26.43040466 51.96426392 C-26.48296247 48.76790468 -26.52349404 45.57155078 -26.5625 42.375 C-26.62135094 38.17439369 -26.68563726 33.97390096 -26.75390625 29.7734375 C-26.76982819 28.76480652 -26.78575012 27.75617554 -26.80215454 26.71697998 C-26.95666468 18.12628612 -27.39102459 9.56951947 -28 1 C-24.45843821 0.83105465 -20.91673593 0.66525124 -17.375 0.5 C-16.37597656 0.45230469 -15.37695312 0.40460938 -14.34765625 0.35546875 C-13.37441406 0.31035156 -12.40117188 0.26523438 -11.3984375 0.21875 C-10.50817871 0.17685547 -9.61791992 0.13496094 -8.70068359 0.09179688 C-5.79854112 -0.00684764 -2.90359582 -0.01490935 0 0 Z " fill="#58595B" transform="translate(863,239)"/>
<path d="M0 0 C-0.0721875 1.02351562 -0.144375 2.04703125 -0.21875 3.1015625 C-3.88905168 37.51488192 -3.88905168 37.51488192 4 70 C8.33840253 73.93167729 12.5111562 74.32568608 18.15625 74.30078125 C22.31042912 73.86139692 25.90283741 72.44883924 29.75 70.875 C32 70 32 70 34 70 C33.96970703 69.0112085 33.93941406 68.02241699 33.90820312 67.00366211 C33.24254801 44.99484324 32.85784063 23.0189068 33 1 C41.58 0.67 50.16 0.34 59 0 C59.02505615 2.14218018 59.0501123 4.28436035 59.07592773 6.49145508 C59.16020366 13.64793968 59.24877389 20.80436679 59.33933926 27.96077442 C59.39400721 32.29064152 59.4473232 36.62051563 59.49731445 40.95043945 C59.54580379 45.14562778 59.59815099 49.34075328 59.65294075 53.53586388 C59.67298945 55.11943642 59.69175316 56.7030259 59.70907402 58.28663063 C59.83715919 69.88319784 60.33582428 81.42065174 61 93 C53.08 93 45.16 93 37 93 C36.34 90.69 35.68 88.38 35 86 C34.38253906 86.39832031 33.76507812 86.79664063 33.12890625 87.20703125 C32.28199219 87.73683594 31.43507813 88.26664062 30.5625 88.8125 C29.73878906 89.33457031 28.91507813 89.85664063 28.06640625 90.39453125 C20.76992582 94.21472674 14.19511851 95.48847087 6 95.375 C5.16210938 95.38660156 4.32421875 95.39820313 3.4609375 95.41015625 C-5.41347714 95.3689438 -12.79028539 93.2709144 -19.27734375 87.0546875 C-29.43851062 74.93501908 -27.14744466 54.87214441 -27.03222656 40.17871094 C-26.93596039 27.09995282 -27.39625555 14.06560805 -28 1 C-24.64596947 0.83051801 -21.29175736 0.66492694 -17.9375 0.5 C-16.99455078 0.45230469 -16.05160156 0.40460938 -15.08007812 0.35546875 C-10.04601557 0.10990472 -5.03997893 -0.0559221 0 0 Z " fill="#58595B" transform="translate(1364,239)"/>
<path d="M0 0 C12.74923558 -0.30292605 25.07198018 0.98713705 35.34375 9.16015625 C45.09381872 19.66023025 42.63251676 37.19858832 42.40625 50.34765625 C42.20902273 62.96722808 42.11831973 75.27469798 43.90405273 87.7902832 C44.34375 91.16015625 44.34375 91.16015625 44.34375 96.16015625 C36.42375 96.16015625 28.50375 96.16015625 20.34375 96.16015625 C19.68375 94.18015625 19.02375 92.20015625 18.34375 90.16015625 C17.27125 90.92328125 16.19875 91.68640625 15.09375 92.47265625 C4.85590396 98.78390285 -8.16582645 99.92767937 -19.80859375 97.50390625 C-27.35292721 95.10296611 -32.2375848 91.16464438 -36.3125 84.41796875 C-37.85631414 80.67511703 -38.19395904 77.40015409 -38.15625 73.41015625 C-38.15052979 72.70640869 -38.14480957 72.00266113 -38.13891602 71.27758789 C-37.86219391 63.1520207 -34.88099682 57.34986362 -29.46875 51.34765625 C-16.97899357 39.93228747 1.273409 38.91910114 17.34375 39.16015625 C17.08732696 37.24150854 16.81301564 35.32524631 16.53125 33.41015625 C16.38042969 32.3428125 16.22960937 31.27546875 16.07421875 30.17578125 C15.29123699 26.94336459 14.77166057 25.42009816 12.34375 23.16015625 C6.25943779 20.61697813 0.1071256 20.86154897 -6.40625 20.91015625 C-7.4271875 20.90242188 -8.448125 20.8946875 -9.5 20.88671875 C-15.61088228 20.9022286 -21.3100687 21.46229084 -27.29003906 22.73144531 C-29.65625 23.16015625 -29.65625 23.16015625 -33.65625 23.16015625 C-33.54233368 20.55506989 -33.41559452 17.95170079 -33.28125 15.34765625 C-33.2503125 14.60966797 -33.219375 13.87167969 -33.1875 13.11132812 C-32.98278852 9.3412251 -32.79191173 7.36364884 -30.65625 4.16015625 C-20.75932981 0.93019903 -10.31544797 0.45185189 0 0 Z M-12.09375 61.47265625 C-14.06202218 64.8580844 -14.58753022 67.2431287 -14.65625 71.16015625 C-13.43947096 74.8820686 -12.32039344 76.64927668 -9.21875 79.03515625 C-0.97904017 81.63716988 7.53822686 80.77290369 15.34375 77.16015625 C16.33375 76.50015625 17.32375 75.84015625 18.34375 75.16015625 C18.66705056 72.83122055 18.66705056 72.83122055 18.41796875 70.15234375 C18.33579102 68.67314453 18.33579102 68.67314453 18.25195312 67.1640625 C18.17912109 66.13152344 18.10628906 65.09898437 18.03125 64.03515625 C17.97001953 62.99488281 17.90878906 61.95460938 17.84570312 60.8828125 C17.69212505 58.30742625 17.52423829 55.73377393 17.34375 53.16015625 C6.72755571 53.00111214 -4.08385357 53.87352374 -12.09375 61.47265625 Z " fill="#58595B" transform="translate(704.65625,235.83984375)"/>
<path d="M0 0 C0.96325195 0.00459229 1.92650391 0.00918457 2.91894531 0.01391602 C19.12779172 0.22014586 19.12779172 0.22014586 25.1875 3.25 C24.87805299 5.83373234 24.56506043 8.41695133 24.25 11 C24.16298828 11.72960937 24.07597656 12.45921875 23.98632812 13.2109375 C23.56722591 16.62584442 23.070226 19.92603543 22.1875 23.25 C21.37410156 23.0334375 20.56070312 22.816875 19.72265625 22.59375 C12.75831989 20.90162778 6.27911972 19.94996498 -0.875 19.9375 C-1.58841553 19.93234375 -2.30183105 19.9271875 -3.03686523 19.921875 C-8.2195351 19.99064162 -12.08222344 20.51972344 -15.8125 24.25 C-16.1186773 27.18284872 -16.1186773 27.18284872 -14.8125 30.25 C-8.79099873 35.29663843 -0.89495379 37.85760315 6.32226562 40.6796875 C16.21448768 44.72617716 23.76072851 50.05377987 28.4375 59.875 C30.39554838 68.6862177 30.02745411 77.45885437 25.1875 85.25 C18.1475975 93.85267155 8.86379019 96.67400353 -1.8125 98.25 C-15.23686787 99.01013064 -28.85838349 99.20689377 -41.8125 95.25 C-41.50089539 93.04154015 -41.18817654 90.83323749 -40.875 88.625 C-40.70097656 87.39523437 -40.52695313 86.16546875 -40.34765625 84.8984375 C-39.87475699 81.67443816 -39.36098998 78.46187824 -38.8125 75.25 C-38.16023438 75.38277344 -37.50796875 75.51554687 -36.8359375 75.65234375 C-35.96195313 75.82894531 -35.08796875 76.00554687 -34.1875 76.1875 C-33.32898437 76.36152344 -32.47046875 76.53554688 -31.5859375 76.71484375 C-30.67070313 76.89144531 -29.75546875 77.06804687 -28.8125 77.25 C-27.91660156 77.43175781 -27.02070312 77.61351562 -26.09765625 77.80078125 C-21.68024453 78.40482685 -17.32880816 78.47366558 -12.875 78.5 C-11.57272461 78.5309375 -11.57272461 78.5309375 -10.24414062 78.5625 C-4.66137118 78.59625824 -0.72826591 77.96506541 4.1875 75.25 C5.69199168 72.97799982 5.69199168 72.97799982 5.1875 70.25 C1.08918832 63.74303145 -4.64377951 61.69669962 -11.5625 58.8125 C-21.46214625 54.66123208 -33.1404606 49.67972522 -37.7109375 39.1875 C-40.79341267 30.81674173 -40.39586794 23.4149598 -36.8125 15.25 C-31.86234847 7.35725839 -24.53969864 3.35443783 -15.66796875 1.1328125 C-10.43760274 0.03538898 -5.32818176 -0.05239162 0 0 Z " fill="#58595B" transform="translate(1660.8125,235.75)"/>
<path d="M0 0 C-0.66 9.57 -1.32 19.14 -2 29 C5.92 28.67 13.84 28.34 22 28 C22.020625 31.114375 22.04125 34.22875 22.0625 37.4375 C22.071604 38.42032959 22.08070801 39.40315918 22.09008789 40.41577148 C22.09258545 41.18477783 22.09508301 41.95378418 22.09765625 42.74609375 C22.10289307 43.53685303 22.10812988 44.3276123 22.11352539 45.14233398 C22 47 22 47 21 48 C19.29227642 48.08713831 17.58101351 48.10700007 15.87109375 48.09765625 C14.83662109 48.09443359 13.80214844 48.09121094 12.73632812 48.08789062 C11.64771484 48.07951172 10.55910156 48.07113281 9.4375 48.0625 C7.7987793 48.05573242 7.7987793 48.05573242 6.12695312 48.04882812 C3.41791505 48.03699826 0.70898401 48.02051543 -2 48 C-1.93072728 53.53224981 -1.84257175 59.06377214 -1.73754883 64.59545898 C-1.70446816 66.47395704 -1.67638473 68.35255046 -1.65356445 70.23120117 C-1.61970614 72.94490889 -1.56737785 75.65775576 -1.51171875 78.37109375 C-1.50532883 79.19959335 -1.4989389 80.02809296 -1.49235535 80.88169861 C-1.34020373 87.03220822 -0.67015737 93.8077064 3.41596985 98.69285583 C6.11444344 100.91964047 8.65612389 101.12288629 12.01171875 101.09765625 C12.69451904 101.09515869 13.37731934 101.09266113 14.08081055 101.09008789 C14.94101807 101.08098389 15.80122559 101.07187988 16.6875 101.0625 C19.430625 101.041875 22.17375 101.02125 25 101 C24.34 106.94 23.68 112.88 23 119 C12.22140482 122.59286506 -0.64153339 123.81364 -11.27734375 118.9609375 C-18.17355548 114.97988417 -22.06782727 109.89860085 -24.421875 102.34375 C-25.99622181 95.96126294 -26.13225028 89.88811246 -26.09765625 83.3515625 C-26.0962413 82.33903412 -26.09482635 81.32650574 -26.09336853 80.28329468 C-26.08779143 77.06383249 -26.07524312 73.84444101 -26.0625 70.625 C-26.05748204 68.43619892 -26.05291965 66.24739675 -26.04882812 64.05859375 C-26.03782949 58.70570211 -26.02058063 53.35286303 -26 48 C-30.29 48 -34.58 48 -39 48 C-39 41.73 -39 35.46 -39 29 C-34.38 29 -29.76 29 -25 29 C-25.020625 26.7725 -25.04125 24.545 -25.0625 22.25 C-25.09312998 15.45686737 -24.70493171 8.75979155 -24 2 C-21.68841851 1.65889707 -19.37607998 1.327039 -17.0625 1 C-15.77472656 0.814375 -14.48695313 0.62875 -13.16015625 0.4375 C-8.79508556 -0.02154969 -4.38914214 0 0 0 Z " fill="#58595B" transform="translate(800,212)"/>
<path d="M0 0 C0.13514573 9.74550869 -0.26686854 19.28600822 -1 29 C6.92 28.67 14.84 28.34 23 28 C23.020625 30.371875 23.04125 32.74375 23.0625 35.1875 C23.071604 35.92508545 23.08070801 36.6626709 23.09008789 37.42260742 C23.10584333 41.18612395 22.74765352 44.26173238 22 48 C14.41 48 6.82 48 -1 48 C-1.04649617 52.1588237 -1.08613622 56.31670707 -1.10986328 60.47558594 C-1.11977813 61.88349501 -1.13331412 63.29138433 -1.15087891 64.69921875 C-1.57833936 82.4729216 -1.57833936 82.4729216 4 99 C7.55284153 101.96070127 12.36223452 101.21959528 16.75 101.125 C17.54277344 101.11597656 18.33554688 101.10695313 19.15234375 101.09765625 C21.10169281 101.07417012 23.05088575 101.03830137 25 101 C25.09706112 107.11485027 24.77040851 112.93303301 24 119 C14.05136809 122.71740611 2.16544471 123.29601899 -8 120 C-14.89144312 116.8557052 -19.9146082 112.12239567 -22.75 105 C-25.20175941 98.1578807 -25.13477809 91.30431728 -25.09765625 84.1328125 C-25.0962413 83.09808807 -25.09482635 82.06336365 -25.09336853 80.99728394 C-25.08779039 77.70649268 -25.07524188 74.41577054 -25.0625 71.125 C-25.05748218 68.88802182 -25.05291976 66.65104257 -25.04882812 64.4140625 C-25.03782811 58.94268188 -25.02057852 53.47135264 -25 48 C-29.29 48 -33.58 48 -38 48 C-38 41.73 -38 35.46 -38 29 C-33.38 29 -28.76 29 -24 29 C-24.01160156 27.55367187 -24.02320313 26.10734375 -24.03515625 24.6171875 C-24.0445389 22.7031263 -24.05363859 20.78906369 -24.0625 18.875 C-24.07087891 17.92367187 -24.07925781 16.97234375 -24.08789062 15.9921875 C-24.10449608 11.20981513 -24.00537055 6.70228431 -23 2 C-7.25512528 -0.29612756 -7.25512528 -0.29612756 0 0 Z " fill="#58595B" transform="translate(1585,212)"/>
<path d="M0 0 C-0.58359075 8.31616812 -2.73799414 16.01459326 -5 24 C-5.60585938 23.855625 -6.21171875 23.71125 -6.8359375 23.5625 C-15.45664955 21.65268071 -23.08811904 20.49493586 -31.2109375 24.5390625 C-34.93233132 27.57792994 -36.74878261 30.12991798 -37.38937378 34.89852905 C-37.55974404 38.5799417 -37.60590083 42.24430771 -37.609375 45.9296875 C-37.62436957 47.28876708 -37.6410994 48.64782852 -37.65948486 50.00686646 C-37.7030285 53.56767653 -37.72312814 57.12824086 -37.73822021 60.68927002 C-37.75783863 64.32945204 -37.79980309 67.96937047 -37.83984375 71.609375 C-37.9150047 78.73950733 -37.96331358 85.86955073 -38 93 C-46.58 93 -55.16 93 -64 93 C-63.98428955 91.03957764 -63.9685791 89.07915527 -63.95239258 87.05932617 C-63.90355061 80.50162538 -63.8693371 73.94396833 -63.84456348 67.38613415 C-63.82906443 63.41934519 -63.80812409 59.45275728 -63.77368164 55.48608398 C-63.43771765 32.32973532 -63.43771765 32.32973532 -66.3503418 9.4074707 C-67 6 -67 6 -67 1 C-54.625 -0.485 -54.625 -0.485 -42 -2 C-41.34 1.3 -40.68 4.6 -40 8 C-39.34 8 -38.68 8 -38 8 C-37.2575 7.2575 -36.515 6.515 -35.75 5.75 C-25.59457616 -4.40542384 -13.06576508 -4.78685688 0 0 Z " fill="#58595B" transform="translate(1008,239)"/>
</svg>
