<?xml version="1.0" encoding="UTF-8"?>
<svg version="1.1" xmlns="http://www.w3.org/2000/svg" width="960" height="640">
<path d="M0 0 C316.8 0 633.6 0 960 0 C960 211.2 960 422.4 960 640 C643.2 640 326.4 640 0 640 C0 428.8 0 217.6 0 0 Z " fill="#FFFFFF" transform="translate(0,0)"/>
<path d="M0 0 C132 0 264 0 400 0 C400 79.2 400 158.4 400 240 C268 240 136 240 0 240 C0 160.8 0 81.6 0 0 Z " fill="#003DA5" transform="translate(560,400)"/>
<path d="M0 0 C132 0 264 0 400 0 C400 79.2 400 158.4 400 240 C268 240 136 240 0 240 C0 160.8 0 81.6 0 0 Z " fill="#003DA5" transform="translate(0,400)"/>
<path d="M0 0 C132 0 264 0 400 0 C400 79.2 400 158.4 400 240 C268 240 136 240 0 240 C0 160.8 0 81.6 0 0 Z " fill="#003DA5" transform="translate(560,0)"/>
<path d="M0 0 C132 0 264 0 400 0 C400 79.2 400 158.4 400 240 C268 240 136 240 0 240 C0 160.8 0 81.6 0 0 Z " fill="#003DA5" transform="translate(0,0)"/>
<path d="M0 0 C9.26595326 3.88307132 13.70196255 14.72011172 17.5546875 23.38671875 C24.32118776 40.30296941 19.87188544 52.9300069 13.96582031 69.29394531 C9.34767957 82.2331445 6.74220316 94.26924159 6 108 C8.31 108 10.62 108 13 108 C12.95359375 107.21238281 12.9071875 106.42476562 12.859375 105.61328125 C12.45669293 93.46091175 14.9979874 82.42754928 23 73 C27.63841711 68.33139797 31.94264549 64.73339736 38.75 64.625 C44.9163182 64.78822607 49.40804702 66.34468816 53.7578125 70.80078125 C58.11054192 76.21540843 60.34518936 81.39671577 59.875 88.4375 C58.92899187 94.74780421 56.79184066 99.93432047 51.6875 103.9375 C48.1651414 106.20949754 45.1495286 106.74594723 41 107 C41.04640625 106.40832031 41.0928125 105.81664062 41.140625 105.20703125 C41.32199215 101.23638625 41.27427756 98.58433044 39.5625 94.9375 C36.32084283 92.48649092 34.19166554 92.21067715 30.1875 92.4609375 C27.28712982 93.17567158 25.62715496 94.62556511 23.9296875 97.06640625 C22.23197784 100.59735701 21.64231251 104.14612492 21 108 C24.63 108 28.26 108 32 108 C32 112.29 32 116.58 32 121 C24.08 121 16.16 121 8 121 C11.15760983 130.47128663 11.15760983 130.47128663 18 135 C17.64715325 137.61106596 17.30406662 139.55190182 15.8125 141.75 C13.31717101 143.47091655 10.97506592 143.66943712 8 144 C7.90203125 144.59167969 7.8040625 145.18335938 7.703125 145.79296875 C6.74230199 150.87042139 5.7014799 154.17513744 2 158 C-1.05837286 156.94538867 -1.96358102 156.05934946 -3.6875 153.25 C-4.95365493 150.11475921 -5.60157995 147.34672841 -6 144 C-6.9075 143.938125 -7.815 143.87625 -8.75 143.8125 C-12.77928762 142.80517809 -13.84575113 141.47994048 -16 138 C-16 137.01 -16 136.02 -16 135 C-15.0925 134.484375 -14.185 133.96875 -13.25 133.4375 C-8.81541849 130.55162313 -8.81541849 130.55162313 -6 121 C-13.92 121 -21.84 121 -30 121 C-30 116.71 -30 112.42 -30 108 C-26.37 108 -22.74 108 -19 108 C-20.07085738 101.57485573 -20.88113555 97.24756837 -26 93 C-29.17567363 92.21742328 -31.82328553 92.22952821 -35 93 C-37.78475509 94.7928792 -37.78475509 94.7928792 -39 98 C-39.2992737 101.03331647 -39.23808792 103.96437908 -39 107 C-44.89838508 106.63887438 -48.7456823 105.19113477 -53 101 C-57.51662574 95.50034396 -57.67316911 89.23707142 -57.4375 82.34375 C-56.65422805 76.3573144 -54.39105079 73.1839519 -50.015625 69.1875 C-45.30399997 65.57859572 -41.35957844 64.13132259 -35.4140625 64.5546875 C-27.48907433 66.01657852 -22.55528625 70.53371562 -18 77 C-11.76629482 87.38950863 -10.67065014 95.99702729 -11 108 C-8.69 108 -6.38 108 -4 108 C-4.60474607 88.92026154 -10.40213797 72.31076355 -17.1237793 54.59277344 C-21.26238616 42.34646391 -18.99822579 30.54502027 -14 19 C-10.25342986 11.90732447 -5.48895411 5.82262913 0 0 Z " fill="#FBFCFD" transform="translate(759,441)"/>
<path d="M0 0 C9.26595326 3.88307132 13.70196255 14.72011172 17.5546875 23.38671875 C24.32118776 40.30296941 19.87188544 52.9300069 13.96582031 69.29394531 C9.34767957 82.2331445 6.74220316 94.26924159 6 108 C8.31 108 10.62 108 13 108 C12.95359375 107.21238281 12.9071875 106.42476562 12.859375 105.61328125 C12.45669293 93.46091175 14.9979874 82.42754928 23 73 C27.63841711 68.33139797 31.94264549 64.73339736 38.75 64.625 C44.9163182 64.78822607 49.40804702 66.34468816 53.7578125 70.80078125 C58.11054192 76.21540843 60.34518936 81.39671577 59.875 88.4375 C58.92899187 94.74780421 56.79184066 99.93432047 51.6875 103.9375 C48.1651414 106.20949754 45.1495286 106.74594723 41 107 C41.04640625 106.40832031 41.0928125 105.81664062 41.140625 105.20703125 C41.32199215 101.23638625 41.27427756 98.58433044 39.5625 94.9375 C36.32084283 92.48649092 34.19166554 92.21067715 30.1875 92.4609375 C27.28712982 93.17567158 25.62715496 94.62556511 23.9296875 97.06640625 C22.23197784 100.59735701 21.64231251 104.14612492 21 108 C24.63 108 28.26 108 32 108 C32 112.29 32 116.58 32 121 C24.08 121 16.16 121 8 121 C11.15760983 130.47128663 11.15760983 130.47128663 18 135 C17.64715325 137.61106596 17.30406662 139.55190182 15.8125 141.75 C13.31717101 143.47091655 10.97506592 143.66943712 8 144 C7.90203125 144.59167969 7.8040625 145.18335938 7.703125 145.79296875 C6.74230199 150.87042139 5.7014799 154.17513744 2 158 C-1.05837286 156.94538867 -1.96358102 156.05934946 -3.6875 153.25 C-4.95365493 150.11475921 -5.60157995 147.34672841 -6 144 C-6.9075 143.938125 -7.815 143.87625 -8.75 143.8125 C-12.77928762 142.80517809 -13.84575113 141.47994048 -16 138 C-16 137.01 -16 136.02 -16 135 C-15.0925 134.484375 -14.185 133.96875 -13.25 133.4375 C-8.81541849 130.55162313 -8.81541849 130.55162313 -6 121 C-13.92 121 -21.84 121 -30 121 C-30 116.71 -30 112.42 -30 108 C-26.37 108 -22.74 108 -19 108 C-20.07085738 101.57485573 -20.88113555 97.24756837 -26 93 C-29.17567363 92.21742328 -31.82328553 92.22952821 -35 93 C-37.78475509 94.7928792 -37.78475509 94.7928792 -39 98 C-39.2992737 101.03331647 -39.23808792 103.96437908 -39 107 C-44.89838508 106.63887438 -48.7456823 105.19113477 -53 101 C-57.51662574 95.50034396 -57.67316911 89.23707142 -57.4375 82.34375 C-56.65422805 76.3573144 -54.39105079 73.1839519 -50.015625 69.1875 C-45.30399997 65.57859572 -41.35957844 64.13132259 -35.4140625 64.5546875 C-27.48907433 66.01657852 -22.55528625 70.53371562 -18 77 C-11.76629482 87.38950863 -10.67065014 95.99702729 -11 108 C-8.69 108 -6.38 108 -4 108 C-4.60474607 88.92026154 -10.40213797 72.31076355 -17.1237793 54.59277344 C-21.26238616 42.34646391 -18.99822579 30.54502027 -14 19 C-10.25342986 11.90732447 -5.48895411 5.82262913 0 0 Z " fill="#FBFCFD" transform="translate(199,441)"/>
<path d="M0 0 C9.26595326 3.88307132 13.70196255 14.72011172 17.5546875 23.38671875 C24.32118776 40.30296941 19.87188544 52.9300069 13.96582031 69.29394531 C9.34767957 82.2331445 6.74220316 94.26924159 6 108 C8.31 108 10.62 108 13 108 C12.95359375 107.21238281 12.9071875 106.42476563 12.859375 105.61328125 C12.45669293 93.46091175 14.9979874 82.42754928 23 73 C27.63841711 68.33139797 31.94264549 64.73339736 38.75 64.625 C44.9163182 64.78822607 49.40804702 66.34468816 53.7578125 70.80078125 C58.11054192 76.21540843 60.34518936 81.39671577 59.875 88.4375 C58.92899187 94.74780421 56.79184066 99.93432047 51.6875 103.9375 C48.1651414 106.20949754 45.1495286 106.74594723 41 107 C41.04640625 106.40832031 41.0928125 105.81664062 41.140625 105.20703125 C41.32199215 101.23638625 41.27427756 98.58433044 39.5625 94.9375 C36.32084283 92.48649092 34.19166554 92.21067715 30.1875 92.4609375 C27.28712982 93.17567158 25.62715496 94.62556511 23.9296875 97.06640625 C22.23197784 100.59735701 21.64231251 104.14612492 21 108 C24.63 108 28.26 108 32 108 C32 112.29 32 116.58 32 121 C24.08 121 16.16 121 8 121 C11.15760983 130.47128663 11.15760983 130.47128663 18 135 C17.64715325 137.61106596 17.30406662 139.55190182 15.8125 141.75 C13.31717101 143.47091655 10.97506592 143.66943712 8 144 C7.90203125 144.59167969 7.8040625 145.18335938 7.703125 145.79296875 C6.74230199 150.87042139 5.7014799 154.17513744 2 158 C-1.05837286 156.94538867 -1.96358102 156.05934946 -3.6875 153.25 C-4.95365493 150.11475921 -5.60157995 147.34672841 -6 144 C-6.9075 143.938125 -7.815 143.87625 -8.75 143.8125 C-12.77928762 142.80517809 -13.84575113 141.47994048 -16 138 C-16 137.01 -16 136.02 -16 135 C-15.0925 134.484375 -14.185 133.96875 -13.25 133.4375 C-8.81541849 130.55162313 -8.81541849 130.55162313 -6 121 C-13.92 121 -21.84 121 -30 121 C-30 116.71 -30 112.42 -30 108 C-26.37 108 -22.74 108 -19 108 C-20.07085738 101.57485573 -20.88113555 97.24756837 -26 93 C-29.17567363 92.21742328 -31.82328553 92.22952821 -35 93 C-37.78475509 94.7928792 -37.78475509 94.7928792 -39 98 C-39.2992737 101.03331647 -39.23808792 103.96437908 -39 107 C-44.89838508 106.63887438 -48.7456823 105.19113477 -53 101 C-57.51662574 95.50034396 -57.67316911 89.23707142 -57.4375 82.34375 C-56.65422805 76.3573144 -54.39105079 73.1839519 -50.015625 69.1875 C-45.30399997 65.57859572 -41.35957844 64.13132259 -35.4140625 64.5546875 C-27.48907433 66.01657852 -22.55528625 70.53371562 -18 77 C-11.76629482 87.38950863 -10.67065014 95.99702729 -11 108 C-8.69 108 -6.38 108 -4 108 C-4.60474607 88.92026154 -10.40213797 72.31076355 -17.1237793 54.59277344 C-21.26238616 42.34646391 -18.99822579 30.54502027 -14 19 C-10.25342986 11.90732447 -5.48895411 5.82262913 0 0 Z " fill="#FBFCFD" transform="translate(759,41)"/>
<path d="M0 0 C9.26595326 3.88307132 13.70196255 14.72011172 17.5546875 23.38671875 C24.32118776 40.30296941 19.87188544 52.9300069 13.96582031 69.29394531 C9.34767957 82.2331445 6.74220316 94.26924159 6 108 C8.31 108 10.62 108 13 108 C12.95359375 107.21238281 12.9071875 106.42476563 12.859375 105.61328125 C12.45669293 93.46091175 14.9979874 82.42754928 23 73 C27.63841711 68.33139797 31.94264549 64.73339736 38.75 64.625 C44.9163182 64.78822607 49.40804702 66.34468816 53.7578125 70.80078125 C58.11054192 76.21540843 60.34518936 81.39671577 59.875 88.4375 C58.92899187 94.74780421 56.79184066 99.93432047 51.6875 103.9375 C48.1651414 106.20949754 45.1495286 106.74594723 41 107 C41.04640625 106.40832031 41.0928125 105.81664062 41.140625 105.20703125 C41.32199215 101.23638625 41.27427756 98.58433044 39.5625 94.9375 C36.32084283 92.48649092 34.19166554 92.21067715 30.1875 92.4609375 C27.28712982 93.17567158 25.62715496 94.62556511 23.9296875 97.06640625 C22.23197784 100.59735701 21.64231251 104.14612492 21 108 C24.63 108 28.26 108 32 108 C32 112.29 32 116.58 32 121 C24.08 121 16.16 121 8 121 C11.15760983 130.47128663 11.15760983 130.47128663 18 135 C17.64715325 137.61106596 17.30406662 139.55190182 15.8125 141.75 C13.31717101 143.47091655 10.97506592 143.66943712 8 144 C7.90203125 144.59167969 7.8040625 145.18335938 7.703125 145.79296875 C6.74230199 150.87042139 5.7014799 154.17513744 2 158 C-1.05837286 156.94538867 -1.96358102 156.05934946 -3.6875 153.25 C-4.95365493 150.11475921 -5.60157995 147.34672841 -6 144 C-6.9075 143.938125 -7.815 143.87625 -8.75 143.8125 C-12.77928762 142.80517809 -13.84575113 141.47994048 -16 138 C-16 137.01 -16 136.02 -16 135 C-15.0925 134.484375 -14.185 133.96875 -13.25 133.4375 C-8.81541849 130.55162313 -8.81541849 130.55162313 -6 121 C-13.92 121 -21.84 121 -30 121 C-30 116.71 -30 112.42 -30 108 C-26.37 108 -22.74 108 -19 108 C-20.07085738 101.57485573 -20.88113555 97.24756837 -26 93 C-29.17567363 92.21742328 -31.82328553 92.22952821 -35 93 C-37.78475509 94.7928792 -37.78475509 94.7928792 -39 98 C-39.2992737 101.03331647 -39.23808792 103.96437908 -39 107 C-44.89838508 106.63887438 -48.7456823 105.19113477 -53 101 C-57.51662574 95.50034396 -57.67316911 89.23707142 -57.4375 82.34375 C-56.65422805 76.3573144 -54.39105079 73.1839519 -50.015625 69.1875 C-45.30399997 65.57859572 -41.35957844 64.13132259 -35.4140625 64.5546875 C-27.48907433 66.01657852 -22.55528625 70.53371562 -18 77 C-11.76629482 87.38950863 -10.67065014 95.99702729 -11 108 C-8.69 108 -6.38 108 -4 108 C-4.60474607 88.92026154 -10.40213797 72.31076355 -17.1237793 54.59277344 C-21.26238616 42.34646391 -18.99822579 30.54502027 -14 19 C-10.25342986 11.90732447 -5.48895411 5.82262913 0 0 Z " fill="#FBFCFD" transform="translate(199,41)"/>
</svg>
