<svg xmlns="http://www.w3.org/2000/svg" width="48" height="32" viewBox="0 0 300 200" role="img" aria-label="Flag of Quebec"><rect width="48" height="32" fill="#003DA5"/><rect x="132" width="36" height="200" fill="#fff"/><rect y="82" width="300" height="36" fill="#fff"/><defs><g id="fleur" fill="#fff"><path d="M0 -32 C-9 -21 -10 -9 0 1 C10 -9 9 -21 0 -32 Z"/><path d="M-4 2 C-19 -16 -36 -8 -31 11 C-27 27 -10 22 -5 8 Z"/><path d="M4 2 C19 -16 36 -8 31 11 C27 27 10 22 5 8 Z"/><rect x="-18" y="10" width="36" height="7" rx="1"/><path d="M-13 17 H13 L8 25 H4 L0 34 L-4 25 H-8 Z"/></g></defs><use href="#fleur" transform="translate(75 47) scale(.72)"/><use href="#fleur" transform="translate(225 47) scale(.72)"/><use href="#fleur" transform="translate(75 153) scale(.72)"/><use href="#fleur" transform="translate(225 153) scale(.72)"/></svg>